<svg width="317" height="112" viewBox="0 0 317 112" fill="none" xmlns="http://www.w3.org/2000/svg">
<path d="M49.9881 5.73468C53.3533 2.52465 58.6467 2.52465 62.0119 5.73468C64.3937 8.00657 67.8527 8.7418 70.9526 7.63507C75.3325 6.07132 80.1683 8.22436 81.9369 12.5256C83.1887 15.5698 86.0496 17.6484 89.3316 17.8982C93.9689 18.2511 97.5109 22.1849 97.3772 26.8337C97.2825 30.1238 99.0507 33.1863 101.947 34.7495C106.04 36.958 107.676 41.9924 105.663 46.1849C104.238 49.1521 104.608 52.669 106.618 55.2751C109.459 58.9575 108.906 64.2219 105.362 67.2332C102.853 69.3644 101.76 72.7276 102.537 75.9262C103.634 80.4455 100.988 85.0298 96.5251 86.3392C93.3667 87.2659 91.0005 89.8938 90.409 93.1318C89.5733 97.7068 85.2908 100.818 80.6814 100.199C77.4192 99.7612 74.1887 101.2 72.3313 103.917C69.707 107.756 64.5293 108.857 60.5702 106.417C57.7681 104.69 54.2319 104.69 51.4298 106.417C47.4707 108.857 42.293 107.757 39.6687 103.917C37.8113 101.2 34.5808 99.7612 31.3185 100.199C26.7092 100.818 22.4267 97.7068 21.591 93.1318C20.9995 89.8938 18.6333 87.2659 15.4749 86.3392C11.0124 85.0298 8.36563 80.4455 9.46298 75.9262C10.2396 72.7276 9.14686 69.3644 6.63845 67.2332C3.09426 64.2219 2.54094 58.9575 5.38162 55.2751C7.3921 52.669 7.76174 49.1521 6.33704 46.1849C4.32404 41.9924 5.9598 36.958 10.0526 34.7495C12.9493 33.1863 14.7175 30.1238 14.6228 26.8337C14.4891 22.1849 18.0311 18.2511 22.6684 17.8982C25.9504 17.6484 28.8113 15.5698 30.0631 12.5256C31.8317 8.22436 36.6675 6.07132 41.0474 7.63507C44.1473 8.7418 47.6063 8.00657 49.9881 5.73468Z" fill="white"/>
<circle cx="55.9999" cy="55.9999" r="43.2069" fill="#AA3399"/>
<circle cx="55.8794" cy="55.8794" r="40.069" stroke="white" stroke-width="1.68966"/>
<path d="M29.0406 57.7717V61.2566C29.0406 61.3974 29.0758 61.503 29.1462 61.5734C29.2519 61.6438 29.3751 61.679 29.5159 61.679H29.8855V61.9958H27.351V61.679H27.7206C27.8966 61.679 28.0198 61.6438 28.0902 61.5734C28.1606 61.503 28.1958 61.3974 28.1958 61.2566V53.706C28.1958 53.5651 28.1606 53.4595 28.0902 53.3891C28.0198 53.3187 27.8966 53.2835 27.7206 53.2835H27.4038V52.9667H30.5191C31.3991 52.9667 32.0679 53.1955 32.5256 53.6532C33.0184 54.0756 33.2648 54.6212 33.2648 55.29C33.2648 56.0996 33.0008 56.7157 32.4728 57.1381C31.9799 57.5605 31.3815 57.7717 30.6775 57.7717H29.0406ZM30.3607 57.4549C30.8887 57.4549 31.3463 57.2965 31.7335 56.9797C32.1559 56.6629 32.3672 56.1172 32.3672 55.3428C32.3672 54.6388 32.1911 54.1284 31.8391 53.8116C31.5223 53.4595 30.9943 53.2835 30.2551 53.2835H29.5159C29.3751 53.2835 29.2519 53.3187 29.1462 53.3891C29.0758 53.4595 29.0406 53.5651 29.0406 53.706V57.4549H30.3607ZM38.6104 58.6165H36.2344L35.7591 60.623C35.7239 60.799 35.7063 60.9398 35.7063 61.0454C35.7063 61.1862 35.7239 61.327 35.7591 61.4678C35.8295 61.6086 35.9879 61.679 36.2344 61.679H36.3928V61.9958H34.4391V61.679H34.5975C34.7383 61.679 34.8615 61.6438 34.9671 61.5734C35.0727 61.4678 35.1431 61.3094 35.1783 61.0982L37.2376 53.0195L38.0296 52.7555L40.0361 61.0982C40.1065 61.3094 40.1945 61.4678 40.3001 61.5734C40.4057 61.6438 40.5289 61.679 40.6697 61.679H40.8281V61.9958H38.5576V61.679H38.7688C38.98 61.679 39.1032 61.6438 39.1384 61.5734C39.1736 61.4678 39.1912 61.3798 39.1912 61.3094C39.1912 61.1686 39.1736 61.0454 39.1384 60.9398L38.6104 58.6165ZM37.5016 53.9172H37.4488L36.34 58.2997H38.5576L37.5016 53.9172ZM47.5994 55.0788C47.5994 55.7828 47.4058 56.3284 47.0186 56.7157C46.6314 57.1029 46.1913 57.3317 45.6985 57.4021L47.2826 61.3094C47.353 61.4502 47.4234 61.5558 47.4938 61.6262C47.5994 61.6614 47.705 61.679 47.8106 61.679H48.1274V61.9958H46.649L44.9065 57.4549H43.6921V61.2566C43.6921 61.3974 43.7273 61.503 43.7977 61.5734C43.9033 61.6438 44.0265 61.679 44.1673 61.679H44.4841V61.9958H42.0552V61.679H42.372C42.548 61.679 42.6712 61.6438 42.7416 61.5734C42.812 61.503 42.8472 61.3974 42.8472 61.2566V53.706C42.8472 53.5651 42.812 53.4595 42.7416 53.3891C42.6712 53.3187 42.548 53.2835 42.372 53.2835H42.0552V52.9667H45.0649C45.8745 52.9667 46.4906 53.1427 46.913 53.4947C47.3706 53.8468 47.5994 54.3748 47.5994 55.0788ZM43.6921 57.1381H44.8537C45.3817 57.1381 45.8217 56.9797 46.1737 56.6629C46.5258 56.346 46.7018 55.8532 46.7018 55.1844C46.7018 54.586 46.5434 54.1284 46.2266 53.8116C45.9097 53.4595 45.4169 53.2835 44.7481 53.2835H44.1673C44.0265 53.2835 43.9033 53.3187 43.7977 53.3891C43.7273 53.4595 43.6921 53.5651 43.6921 53.706V57.1381ZM53.2091 58.6165H50.833L50.3578 60.623C50.3226 60.799 50.305 60.9398 50.305 61.0454C50.305 61.1862 50.3226 61.327 50.3578 61.4678C50.4282 61.6086 50.5866 61.679 50.833 61.679H50.9914V61.9958H49.0377V61.679H49.1961C49.3369 61.679 49.4601 61.6438 49.5657 61.5734C49.6713 61.4678 49.7417 61.3094 49.7769 61.0982L51.8362 53.0195L52.6282 52.7555L54.6347 61.0982C54.7051 61.3094 54.7931 61.4678 54.8987 61.5734C55.0043 61.6438 55.1275 61.679 55.2683 61.679H55.4267V61.9958H53.1562V61.679H53.3675C53.5787 61.679 53.7019 61.6438 53.7371 61.5734C53.7723 61.4678 53.7899 61.3798 53.7899 61.3094C53.7899 61.1686 53.7723 61.0454 53.7371 60.9398L53.2091 58.6165ZM52.1002 53.9172H52.0474L50.9386 58.2997H53.1562L52.1002 53.9172ZM61.5116 57.4021C61.5116 55.8884 61.2828 54.8324 60.8252 54.234C60.3676 53.6004 59.7339 53.2835 58.9243 53.2835C58.6779 53.2835 58.4843 53.3187 58.3435 53.3891C58.2379 53.4595 58.1851 53.5651 58.1851 53.706V61.2566C58.1851 61.3974 58.2379 61.503 58.3435 61.5734C58.4491 61.6438 58.5899 61.679 58.7659 61.679C59.5403 61.679 60.1915 61.3974 60.7196 60.8342C61.2476 60.2358 61.5116 59.0917 61.5116 57.4021ZM57.3403 53.706C57.3403 53.5651 57.3051 53.4595 57.2347 53.3891C57.1643 53.3187 57.041 53.2835 56.865 53.2835H56.5482V52.9667H58.9243C60.0155 52.9667 60.878 53.3187 61.5116 54.0228C62.1804 54.7268 62.5148 55.818 62.5148 57.2965C62.5148 58.9157 62.198 60.1126 61.5644 60.887C60.9308 61.6262 59.9979 61.9958 58.7659 61.9958H56.4954V61.679H56.865C57.041 61.679 57.1643 61.6438 57.2347 61.5734C57.3051 61.503 57.3403 61.3974 57.3403 61.2566V53.706ZM64.798 53.2835V52.9667H69.0221V53.2835H67.8077C67.6669 53.2835 67.5437 53.3187 67.4381 53.3891C67.3677 53.4595 67.3325 53.5651 67.3325 53.706V61.2566C67.3325 61.3974 67.3677 61.503 67.4381 61.5734C67.5437 61.6438 67.6669 61.679 67.8077 61.679H69.0221V61.9958H64.798V61.679H66.0124C66.1884 61.679 66.3116 61.6438 66.382 61.5734C66.4524 61.503 66.4876 61.3974 66.4876 61.2566V53.706C66.4876 53.5651 66.4524 53.4595 66.382 53.3891C66.3116 53.3187 66.1884 53.2835 66.0124 53.2835H64.798ZM73.9981 57.6661C73.0477 57.2437 72.3965 56.8741 72.0445 56.5572C71.6925 56.2404 71.5165 55.7476 71.5165 55.0788C71.5165 54.5508 71.7277 54.058 72.1501 53.6004C72.6077 53.1075 73.2413 52.8611 74.0509 52.8611C74.403 52.8611 74.7374 52.9139 75.0542 53.0195C75.371 53.1603 75.5998 53.2307 75.7406 53.2307C75.8462 53.2307 75.9342 53.2131 76.0046 53.1779C76.1102 53.1075 76.1982 53.0019 76.2686 52.8611L76.4798 55.026L76.2158 55.1316C75.899 54.3924 75.5646 53.8996 75.2126 53.6532C74.8958 53.3715 74.4734 53.2307 73.9453 53.2307C73.2765 53.2307 72.8189 53.4243 72.5725 53.8116C72.3261 54.1636 72.2029 54.5508 72.2029 54.9732C72.2029 55.3604 72.3085 55.6772 72.5197 55.9236C72.7661 56.1348 73.3997 56.4692 74.4206 56.9269C75.2654 57.2789 75.8638 57.6837 76.2158 58.1413C76.603 58.5637 76.7966 59.0741 76.7966 59.6725C76.7966 60.3062 76.5678 60.8694 76.1102 61.3622C75.6878 61.855 75.0542 62.1014 74.2094 62.1014C73.8573 62.1014 73.5405 62.031 73.2589 61.8902C72.9421 61.7846 72.6957 61.7318 72.5197 61.7318C72.4141 61.7318 72.3085 61.767 72.2029 61.8374C72.0973 61.9078 71.9741 61.9958 71.8333 62.1014L71.4109 59.5141L71.7277 59.4085C71.9741 60.2886 72.3085 60.9046 72.7309 61.2566C73.1885 61.5734 73.6989 61.7318 74.2622 61.7318C74.8606 61.7318 75.3006 61.5558 75.5822 61.2038C75.899 60.8518 76.0574 60.3414 76.0574 59.6725C76.0574 59.3205 75.8814 58.9861 75.5294 58.6693C75.2126 58.3173 74.7022 57.9829 73.9981 57.6661ZM78.5518 53.2835V52.9667H83.7263L84.3072 54.762L84.0431 54.8676C83.7615 54.3396 83.4623 53.9524 83.1455 53.706C82.8287 53.4243 82.4767 53.2835 82.0895 53.2835H80.611C80.4702 53.2835 80.347 53.3187 80.2414 53.3891C80.171 53.4595 80.1358 53.5651 80.1358 53.706V56.9797H81.6671C82.0191 56.9797 82.2655 56.8917 82.4063 56.7157C82.5823 56.5396 82.6703 56.2756 82.6703 55.9236V55.6068H82.9871V58.7221H82.6703V58.5109C82.6703 58.1237 82.5823 57.8245 82.4063 57.6133C82.2655 57.4021 82.0191 57.2965 81.6671 57.2965H80.1358V61.2566C80.1358 61.3974 80.171 61.503 80.2414 61.5734C80.347 61.6438 80.4702 61.679 80.611 61.679H81.9839C82.5119 61.679 82.9519 61.5382 83.3039 61.2566C83.6911 60.9398 83.9903 60.4646 84.2016 59.831L84.4656 59.9366L83.8847 61.9958H78.499V61.679H78.8158C78.9918 61.679 79.115 61.6438 79.1854 61.5734C79.2558 61.503 79.291 61.3974 79.291 61.2566V53.706C79.291 53.5651 79.2558 53.4595 79.1854 53.3891C79.115 53.3187 78.9918 53.2835 78.8158 53.2835H78.5518Z" fill="white"/>
<path d="M29.0406 57.7717V57.651H28.92V57.7717H29.0406ZM29.1462 61.5734L29.0609 61.6588L29.0694 61.6672L29.0793 61.6738L29.1462 61.5734ZM29.8855 61.679H30.0062V61.5583H29.8855V61.679ZM29.8855 61.9958V62.1165H30.0062V61.9958H29.8855ZM27.351 61.9958H27.2303V62.1165H27.351V61.9958ZM27.351 61.679V61.5583H27.2303V61.679H27.351ZM27.4038 53.2835H27.2831V53.4042H27.4038V53.2835ZM27.4038 52.9667V52.846H27.2831V52.9667H27.4038ZM32.5256 53.6532L32.44 53.7387L32.447 53.7448L32.5256 53.6532ZM32.4728 57.1381L32.3973 57.0438L32.3942 57.0464L32.4728 57.1381ZM31.7335 56.9797L31.6611 56.883L31.6571 56.8863L31.7335 56.9797ZM31.8391 53.8116L31.7489 53.8927L31.7584 53.9013L31.8391 53.8116ZM29.1462 53.3891L29.0793 53.2887L29.0694 53.2954L29.0609 53.3038L29.1462 53.3891ZM29.0406 57.4549H28.92V57.5756H29.0406V57.4549ZM28.92 57.7717V61.2566H29.1613V57.7717H28.92ZM28.92 61.2566C28.92 61.416 28.9599 61.5577 29.0609 61.6588L29.2316 61.4881C29.1918 61.4483 29.1613 61.3788 29.1613 61.2566H28.92ZM29.0793 61.6738C29.2069 61.7589 29.3539 61.7997 29.5159 61.7997V61.5583C29.3962 61.5583 29.2968 61.5287 29.2132 61.473L29.0793 61.6738ZM29.5159 61.7997H29.8855V61.5583H29.5159V61.7997ZM29.7648 61.679V61.9958H30.0062V61.679H29.7648ZM29.8855 61.8751H27.351V62.1165H29.8855V61.8751ZM27.4717 61.9958V61.679H27.2303V61.9958H27.4717ZM27.351 61.7997H27.7206V61.5583H27.351V61.7997ZM27.7206 61.7997C27.906 61.7997 28.0704 61.7639 28.1756 61.6588L28.0049 61.4881C27.9692 61.5237 27.8872 61.5583 27.7206 61.5583V61.7997ZM28.1756 61.6588C28.2766 61.5577 28.3165 61.416 28.3165 61.2566H28.0751C28.0751 61.3788 28.0447 61.4483 28.0049 61.4881L28.1756 61.6588ZM28.3165 61.2566V53.706H28.0751V61.2566H28.3165ZM28.3165 53.706C28.3165 53.5465 28.2766 53.4048 28.1756 53.3038L28.0049 53.4745C28.0447 53.5143 28.0751 53.5838 28.0751 53.706H28.3165ZM28.1756 53.3038C28.0704 53.1987 27.906 53.1629 27.7206 53.1629V53.4042C27.8872 53.4042 27.9692 53.4388 28.0049 53.4745L28.1756 53.3038ZM27.7206 53.1629H27.4038V53.4042H27.7206V53.1629ZM27.5245 53.2835V52.9667H27.2831V53.2835H27.5245ZM27.4038 53.0874H30.5191V52.846H27.4038V53.0874ZM30.5191 53.0874C31.3789 53.0874 32.0124 53.3107 32.4402 53.7385L32.6109 53.5678C32.1235 53.0804 31.4193 52.846 30.5191 52.846V53.0874ZM32.447 53.7448C32.9122 54.1435 33.1441 54.6552 33.1441 55.29H33.3855C33.3855 54.5872 33.1246 54.0076 32.6041 53.5615L32.447 53.7448ZM33.1441 55.29C33.1441 56.071 32.891 56.6489 32.3974 57.0438L32.5482 57.2323C33.1105 56.7824 33.3855 56.1283 33.3855 55.29H33.1441ZM32.3942 57.0464C31.9252 57.4485 31.3553 57.651 30.6775 57.651V57.8924C31.4077 57.8924 32.0347 57.6725 32.5513 57.2297L32.3942 57.0464ZM30.6775 57.651H29.0406V57.8924H30.6775V57.651ZM30.3607 57.5756C30.9149 57.5756 31.3999 57.4085 31.81 57.0731L31.6571 56.8863C31.2927 57.1844 30.8625 57.3342 30.3607 57.3342V57.5756ZM31.8059 57.0762C32.271 56.7274 32.4878 56.1367 32.4878 55.3428H32.2465C32.2465 56.0978 32.0409 56.5983 31.6611 56.8831L31.8059 57.0762ZM32.4878 55.3428C32.4878 54.6214 32.3076 54.0708 31.9199 53.7218L31.7584 53.9013C32.0747 54.186 32.2465 54.6562 32.2465 55.3428H32.4878ZM31.9288 53.7308C31.579 53.3421 31.0096 53.1629 30.2551 53.1629V53.4042C30.9791 53.4042 31.4657 53.577 31.7494 53.8923L31.9288 53.7308ZM30.2551 53.1629H29.5159V53.4042H30.2551V53.1629ZM29.5159 53.1629C29.3539 53.1629 29.2069 53.2037 29.0793 53.2887L29.2132 53.4896C29.2968 53.4338 29.3962 53.4042 29.5159 53.4042V53.1629ZM29.0609 53.3038C28.9599 53.4048 28.92 53.5465 28.92 53.706H29.1613C29.1613 53.5838 29.1918 53.5143 29.2316 53.4745L29.0609 53.3038ZM28.92 53.706V57.4549H29.1613V53.706H28.92ZM29.0406 57.5756H30.3607V57.3342H29.0406V57.5756ZM38.6104 58.6165L38.7281 58.5898L38.7068 58.4958H38.6104V58.6165ZM36.2344 58.6165V58.4958H36.1389L36.1169 58.5887L36.2344 58.6165ZM35.7591 60.623L35.6416 60.5951L35.6408 60.5993L35.7591 60.623ZM35.7591 61.4678L35.6421 61.4971L35.6453 61.5099L35.6512 61.5218L35.7591 61.4678ZM36.3928 61.679H36.5134V61.5583H36.3928V61.679ZM36.3928 61.9958V62.1165H36.5134V61.9958H36.3928ZM34.4391 61.9958H34.3184V62.1165H34.4391V61.9958ZM34.4391 61.679V61.5583H34.3184V61.679H34.4391ZM34.9671 61.5734L35.0341 61.6738L35.044 61.6672L35.0525 61.6588L34.9671 61.5734ZM35.1783 61.0982L35.0609 61.0683L35.0593 61.0784L35.1783 61.0982ZM37.2376 53.0195L37.1994 52.905L37.1369 52.9259L37.1206 52.9897L37.2376 53.0195ZM38.0296 52.7555L38.147 52.7273L38.1162 52.5994L37.9914 52.641L38.0296 52.7555ZM40.0361 61.0982L39.9183 61.1265L39.9216 61.1364L40.0361 61.0982ZM40.3001 61.5734L40.2147 61.6588L40.2232 61.6672L40.2331 61.6738L40.3001 61.5734ZM40.8281 61.679H40.9488V61.5583H40.8281V61.679ZM40.8281 61.9958V62.1165H40.9488V61.9958H40.8281ZM38.5576 61.9958H38.4369V62.1165H38.5576V61.9958ZM38.5576 61.679V61.5583H38.4369V61.679H38.5576ZM39.1384 61.5734L39.2464 61.6274L39.2502 61.6197L39.2529 61.6116L39.1384 61.5734ZM39.1384 60.9398L39.0202 60.9667L39.024 60.978L39.1384 60.9398ZM37.5016 53.9172L37.6189 53.8889L37.5967 53.7965H37.5016V53.9172ZM37.4488 53.9172V53.7965H37.3548L37.3318 53.8876L37.4488 53.9172ZM36.34 58.2997L36.223 58.2701L36.1849 58.4204H36.34V58.2997ZM38.5576 58.2997V58.4204H38.7109L38.675 58.2714L38.5576 58.2997ZM38.6104 58.4958H36.2344V58.7372H38.6104V58.4958ZM36.1169 58.5887L35.6417 60.5952L35.8766 60.6508L36.3518 58.6443L36.1169 58.5887ZM35.6408 60.5993C35.6049 60.7785 35.5856 60.9282 35.5856 61.0454H35.827C35.827 60.9513 35.8429 60.8195 35.8775 60.6466L35.6408 60.5993ZM35.5856 61.0454C35.5856 61.1964 35.6045 61.347 35.6421 61.4971L35.8762 61.4385C35.8433 61.307 35.827 61.176 35.827 61.0454H35.5856ZM35.6512 61.5218C35.7522 61.7238 35.9706 61.7997 36.2344 61.7997V61.5583C36.0053 61.5583 35.9069 61.4934 35.8671 61.4138L35.6512 61.5218ZM36.2344 61.7997H36.3928V61.5583H36.2344V61.7997ZM36.2721 61.679V61.9958H36.5134V61.679H36.2721ZM36.3928 61.8751H34.4391V62.1165H36.3928V61.8751ZM34.5598 61.9958V61.679H34.3184V61.9958H34.5598ZM34.4391 61.7997H34.5975V61.5583H34.4391V61.7997ZM34.5975 61.7997C34.7594 61.7997 34.9065 61.7589 35.0341 61.6738L34.9002 61.473C34.8165 61.5287 34.7172 61.5583 34.5975 61.5583V61.7997ZM35.0525 61.6588C35.182 61.5292 35.2598 61.3437 35.2974 61.118L35.0593 61.0784C35.0265 61.2751 34.9634 61.4065 34.8818 61.4881L35.0525 61.6588ZM35.2953 61.128L37.3545 53.0493L37.1206 52.9897L35.0614 61.0684L35.2953 61.128ZM37.2758 53.134L38.0678 52.87L37.9914 52.641L37.1994 52.905L37.2758 53.134ZM37.9123 52.7837L39.9187 61.1264L40.1534 61.07L38.147 52.7273L37.9123 52.7837ZM39.9216 61.1364C39.9952 61.3573 40.091 61.535 40.2147 61.6588L40.3854 61.4881C40.298 61.4006 40.2177 61.2615 40.1506 61.06L39.9216 61.1364ZM40.2331 61.6738C40.3607 61.7589 40.5078 61.7997 40.6697 61.7997V61.5583C40.55 61.5583 40.4507 61.5287 40.367 61.473L40.2331 61.6738ZM40.6697 61.7997H40.8281V61.5583H40.6697V61.7997ZM40.7074 61.679V61.9958H40.9488V61.679H40.7074ZM40.8281 61.8751H38.5576V62.1165H40.8281V61.8751ZM38.6783 61.9958V61.679H38.4369V61.9958H38.6783ZM38.5576 61.7997H38.7688V61.5583H38.5576V61.7997ZM38.7688 61.7997C38.8794 61.7997 38.9757 61.7907 39.0528 61.7687C39.1272 61.7474 39.2064 61.7073 39.2464 61.6274L39.0305 61.5194C39.0353 61.5099 39.0353 61.5226 38.9865 61.5366C38.9404 61.5497 38.8695 61.5583 38.7688 61.5583V61.7997ZM39.2529 61.6116C39.2902 61.4999 39.3119 61.3981 39.3119 61.3094H39.0706C39.0706 61.3615 39.0571 61.4357 39.024 61.5352L39.2529 61.6116ZM39.3119 61.3094C39.3119 61.1589 39.2932 61.0223 39.2529 60.9016L39.024 60.978C39.0541 61.0685 39.0706 61.1783 39.0706 61.3094H39.3119ZM39.2561 60.913L38.7281 58.5898L38.4927 58.6433L39.0208 60.9665L39.2561 60.913ZM37.5016 53.7965H37.4488V54.0379H37.5016V53.7965ZM37.3318 53.8876L36.223 58.2701L36.457 58.3293L37.5658 53.9468L37.3318 53.8876ZM36.34 58.4204H38.5576V58.179H36.34V58.4204ZM38.675 58.2714L37.6189 53.8889L37.3843 53.9454L38.4403 58.328L38.675 58.2714ZM45.6985 57.4021L45.6815 57.2826L45.5287 57.3044L45.5867 57.4474L45.6985 57.4021ZM47.2826 61.3094L47.1704 61.3549L47.1746 61.3634L47.2826 61.3094ZM47.4938 61.6262L47.4085 61.7116L47.4286 61.7317L47.4556 61.7407L47.4938 61.6262ZM48.1274 61.679H48.2481V61.5583H48.1274V61.679ZM48.1274 61.9958V62.1165H48.2481V61.9958H48.1274ZM46.649 61.9958L46.5363 62.0391L46.566 62.1165H46.649V61.9958ZM44.9065 57.4549L45.0192 57.4116L44.9895 57.3342H44.9065V57.4549ZM43.6921 57.4549V57.3342H43.5714V57.4549H43.6921ZM43.7977 61.5734L43.7123 61.6588L43.7208 61.6672L43.7307 61.6738L43.7977 61.5734ZM44.4841 61.679H44.6048V61.5583H44.4841V61.679ZM44.4841 61.9958V62.1165H44.6048V61.9958H44.4841ZM42.0552 61.9958H41.9345V62.1165H42.0552V61.9958ZM42.0552 61.679V61.5583H41.9345V61.679H42.0552ZM42.0552 53.2835H41.9345V53.4042H42.0552V53.2835ZM42.0552 52.9667V52.846H41.9345V52.9667H42.0552ZM46.913 53.4947L46.8356 53.5875L46.8394 53.5904L46.913 53.4947ZM43.6921 57.1381H43.5714V57.2588H43.6921V57.1381ZM46.2266 53.8116L46.1367 53.8924L46.1412 53.8969L46.2266 53.8116ZM43.7977 53.3891L43.7307 53.2887L43.7208 53.2954L43.7123 53.3038L43.7977 53.3891ZM47.4787 55.0788C47.4787 55.7604 47.2918 56.2717 46.9332 56.6303L47.1039 56.801C47.5197 56.3852 47.7201 55.8053 47.7201 55.0788H47.4787ZM46.9332 56.6303C46.5625 57.001 46.1458 57.2163 45.6815 57.2826L45.7156 57.5216C46.2369 57.4471 46.7002 57.2047 47.1039 56.801L46.9332 56.6303ZM45.5867 57.4474L47.1707 61.3547L47.3944 61.2641L45.8104 57.3567L45.5867 57.4474ZM47.1746 61.3634C47.2479 61.5099 47.3251 61.6282 47.4085 61.7116L47.5791 61.5409C47.5216 61.4834 47.4581 61.3906 47.3905 61.2554L47.1746 61.3634ZM47.4556 61.7407C47.5729 61.7798 47.6913 61.7997 47.8106 61.7997V61.5583C47.7187 61.5583 47.6259 61.543 47.532 61.5117L47.4556 61.7407ZM47.8106 61.7997H48.1274V61.5583H47.8106V61.7997ZM48.0067 61.679V61.9958H48.2481V61.679H48.0067ZM48.1274 61.8751H46.649V62.1165H48.1274V61.8751ZM46.7616 61.9526L45.0192 57.4116L44.7938 57.4981L46.5363 62.0391L46.7616 61.9526ZM44.9065 57.3342H43.6921V57.5756H44.9065V57.3342ZM43.5714 57.4549V61.2566H43.8128V57.4549H43.5714ZM43.5714 61.2566C43.5714 61.416 43.6113 61.5577 43.7123 61.6588L43.883 61.4881C43.8432 61.4483 43.8128 61.3788 43.8128 61.2566H43.5714ZM43.7307 61.6738C43.8583 61.7589 44.0054 61.7997 44.1673 61.7997V61.5583C44.0476 61.5583 43.9483 61.5287 43.8646 61.473L43.7307 61.6738ZM44.1673 61.7997H44.4841V61.5583H44.1673V61.7997ZM44.3634 61.679V61.9958H44.6048V61.679H44.3634ZM44.4841 61.8751H42.0552V62.1165H44.4841V61.8751ZM42.1759 61.9958V61.679H41.9345V61.9958H42.1759ZM42.0552 61.7997H42.372V61.5583H42.0552V61.7997ZM42.372 61.7997C42.5574 61.7997 42.7218 61.7639 42.827 61.6588L42.6563 61.4881C42.6206 61.5237 42.5387 61.5583 42.372 61.5583V61.7997ZM42.827 61.6588C42.928 61.5577 42.9679 61.416 42.9679 61.2566H42.7266C42.7266 61.3788 42.6961 61.4483 42.6563 61.4881L42.827 61.6588ZM42.9679 61.2566V53.706H42.7266V61.2566H42.9679ZM42.9679 53.706C42.9679 53.5465 42.928 53.4048 42.827 53.3038L42.6563 53.4745C42.6961 53.5143 42.7266 53.5838 42.7266 53.706H42.9679ZM42.827 53.3038C42.7218 53.1987 42.5574 53.1629 42.372 53.1629V53.4042C42.5387 53.4042 42.6206 53.4388 42.6563 53.4745L42.827 53.3038ZM42.372 53.1629H42.0552V53.4042H42.372V53.1629ZM42.1759 53.2835V52.9667H41.9345V53.2835H42.1759ZM42.0552 53.0874H45.0649V52.846H42.0552V53.0874ZM45.0649 53.0874C45.8592 53.0874 46.4432 53.2604 46.8357 53.5875L46.9902 53.402C46.5379 53.0251 45.8898 52.846 45.0649 52.846V53.0874ZM46.8394 53.5904C47.2607 53.9145 47.4787 54.4031 47.4787 55.0788H47.7201C47.7201 54.3465 47.4804 53.779 46.9866 53.3991L46.8394 53.5904ZM43.6921 57.2588H44.8537V57.0174H43.6921V57.2588ZM44.8537 57.2588C45.4078 57.2588 45.8777 57.0917 46.2545 56.7526L46.093 56.5731C45.7658 56.8677 45.3556 57.0174 44.8537 57.0174V57.2588ZM46.2545 56.7526C46.641 56.4047 46.8225 55.8729 46.8225 55.1844H46.5811C46.5811 55.8335 46.4105 56.2874 46.093 56.5731L46.2545 56.7526ZM46.8225 55.1844C46.8225 54.5651 46.6581 54.0725 46.3119 53.7262L46.1412 53.8969C46.4286 54.1843 46.5811 54.6069 46.5811 55.1844H46.8225ZM46.3163 53.7308C45.9684 53.3443 45.4366 53.1629 44.7481 53.1629V53.4042C45.3972 53.4042 45.8511 53.5748 46.1368 53.8923L46.3163 53.7308ZM44.7481 53.1629H44.1673V53.4042H44.7481V53.1629ZM44.1673 53.1629C44.0054 53.1629 43.8583 53.2037 43.7307 53.2887L43.8646 53.4896C43.9483 53.4338 44.0476 53.4042 44.1673 53.4042V53.1629ZM43.7123 53.3038C43.6113 53.4048 43.5714 53.5465 43.5714 53.706H43.8128C43.8128 53.5838 43.8432 53.5143 43.883 53.4745L43.7123 53.3038ZM43.5714 53.706V57.1381H43.8128V53.706H43.5714ZM53.2091 58.6165L53.3267 58.5898L53.3054 58.4958H53.2091V58.6165ZM50.833 58.6165V58.4958H50.7375L50.7155 58.5887L50.833 58.6165ZM50.3578 60.623L50.2402 60.5951L50.2394 60.5993L50.3578 60.623ZM50.3578 61.4678L50.2407 61.4971L50.2439 61.5099L50.2498 61.5218L50.3578 61.4678ZM50.9914 61.679H51.1121V61.5583H50.9914V61.679ZM50.9914 61.9958V62.1165H51.1121V61.9958H50.9914ZM49.0377 61.9958H48.917V62.1165H49.0377V61.9958ZM49.0377 61.679V61.5583H48.917V61.679H49.0377ZM49.5657 61.5734L49.6327 61.6738L49.6426 61.6672L49.6511 61.6588L49.5657 61.5734ZM49.7769 61.0982L49.6596 61.0683L49.6579 61.0784L49.7769 61.0982ZM51.8362 53.0195L51.798 52.905L51.7355 52.9259L51.7193 52.9897L51.8362 53.0195ZM52.6282 52.7555L52.7456 52.7273L52.7148 52.5994L52.5901 52.641L52.6282 52.7555ZM54.6347 61.0982L54.5169 61.1265L54.5202 61.1364L54.6347 61.0982ZM54.8987 61.5734L54.8134 61.6588L54.8218 61.6672L54.8318 61.6738L54.8987 61.5734ZM55.4267 61.679H55.5474V61.5583H55.4267V61.679ZM55.4267 61.9958V62.1165H55.5474V61.9958H55.4267ZM53.1562 61.9958H53.0356V62.1165H53.1562V61.9958ZM53.1562 61.679V61.5583H53.0356V61.679H53.1562ZM53.7371 61.5734L53.845 61.6274L53.8489 61.6197L53.8516 61.6116L53.7371 61.5734ZM53.7371 60.9398L53.6188 60.9667L53.6226 60.978L53.7371 60.9398ZM52.1002 53.9172L52.2175 53.8889L52.1953 53.7965H52.1002V53.9172ZM52.0474 53.9172V53.7965H51.9535L51.9304 53.8876L52.0474 53.9172ZM50.9386 58.2997L50.8216 58.2701L50.7835 58.4204H50.9386V58.2997ZM53.1562 58.2997V58.4204H53.3095L53.2736 58.2714L53.1562 58.2997ZM53.2091 58.4958H50.833V58.7372H53.2091V58.4958ZM50.7155 58.5887L50.2403 60.5952L50.4752 60.6508L50.9504 58.6443L50.7155 58.5887ZM50.2394 60.5993C50.2036 60.7785 50.1843 60.9282 50.1843 61.0454H50.4256C50.4256 60.9513 50.4415 60.8195 50.4761 60.6466L50.2394 60.5993ZM50.1843 61.0454C50.1843 61.1964 50.2032 61.347 50.2407 61.4971L50.4748 61.4385C50.442 61.307 50.4256 61.176 50.4256 61.0454H50.1843ZM50.2498 61.5218C50.3508 61.7238 50.5692 61.7997 50.833 61.7997V61.5583C50.604 61.5583 50.5055 61.4934 50.4657 61.4138L50.2498 61.5218ZM50.833 61.7997H50.9914V61.5583H50.833V61.7997ZM50.8707 61.679V61.9958H51.1121V61.679H50.8707ZM50.9914 61.8751H49.0377V62.1165H50.9914V61.8751ZM49.1584 61.9958V61.679H48.917V61.9958H49.1584ZM49.0377 61.7997H49.1961V61.5583H49.0377V61.7997ZM49.1961 61.7997C49.358 61.7997 49.5051 61.7589 49.6327 61.6738L49.4988 61.473C49.4151 61.5287 49.3158 61.5583 49.1961 61.5583V61.7997ZM49.6511 61.6588C49.7807 61.5292 49.8584 61.3437 49.896 61.118L49.6579 61.0784C49.6251 61.2751 49.562 61.4065 49.4804 61.4881L49.6511 61.6588ZM49.8939 61.128L51.9532 53.0493L51.7193 52.9897L49.66 61.0684L49.8939 61.128ZM51.8744 53.134L52.6664 52.87L52.5901 52.641L51.798 52.905L51.8744 53.134ZM52.5109 52.7837L54.5174 61.1264L54.752 61.07L52.7456 52.7273L52.5109 52.7837ZM54.5202 61.1364C54.5939 61.3573 54.6896 61.535 54.8134 61.6588L54.984 61.4881C54.8966 61.4006 54.8163 61.2615 54.7492 61.06L54.5202 61.1364ZM54.8318 61.6738C54.9593 61.7589 55.1064 61.7997 55.2683 61.7997V61.5583C55.1486 61.5583 55.0493 61.5287 54.9657 61.473L54.8318 61.6738ZM55.2683 61.7997H55.4267V61.5583H55.2683V61.7997ZM55.306 61.679V61.9958H55.5474V61.679H55.306ZM55.4267 61.8751H53.1562V62.1165H55.4267V61.8751ZM53.2769 61.9958V61.679H53.0356V61.9958H53.2769ZM53.1562 61.7997H53.3675V61.5583H53.1562V61.7997ZM53.3675 61.7997C53.478 61.7997 53.5743 61.7907 53.6514 61.7687C53.7258 61.7474 53.805 61.7073 53.845 61.6274L53.6291 61.5194C53.6339 61.5099 53.634 61.5226 53.5851 61.5366C53.539 61.5497 53.4681 61.5583 53.3675 61.5583V61.7997ZM53.8516 61.6116C53.8888 61.4999 53.9106 61.3981 53.9106 61.3094H53.6692C53.6692 61.3615 53.6558 61.4357 53.6226 61.5352L53.8516 61.6116ZM53.9106 61.3094C53.9106 61.1589 53.8918 61.0223 53.8516 60.9016L53.6226 60.978C53.6528 61.0685 53.6692 61.1783 53.6692 61.3094H53.9106ZM53.8548 60.913L53.3267 58.5898L53.0914 58.6433L53.6194 60.9665L53.8548 60.913ZM52.1002 53.7965H52.0474V54.0379H52.1002V53.7965ZM51.9304 53.8876L50.8216 58.2701L51.0556 58.3293L52.1644 53.9468L51.9304 53.8876ZM50.9386 58.4204H53.1562V58.179H50.9386V58.4204ZM53.2736 58.2714L52.2175 53.8889L51.9829 53.9454L53.0389 58.328L53.2736 58.2714ZM60.8252 54.234L60.7273 54.3047L60.7293 54.3073L60.8252 54.234ZM58.3435 53.3891L58.2895 53.2812L58.2828 53.2846L58.2765 53.2887L58.3435 53.3891ZM60.7196 60.8342L60.8077 60.9168L60.8101 60.914L60.7196 60.8342ZM56.5482 53.2835H56.4275V53.4042H56.5482V53.2835ZM56.5482 52.9667V52.846H56.4275V52.9667H56.5482ZM61.5116 54.0228L61.4219 54.1035L61.4241 54.1059L61.5116 54.0228ZM61.5644 60.887L61.6561 60.9656L61.6578 60.9634L61.5644 60.887ZM56.4954 61.9958H56.3747V62.1165H56.4954V61.9958ZM56.4954 61.679V61.5583H56.3747V61.679H56.4954ZM61.6323 57.4021C61.6323 55.8843 61.4044 54.7928 60.921 54.1607L60.7293 54.3073C61.1611 54.872 61.3909 55.8926 61.3909 57.4021H61.6323ZM60.923 54.1633C60.4418 53.497 59.771 53.1629 58.9243 53.1629V53.4042C59.6968 53.4042 60.2934 53.7037 60.7273 54.3046L60.923 54.1633ZM58.9243 53.1629C58.6687 53.1629 58.4539 53.199 58.2895 53.2812L58.3975 53.4971C58.5147 53.4385 58.6871 53.4042 58.9243 53.4042V53.1629ZM58.2765 53.2887C58.1333 53.3842 58.0644 53.53 58.0644 53.706H58.3058C58.3058 53.6003 58.3425 53.5348 58.4104 53.4896L58.2765 53.2887ZM58.0644 53.706V61.2566H58.3058V53.706H58.0644ZM58.0644 61.2566C58.0644 61.4326 58.1333 61.5783 58.2765 61.6738L58.4104 61.473C58.3425 61.4277 58.3058 61.3622 58.3058 61.2566H58.0644ZM58.2765 61.6738C58.4083 61.7617 58.575 61.7997 58.7659 61.7997V61.5583C58.6048 61.5583 58.4899 61.526 58.4104 61.473L58.2765 61.6738ZM58.7659 61.7997C59.5736 61.7997 60.2567 61.5044 60.8076 60.9167L60.6315 60.7516C60.1264 61.2904 59.5071 61.5583 58.7659 61.5583V61.7997ZM60.8101 60.914C61.0921 60.5943 61.2966 60.1375 61.4312 59.5545C61.5659 58.9706 61.6323 58.2524 61.6323 57.4021H61.3909C61.3909 58.2414 61.3253 58.94 61.196 59.5002C61.0665 60.0612 60.875 60.4756 60.6291 60.7543L60.8101 60.914ZM57.4609 53.706C57.4609 53.5465 57.421 53.4048 57.32 53.3038L57.1493 53.4745C57.1891 53.5143 57.2196 53.5838 57.2196 53.706H57.4609ZM57.32 53.3038C57.2148 53.1987 57.0504 53.1629 56.865 53.1629V53.4042C57.0317 53.4042 57.1137 53.4388 57.1493 53.4745L57.32 53.3038ZM56.865 53.1629H56.5482V53.4042H56.865V53.1629ZM56.6689 53.2835V52.9667H56.4275V53.2835H56.6689ZM56.5482 53.0874H58.9243V52.846H56.5482V53.0874ZM58.9243 53.0874C59.9871 53.0874 60.8147 53.4289 61.4219 54.1035L61.6013 53.942C60.9412 53.2086 60.044 52.846 58.9243 52.846V53.0874ZM61.4241 54.1059C62.0628 54.7782 62.3941 55.8332 62.3941 57.2965H62.6355C62.6355 55.8028 62.298 54.6754 61.5991 53.9396L61.4241 54.1059ZM62.3941 57.2965C62.3941 58.9039 62.0789 60.0675 61.471 60.8106L61.6578 60.9634C62.3171 60.1576 62.6355 58.9275 62.6355 57.2965H62.3941ZM61.4728 60.8084C60.8679 61.5141 59.9728 61.8751 58.7659 61.8751V62.1165C60.0231 62.1165 60.9936 61.7383 61.656 60.9655L61.4728 60.8084ZM58.7659 61.8751H56.4954V62.1165H58.7659V61.8751ZM56.6161 61.9958V61.679H56.3747V61.9958H56.6161ZM56.4954 61.7997H56.865V61.5583H56.4954V61.7997ZM56.865 61.7997C57.0504 61.7997 57.2148 61.7639 57.32 61.6588L57.1493 61.4881C57.1137 61.5237 57.0317 61.5583 56.865 61.5583V61.7997ZM57.32 61.6588C57.421 61.5577 57.4609 61.416 57.4609 61.2566H57.2196C57.2196 61.3788 57.1891 61.4483 57.1493 61.4881L57.32 61.6588ZM57.4609 61.2566V53.706H57.2196V61.2566H57.4609ZM64.798 53.2835H64.6773V53.4042H64.798V53.2835ZM64.798 52.9667V52.846H64.6773V52.9667H64.798ZM69.0221 52.9667H69.1428V52.846H69.0221V52.9667ZM69.0221 53.2835V53.4042H69.1428V53.2835H69.0221ZM67.4381 53.3891L67.3711 53.2887L67.3612 53.2954L67.3527 53.3038L67.4381 53.3891ZM67.4381 61.5734L67.3527 61.6588L67.3612 61.6672L67.3711 61.6738L67.4381 61.5734ZM69.0221 61.679H69.1428V61.5583H69.0221V61.679ZM69.0221 61.9958V62.1165H69.1428V61.9958H69.0221ZM64.798 61.9958H64.6773V62.1165H64.798V61.9958ZM64.798 61.679V61.5583H64.6773V61.679H64.798ZM64.9187 53.2835V52.9667H64.6773V53.2835H64.9187ZM64.798 53.0874H69.0221V52.846H64.798V53.0874ZM68.9014 52.9667V53.2835H69.1428V52.9667H68.9014ZM69.0221 53.1629H67.8077V53.4042H69.0221V53.1629ZM67.8077 53.1629C67.6457 53.1629 67.4987 53.2037 67.3711 53.2887L67.505 53.4896C67.5886 53.4338 67.688 53.4042 67.8077 53.4042V53.1629ZM67.3527 53.3038C67.2517 53.4048 67.2118 53.5465 67.2118 53.706H67.4531C67.4531 53.5838 67.4836 53.5143 67.5234 53.4745L67.3527 53.3038ZM67.2118 53.706V61.2566H67.4531V53.706H67.2118ZM67.2118 61.2566C67.2118 61.416 67.2517 61.5577 67.3527 61.6588L67.5234 61.4881C67.4836 61.4483 67.4531 61.3788 67.4531 61.2566H67.2118ZM67.3711 61.6738C67.4987 61.7589 67.6457 61.7997 67.8077 61.7997V61.5583C67.688 61.5583 67.5886 61.5287 67.505 61.473L67.3711 61.6738ZM67.8077 61.7997H69.0221V61.5583H67.8077V61.7997ZM68.9014 61.679V61.9958H69.1428V61.679H68.9014ZM69.0221 61.8751H64.798V62.1165H69.0221V61.8751ZM64.9187 61.9958V61.679H64.6773V61.9958H64.9187ZM64.798 61.7997H66.0124V61.5583H64.798V61.7997ZM66.0124 61.7997C66.1978 61.7997 66.3622 61.7639 66.4674 61.6588L66.2967 61.4881C66.261 61.5237 66.179 61.5583 66.0124 61.5583V61.7997ZM66.4674 61.6588C66.5684 61.5577 66.6083 61.416 66.6083 61.2566H66.3669C66.3669 61.3788 66.3365 61.4483 66.2967 61.4881L66.4674 61.6588ZM66.6083 61.2566V53.706H66.3669V61.2566H66.6083ZM66.6083 53.706C66.6083 53.5465 66.5684 53.4048 66.4674 53.3038L66.2967 53.4745C66.3365 53.5143 66.3669 53.5838 66.3669 53.706H66.6083ZM66.4674 53.3038C66.3622 53.1987 66.1978 53.1629 66.0124 53.1629V53.4042C66.179 53.4042 66.261 53.4388 66.2967 53.4745L66.4674 53.3038ZM66.0124 53.1629H64.798V53.4042H66.0124V53.1629ZM73.9981 57.6661L74.0477 57.556L74.0472 57.5558L73.9981 57.6661ZM72.1501 53.6004L72.0616 53.5182L72.0614 53.5185L72.1501 53.6004ZM75.0542 53.0195L75.1034 52.9087L75.0923 52.905L75.0542 53.0195ZM76.0046 53.1779L76.0586 53.2859L76.0653 53.2825L76.0716 53.2784L76.0046 53.1779ZM76.2686 52.8611L76.3887 52.8494L76.3481 52.4324L76.1607 52.8072L76.2686 52.8611ZM76.4798 55.026L76.5247 55.1381L76.6087 55.1044L76.5999 55.0143L76.4798 55.026ZM76.2158 55.1316L76.1049 55.1791L76.1513 55.2874L76.2606 55.2437L76.2158 55.1316ZM75.2126 53.6532L75.1319 53.744L75.1434 53.752L75.2126 53.6532ZM72.5725 53.8116L72.6715 53.8808L72.6743 53.8764L72.5725 53.8116ZM72.5197 55.9236L72.4281 56.0022L72.4341 56.0092L72.4412 56.0153L72.5197 55.9236ZM74.4206 56.9269L74.3712 57.037L74.3741 57.0383L74.4206 56.9269ZM76.2158 58.1413L76.1198 58.2152L76.1269 58.2229L76.2158 58.1413ZM76.1102 61.3622L76.0217 61.28L76.0186 61.2837L76.1102 61.3622ZM73.2589 61.8902L73.3129 61.7823L73.3052 61.7784L73.2971 61.7757L73.2589 61.8902ZM71.8333 62.1014L71.7142 62.1209L71.7463 62.3175L71.9057 62.198L71.8333 62.1014ZM71.4109 59.5141L71.3727 59.3996L71.2752 59.4321L71.2918 59.5336L71.4109 59.5141ZM71.7277 59.4085L71.8439 59.376L71.8097 59.254L71.6895 59.294L71.7277 59.4085ZM72.7309 61.2566L72.6533 61.3497L72.6622 61.3558L72.7309 61.2566ZM75.5822 61.2038L75.4923 61.1229L75.488 61.1284L75.5822 61.2038ZM75.5294 58.6693L75.4392 58.7505L75.4487 58.759L75.5294 58.6693ZM74.0472 57.5558C73.0979 57.1339 72.462 56.7706 72.1252 56.4675L71.9637 56.647C72.331 56.9775 72.9976 57.3535 73.9491 57.7764L74.0472 57.5558ZM72.1252 56.4675C71.8077 56.1818 71.6372 55.7279 71.6372 55.0788H71.3958C71.3958 55.7673 71.5772 56.2991 71.9637 56.647L72.1252 56.4675ZM71.6372 55.0788C71.6372 54.5865 71.833 54.1218 72.2388 53.6822L72.0614 53.5185C71.6223 53.9941 71.3958 54.5151 71.3958 55.0788H71.6372ZM72.2385 53.6825C72.6687 53.2192 73.2675 52.9818 74.0509 52.9818V52.7404C73.2152 52.7404 72.5467 52.9959 72.0616 53.5182L72.2385 53.6825ZM74.0509 52.9818C74.3907 52.9818 74.7122 53.0327 75.016 53.134L75.0923 52.905C74.7626 52.7951 74.4152 52.7404 74.0509 52.7404V52.9818ZM75.0052 53.1298C75.3212 53.2703 75.5713 53.3514 75.7406 53.3514V53.11C75.6283 53.11 75.4208 53.0504 75.1032 52.9092L75.0052 53.1298ZM75.7406 53.3514C75.8588 53.3514 75.9667 53.3318 76.0586 53.2859L75.9506 53.07C75.9017 53.0945 75.8336 53.11 75.7406 53.11V53.3514ZM76.0716 53.2784C76.1984 53.1938 76.299 53.0702 76.3766 52.9151L76.1607 52.8072C76.0974 52.9336 76.0221 53.0213 75.9377 53.0775L76.0716 53.2784ZM76.1485 52.8728L76.3597 55.0377L76.5999 55.0143L76.3887 52.8494L76.1485 52.8728ZM76.435 54.9139L76.171 55.0195L76.2606 55.2437L76.5247 55.1381L76.435 54.9139ZM76.3268 55.0841C76.0076 54.3394 75.6622 53.8206 75.2818 53.5543L75.1434 53.752C75.4669 53.9785 75.7904 54.4453 76.1049 55.1791L76.3268 55.0841ZM75.2928 53.5629C74.9488 53.2572 74.4954 53.11 73.9453 53.11V53.3514C74.4514 53.3514 74.8427 53.4859 75.1324 53.7434L75.2928 53.5629ZM73.9453 53.11C73.2556 53.11 72.7483 53.3105 72.4707 53.7468L72.6743 53.8764C72.8895 53.5382 73.2974 53.3514 73.9453 53.3514V53.11ZM72.4736 53.7423C72.2133 54.1143 72.0822 54.5256 72.0822 54.9732H72.3236C72.3236 54.576 72.4389 54.2129 72.6714 53.8808L72.4736 53.7423ZM72.0822 54.9732C72.0822 55.3834 72.1946 55.7298 72.4281 56.0022L72.6113 55.8451C72.4224 55.6246 72.3236 55.3374 72.3236 54.9732H72.0822ZM72.4412 56.0153C72.5754 56.1303 72.8058 56.272 73.1234 56.4396C73.4434 56.6085 73.8596 56.8076 74.3712 57.037L74.4699 56.8167C73.9607 56.5885 73.5497 56.3916 73.2361 56.2261C72.92 56.0593 72.7104 55.9281 72.5982 55.832L72.4412 56.0153ZM74.3741 57.0383C75.2098 57.3865 75.7864 57.781 76.1202 58.2149L76.3115 58.0677C75.9412 57.5864 75.3209 57.1713 74.467 56.8155L74.3741 57.0383ZM76.1269 58.2229C76.4927 58.6219 76.6759 59.1029 76.6759 59.6725H76.9173C76.9173 59.0454 76.7134 58.5055 76.3048 58.0597L76.1269 58.2229ZM76.6759 59.6725C76.6759 60.2737 76.4601 60.8081 76.0218 61.2801L76.1987 61.4443C76.6756 60.9307 76.9173 60.3386 76.9173 59.6725H76.6759ZM76.0186 61.2837C75.6256 61.7422 75.0303 61.9807 74.2094 61.9807V62.2221C75.0781 62.2221 75.75 61.9679 76.2019 61.4407L76.0186 61.2837ZM74.2094 61.9807C73.8738 61.9807 73.5759 61.9138 73.3129 61.7823L73.2049 61.9982C73.5052 62.1483 73.8408 62.2221 74.2094 62.2221V61.9807ZM73.2971 61.7757C72.9769 61.669 72.7156 61.6111 72.5197 61.6111V61.8525C72.6758 61.8525 72.9073 61.9002 73.2208 62.0047L73.2971 61.7757ZM72.5197 61.6111C72.3858 61.6111 72.2573 61.6561 72.1359 61.737L72.2698 61.9378C72.3597 61.8779 72.4424 61.8525 72.5197 61.8525V61.6111ZM72.1359 61.737C72.0279 61.809 71.9028 61.8984 71.7609 62.0049L71.9057 62.198C72.0453 62.0932 72.1666 62.0066 72.2698 61.9378L72.1359 61.737ZM71.9524 62.082L71.53 59.4947L71.2918 59.5336L71.7142 62.1209L71.9524 62.082ZM71.449 59.6286L71.7658 59.523L71.6895 59.294L71.3727 59.3996L71.449 59.6286ZM71.6115 59.4411C71.8605 60.3306 72.2037 60.9744 72.6536 61.3493L72.8082 61.1639C72.4133 60.8348 72.0877 60.2466 71.8439 59.376L71.6115 59.4411ZM72.6622 61.3558C73.1403 61.6868 73.6747 61.8525 74.2622 61.8525V61.6111C73.7232 61.6111 73.2368 61.46 72.7996 61.1574L72.6622 61.3558ZM74.2622 61.8525C74.8843 61.8525 75.3649 61.6686 75.6764 61.2792L75.488 61.1284C75.2362 61.443 74.8368 61.6111 74.2622 61.6111V61.8525ZM75.6719 61.2845C76.0156 60.9027 76.1781 60.3589 76.1781 59.6725H75.9367C75.9367 60.3238 75.7825 60.8009 75.4925 61.1231L75.6719 61.2845ZM76.1781 59.6725C76.1781 59.2756 75.9784 58.911 75.6101 58.5796L75.4487 58.759C75.7844 59.0612 75.9367 59.3654 75.9367 59.6725H76.1781ZM75.6191 58.5886C75.2862 58.2187 74.7585 57.8759 74.0477 57.556L73.9486 57.7761C74.6458 58.0899 75.139 58.4159 75.4397 58.7501L75.6191 58.5886ZM78.5518 53.2835H78.4311V53.4042H78.5518V53.2835ZM78.5518 52.9667V52.846H78.4311V52.9667H78.5518ZM83.7263 52.9667L83.8412 52.9296L83.8141 52.846H83.7263V52.9667ZM84.3072 54.762L84.352 54.874L84.4567 54.8322L84.422 54.7248L84.3072 54.762ZM84.0431 54.8676L83.9367 54.9244L83.9875 55.0198L84.088 54.9796L84.0431 54.8676ZM83.1455 53.706L83.0652 53.7964L83.0714 53.8012L83.1455 53.706ZM80.2414 53.3891L80.1745 53.2887L80.1645 53.2954L80.1561 53.3038L80.2414 53.3891ZM80.1358 56.9797H80.0151V57.1004H80.1358V56.9797ZM82.4063 56.7157L82.3204 56.6298L82.312 56.6403L82.4063 56.7157ZM82.6703 55.6068V55.4861H82.5496V55.6068H82.6703ZM82.9871 55.6068H83.1078V55.4861H82.9871V55.6068ZM82.9871 58.7221V58.8428H83.1078V58.7221H82.9871ZM82.6703 58.7221H82.5496V58.8428H82.6703V58.7221ZM82.4063 57.6133L82.3053 57.6806L82.3136 57.6905L82.4063 57.6133ZM80.1358 57.2965V57.1758H80.0151V57.2965H80.1358ZM80.2414 61.5734L80.1561 61.6588L80.1645 61.6672L80.1745 61.6738L80.2414 61.5734ZM83.3039 61.2566L83.3793 61.3508L83.3803 61.35L83.3039 61.2566ZM84.2015 59.831L84.2464 59.7189L84.1275 59.6714L84.0871 59.7928L84.2015 59.831ZM84.4656 59.9366L84.5817 59.9693L84.6112 59.8648L84.5104 59.8245L84.4656 59.9366ZM83.8847 61.9958V62.1165H83.9761L84.0009 62.0286L83.8847 61.9958ZM78.499 61.9958H78.3783V62.1165H78.499V61.9958ZM78.499 61.679V61.5583H78.3783V61.679H78.499ZM78.6725 53.2835V52.9667H78.4311V53.2835H78.6725ZM78.5518 53.0874H83.7263V52.846H78.5518V53.0874ZM83.6115 53.0039L84.1923 54.7991L84.422 54.7248L83.8412 52.9296L83.6115 53.0039ZM84.2623 54.6499L83.9983 54.7555L84.088 54.9796L84.352 54.874L84.2623 54.6499ZM84.1496 54.8108C83.8636 54.2745 83.5547 53.8713 83.2196 53.6107L83.0714 53.8012C83.3699 54.0334 83.6595 54.4046 83.9367 54.9244L84.1496 54.8108ZM83.2257 53.6157C82.8891 53.3165 82.5091 53.1629 82.0895 53.1629V53.4042C82.4442 53.4042 82.7684 53.5322 83.0653 53.7962L83.2257 53.6157ZM82.0895 53.1629H80.611V53.4042H82.0895V53.1629ZM80.611 53.1629C80.4491 53.1629 80.302 53.2037 80.1745 53.2887L80.3084 53.4896C80.392 53.4338 80.4913 53.4042 80.611 53.4042V53.1629ZM80.1561 53.3038C80.0551 53.4048 80.0151 53.5465 80.0151 53.706H80.2565C80.2565 53.5838 80.287 53.5143 80.3268 53.4745L80.1561 53.3038ZM80.0151 53.706V56.9797H80.2565V53.706H80.0151ZM80.1358 57.1004H81.6671V56.859H80.1358V57.1004ZM81.6671 57.1004C82.035 57.1004 82.3264 57.0087 82.5005 56.791L82.312 56.6403C82.2046 56.7746 82.0032 56.859 81.6671 56.859V57.1004ZM82.4916 56.801C82.6983 56.5944 82.791 56.2942 82.791 55.9236H82.5496C82.5496 56.257 82.4663 56.4849 82.321 56.6303L82.4916 56.801ZM82.791 55.9236V55.6068H82.5496V55.9236H82.791ZM82.6703 55.7275H82.9871V55.4861H82.6703V55.7275ZM82.8664 55.6068V58.7221H83.1078V55.6068H82.8664ZM82.9871 58.6014H82.6703V58.8428H82.9871V58.6014ZM82.791 58.7221V58.5109H82.5496V58.7221H82.791ZM82.791 58.5109C82.791 58.1068 82.6992 57.7763 82.499 57.536L82.3136 57.6905C82.4654 57.8727 82.5496 58.1406 82.5496 58.5109H82.791ZM82.5067 57.5463C82.3355 57.2895 82.0424 57.1758 81.6671 57.1758V57.4172C81.9958 57.4172 82.1955 57.5147 82.3059 57.6802L82.5067 57.5463ZM81.6671 57.1758H80.1358V57.4172H81.6671V57.1758ZM80.0151 57.2965V61.2566H80.2565V57.2965H80.0151ZM80.0151 61.2566C80.0151 61.416 80.0551 61.5577 80.1561 61.6588L80.3268 61.4881C80.287 61.4483 80.2565 61.3788 80.2565 61.2566H80.0151ZM80.1745 61.6738C80.302 61.7589 80.4491 61.7997 80.611 61.7997V61.5583C80.4913 61.5583 80.392 61.5287 80.3084 61.473L80.1745 61.6738ZM80.611 61.7997H81.9839V61.5583H80.611V61.7997ZM81.9839 61.7997C82.5344 61.7997 83.0024 61.6524 83.3793 61.3508L83.2285 61.1624C82.9015 61.424 82.4894 61.5583 81.9839 61.5583V61.7997ZM83.3803 61.35C83.7902 61.0147 84.1 60.5173 84.316 59.8691L84.0871 59.7928C83.8807 60.4118 83.5921 60.8649 83.2275 61.1632L83.3803 61.35ZM84.1567 59.943L84.4207 60.0486L84.5104 59.8245L84.2464 59.7189L84.1567 59.943ZM84.3494 59.9038L83.7686 61.9631L84.0009 62.0286L84.5817 59.9693L84.3494 59.9038ZM83.8847 61.8751H78.499V62.1165H83.8847V61.8751ZM78.6197 61.9958V61.679H78.3783V61.9958H78.6197ZM78.499 61.7997H78.8158V61.5583H78.499V61.7997ZM78.8158 61.7997C79.0012 61.7997 79.1656 61.7639 79.2707 61.6588L79.1 61.4881C79.0644 61.5237 78.9824 61.5583 78.8158 61.5583V61.7997ZM79.2707 61.6588C79.3717 61.5577 79.4117 61.416 79.4117 61.2566H79.1703C79.1703 61.3788 79.1398 61.4483 79.1 61.4881L79.2707 61.6588ZM79.4117 61.2566V53.706H79.1703V61.2566H79.4117ZM79.4117 53.706C79.4117 53.5465 79.3717 53.4048 79.2707 53.3038L79.1 53.4745C79.1398 53.5143 79.1703 53.5838 79.1703 53.706H79.4117ZM79.2707 53.3038C79.1656 53.1987 79.0012 53.1629 78.8158 53.1629V53.4042C78.9824 53.4042 79.0644 53.4388 79.1 53.4745L79.2707 53.3038ZM78.8158 53.1629H78.5518V53.4042H78.8158V53.1629Z" fill="white"/>
<path d="M40.1696 74.0693V69.6135H42.0021C42.1904 69.6135 42.362 69.6532 42.5168 69.7327C42.6758 69.8122 42.8138 69.9189 42.931 70.0528C43.0481 70.1825 43.1381 70.3289 43.2008 70.4921C43.2678 70.6553 43.3012 70.8226 43.3012 70.9942C43.3012 71.2326 43.2469 71.4586 43.1381 71.672C43.0335 71.8812 42.887 72.0527 42.6988 72.1866C42.5147 72.3205 42.295 72.3874 42.0398 72.3874H40.4897V74.0693H40.1696ZM40.4897 72.0924H42.0272C42.2239 72.0924 42.3933 72.0401 42.5356 71.9355C42.6778 71.8309 42.7866 71.695 42.8619 71.5276C42.9372 71.3603 42.9749 71.1824 42.9749 70.9942C42.9749 70.7975 42.9289 70.6176 42.8368 70.4544C42.749 70.2871 42.6297 70.1532 42.4791 70.0528C42.3327 69.9524 42.1695 69.9022 41.9896 69.9022H40.4897V72.0924ZM45.4177 69.6135H45.6939L47.5766 74.0693H47.2377L46.6164 72.6008H44.4889L43.8676 74.0693H43.5224L45.4177 69.6135ZM46.5286 72.3372L45.5558 70.0026L44.5642 72.3372H46.5286ZM48.5168 74.0693V69.6135H48.8369V73.63L51.7614 69.6135H52.0626V74.0693H51.7426V70.1155L48.8494 74.0693H48.5168ZM50.2991 69.1993C50.1025 69.1993 49.9372 69.1721 49.8033 69.1177C49.6736 69.0591 49.5753 68.9838 49.5084 68.8917C49.4414 68.7955 49.4059 68.6909 49.4017 68.578H49.6653C49.6778 68.6826 49.728 68.7788 49.8159 68.8666C49.9037 68.9545 50.0648 68.9984 50.2991 68.9984C50.5251 68.9984 50.684 68.9587 50.7761 68.8792C50.8681 68.7955 50.9183 68.6951 50.9267 68.578H51.1903C51.1819 68.6909 51.1443 68.7955 51.0773 68.8917C51.0104 68.9838 50.9121 69.0591 50.7824 69.1177C50.6527 69.1721 50.4916 69.1993 50.2991 69.1993ZM55.3557 74.0693V69.6135H58.6443V74.0693H58.3242V69.9022H55.6758V74.0693H55.3557ZM61.4619 69.6135H61.738L63.6208 74.0693H63.2819L62.6606 72.6008H60.533L59.9117 74.0693H59.5666L61.4619 69.6135ZM62.5727 72.3372L61.5999 70.0026L60.6084 72.3372H62.5727ZM64.5484 74.0693V69.6135H66.3809C66.5692 69.6135 66.7407 69.6532 66.8955 69.7327C67.0545 69.8122 67.1926 69.9189 67.3098 70.0528C67.4269 70.1825 67.5169 70.3289 67.5796 70.4921C67.6466 70.6553 67.68 70.8226 67.68 70.9942C67.68 71.2326 67.6256 71.4586 67.5169 71.672C67.4123 71.8812 67.2658 72.0527 67.0775 72.1866C66.8935 72.3205 66.6738 72.3874 66.4186 72.3874H64.8684V74.0693H64.5484ZM64.8684 72.0924H66.406C66.6027 72.0924 66.7721 72.0401 66.9144 71.9355C67.0566 71.8309 67.1654 71.695 67.2407 71.5276C67.316 71.3603 67.3537 71.1824 67.3537 70.9942C67.3537 70.7975 67.3077 70.6176 67.2156 70.4544C67.1278 70.2871 67.0085 70.1532 66.8579 70.0528C66.7115 69.9524 66.5483 69.9022 66.3684 69.9022H64.8684V72.0924ZM69.7965 69.6135H70.0727L71.9554 74.0693H71.6165L70.9952 72.6008H68.8677L68.2464 74.0693H67.9012L69.7965 69.6135ZM70.9073 72.3372L69.9346 70.0026L68.943 72.3372H70.9073Z" fill="white"/>
<path d="M55.8791 79.8965L57.3433 83.0709L60.8148 83.4824L58.2482 85.8559L58.9295 89.2847L55.8791 87.5772L52.8287 89.2847L53.51 85.8559L50.9435 83.4824L54.4149 83.0709L55.8791 79.8965Z" fill="white"/>
<path d="M70 40.0684H83.0345" stroke="black" stroke-width="0.241379"/>
<path d="M29.9307 40.0684H42.9651" stroke="black" stroke-width="0.241379"/>
<path d="M70 43.9307H83.0345" stroke="black" stroke-width="0.241379"/>
<path d="M29.9307 43.9307H42.9651" stroke="black" stroke-width="0.241379"/>
<path fill-rule="evenodd" clip-rule="evenodd" d="M55.2755 43.9306L66.6203 32.2237L61.5514 27.2754H49.1203L43.9307 32.2237L55.2755 43.9306ZM53.1827 30.5291V38.2412H54.6817V35.656H56.5065C56.9917 35.656 57.4117 35.5329 57.7665 35.2867C58.1213 35.0405 58.4001 34.7219 58.6029 34.3309C58.8056 33.9398 58.907 33.5271 58.907 33.0926C58.907 32.774 58.8455 32.4626 58.7224 32.1585C58.5993 31.8543 58.4255 31.5791 58.201 31.3329C57.9837 31.0867 57.7267 30.8912 57.4298 30.7464C57.1329 30.6016 56.807 30.5291 56.4522 30.5291H53.1827ZM56.4196 34.3417H54.6817V31.8435H56.3544C56.5355 31.8435 56.702 31.8905 56.8541 31.9847C57.0134 32.0788 57.1401 32.22 57.2343 32.4083C57.3356 32.5966 57.3863 32.8247 57.3863 33.0926C57.3863 33.3388 57.3429 33.5597 57.256 33.7552C57.1691 33.9435 57.0532 34.0883 56.9084 34.1897C56.7636 34.291 56.6006 34.3417 56.4196 34.3417Z" fill="white"/>
<path d="M125.266 37.7812V43.4531C125.266 43.6823 125.323 43.8542 125.438 43.9688C125.609 44.0833 125.81 44.1406 126.039 44.1406H126.641V44.6562H122.516V44.1406H123.117C123.404 44.1406 123.604 44.0833 123.719 43.9688C123.833 43.8542 123.891 43.6823 123.891 43.4531V31.1641C123.891 30.9349 123.833 30.763 123.719 30.6484C123.604 30.5339 123.404 30.4766 123.117 30.4766H122.602V29.9609H127.672C129.104 29.9609 130.193 30.3333 130.938 31.0781C131.74 31.7656 132.141 32.6536 132.141 33.7422C132.141 35.0599 131.711 36.0625 130.852 36.75C130.049 37.4375 129.076 37.7812 127.93 37.7812H125.266ZM127.414 37.2656C128.273 37.2656 129.018 37.0078 129.648 36.4922C130.336 35.9766 130.68 35.0885 130.68 33.8281C130.68 32.6823 130.393 31.8516 129.82 31.3359C129.305 30.763 128.445 30.4766 127.242 30.4766H126.039C125.81 30.4766 125.609 30.5339 125.438 30.6484C125.323 30.763 125.266 30.9349 125.266 31.1641V37.2656H127.414ZM139.961 39.1562H136.094L135.32 42.4219C135.263 42.7083 135.234 42.9375 135.234 43.1094C135.234 43.3385 135.263 43.5677 135.32 43.7969C135.435 44.026 135.693 44.1406 136.094 44.1406H136.352V44.6562H133.172V44.1406H133.43C133.659 44.1406 133.859 44.0833 134.031 43.9688C134.203 43.7969 134.318 43.5391 134.375 43.1953L137.727 30.0469L139.016 29.6172L142.281 43.1953C142.396 43.5391 142.539 43.7969 142.711 43.9688C142.883 44.0833 143.083 44.1406 143.312 44.1406H143.57V44.6562H139.875V44.1406H140.219C140.562 44.1406 140.763 44.0833 140.82 43.9688C140.878 43.7969 140.906 43.6536 140.906 43.5391C140.906 43.3099 140.878 43.1094 140.82 42.9375L139.961 39.1562ZM138.156 31.5078H138.07L136.266 38.6406H139.875L138.156 31.5078ZM153.711 33.3984C153.711 34.5443 153.396 35.4323 152.766 36.0625C152.135 36.6927 151.419 37.0651 150.617 37.1797L153.195 43.5391C153.31 43.7682 153.424 43.9401 153.539 44.0547C153.711 44.112 153.883 44.1406 154.055 44.1406H154.57V44.6562H152.164L149.328 37.2656H147.352V43.4531C147.352 43.6823 147.409 43.8542 147.523 43.9688C147.695 44.0833 147.896 44.1406 148.125 44.1406H148.641V44.6562H144.688V44.1406H145.203C145.49 44.1406 145.69 44.0833 145.805 43.9688C145.919 43.8542 145.977 43.6823 145.977 43.4531V31.1641C145.977 30.9349 145.919 30.763 145.805 30.6484C145.69 30.5339 145.49 30.4766 145.203 30.4766H144.688V29.9609H149.586C150.904 29.9609 151.906 30.2474 152.594 30.8203C153.339 31.3932 153.711 32.2526 153.711 33.3984ZM147.352 36.75H149.242C150.102 36.75 150.818 36.4922 151.391 35.9766C151.964 35.4609 152.25 34.6589 152.25 33.5703C152.25 32.5964 151.992 31.8516 151.477 31.3359C150.961 30.763 150.159 30.4766 149.07 30.4766H148.125C147.896 30.4766 147.695 30.5339 147.523 30.6484C147.409 30.763 147.352 30.9349 147.352 31.1641V36.75ZM161.961 39.1562H158.094L157.32 42.4219C157.263 42.7083 157.234 42.9375 157.234 43.1094C157.234 43.3385 157.263 43.5677 157.32 43.7969C157.435 44.026 157.693 44.1406 158.094 44.1406H158.352V44.6562H155.172V44.1406H155.43C155.659 44.1406 155.859 44.0833 156.031 43.9688C156.203 43.7969 156.318 43.5391 156.375 43.1953L159.727 30.0469L161.016 29.6172L164.281 43.1953C164.396 43.5391 164.539 43.7969 164.711 43.9688C164.883 44.0833 165.083 44.1406 165.312 44.1406H165.57V44.6562H161.875V44.1406H162.219C162.562 44.1406 162.763 44.0833 162.82 43.9688C162.878 43.7969 162.906 43.6536 162.906 43.5391C162.906 43.3099 162.878 43.1094 162.82 42.9375L161.961 39.1562ZM160.156 31.5078H160.07L158.266 38.6406H161.875L160.156 31.5078ZM174.594 37.1797C174.594 34.7161 174.221 32.9974 173.477 32.0234C172.732 30.9922 171.701 30.4766 170.383 30.4766C169.982 30.4766 169.667 30.5339 169.438 30.6484C169.266 30.763 169.18 30.9349 169.18 31.1641V43.4531C169.18 43.6823 169.266 43.8542 169.438 43.9688C169.609 44.0833 169.839 44.1406 170.125 44.1406C171.385 44.1406 172.445 43.6823 173.305 42.7656C174.164 41.7917 174.594 39.9297 174.594 37.1797ZM167.805 31.1641C167.805 30.9349 167.747 30.763 167.633 30.6484C167.518 30.5339 167.318 30.4766 167.031 30.4766H166.516V29.9609H170.383C172.159 29.9609 173.562 30.5339 174.594 31.6797C175.682 32.8255 176.227 34.6016 176.227 37.0078C176.227 39.6432 175.711 41.5911 174.68 42.8516C173.648 44.0547 172.13 44.6562 170.125 44.6562H166.43V44.1406H167.031C167.318 44.1406 167.518 44.0833 167.633 43.9688C167.747 43.8542 167.805 43.6823 167.805 43.4531V31.1641ZM179.062 30.4766V29.9609H185.938V30.4766H183.961C183.732 30.4766 183.531 30.5339 183.359 30.6484C183.245 30.763 183.188 30.9349 183.188 31.1641V43.4531C183.188 43.6823 183.245 43.8542 183.359 43.9688C183.531 44.0833 183.732 44.1406 183.961 44.1406H185.938V44.6562H179.062V44.1406H181.039C181.326 44.1406 181.526 44.0833 181.641 43.9688C181.755 43.8542 181.812 43.6823 181.812 43.4531V31.1641C181.812 30.9349 181.755 30.763 181.641 30.6484C181.526 30.5339 181.326 30.4766 181.039 30.4766H179.062ZM193.156 37.6094C191.609 36.9219 190.549 36.3203 189.977 35.8047C189.404 35.2891 189.117 34.487 189.117 33.3984C189.117 32.5391 189.461 31.737 190.148 30.9922C190.893 30.1901 191.924 29.7891 193.242 29.7891C193.815 29.7891 194.359 29.875 194.875 30.0469C195.391 30.276 195.763 30.3906 195.992 30.3906C196.164 30.3906 196.307 30.362 196.422 30.3047C196.594 30.1901 196.737 30.0182 196.852 29.7891L197.195 33.3125L196.766 33.4844C196.25 32.2812 195.706 31.4792 195.133 31.0781C194.617 30.6198 193.93 30.3906 193.07 30.3906C191.982 30.3906 191.237 30.7057 190.836 31.3359C190.435 31.9089 190.234 32.5391 190.234 33.2266C190.234 33.8568 190.406 34.3724 190.75 34.7734C191.151 35.1172 192.182 35.6615 193.844 36.4062C195.219 36.9792 196.193 37.638 196.766 38.3828C197.396 39.0703 197.711 39.901 197.711 40.875C197.711 41.9062 197.339 42.8229 196.594 43.625C195.906 44.4271 194.875 44.8281 193.5 44.8281C192.927 44.8281 192.411 44.7135 191.953 44.4844C191.438 44.3125 191.036 44.2266 190.75 44.2266C190.578 44.2266 190.406 44.2839 190.234 44.3984C190.062 44.513 189.862 44.6562 189.633 44.8281L188.945 40.6172L189.461 40.4453C189.862 41.8776 190.406 42.8802 191.094 43.4531C191.839 43.9688 192.669 44.2266 193.586 44.2266C194.56 44.2266 195.276 43.9401 195.734 43.3672C196.25 42.7943 196.508 41.9635 196.508 40.875C196.508 40.3021 196.221 39.7578 195.648 39.2422C195.133 38.6693 194.302 38.125 193.156 37.6094ZM199.688 30.4766V29.9609H208.109L209.055 32.8828L208.625 33.0547C208.167 32.1953 207.68 31.5651 207.164 31.1641C206.648 30.7057 206.076 30.4766 205.445 30.4766H203.039C202.81 30.4766 202.609 30.5339 202.438 30.6484C202.323 30.763 202.266 30.9349 202.266 31.1641V36.4922H204.758C205.331 36.4922 205.732 36.349 205.961 36.0625C206.247 35.776 206.391 35.3464 206.391 34.7734V34.2578H206.906V39.3281H206.391V38.9844C206.391 38.3542 206.247 37.8672 205.961 37.5234C205.732 37.1797 205.331 37.0078 204.758 37.0078H202.266V43.4531C202.266 43.6823 202.323 43.8542 202.438 43.9688C202.609 44.0833 202.81 44.1406 203.039 44.1406H205.273C206.133 44.1406 206.849 43.9115 207.422 43.4531C208.052 42.9375 208.539 42.1641 208.883 41.1328L209.312 41.3047L208.367 44.6562H199.602V44.1406H200.117C200.404 44.1406 200.604 44.0833 200.719 43.9688C200.833 43.8542 200.891 43.6823 200.891 43.4531V31.1641C200.891 30.9349 200.833 30.763 200.719 30.6484C200.604 30.5339 200.404 30.4766 200.117 30.4766H199.688Z" fill="white"/>
<path d="M221.691 45V31.51H227.277C227.86 31.51 228.392 31.6303 228.873 31.871C229.367 32.1117 229.791 32.441 230.146 32.859C230.501 33.2643 230.779 33.7203 230.982 34.227C231.185 34.721 231.286 35.2277 231.286 35.747C231.286 36.4817 231.121 37.1783 230.792 37.837C230.475 38.483 230.026 39.0087 229.443 39.414C228.86 39.8193 228.176 40.022 227.391 40.022H223.021V45H221.691ZM223.021 38.844H227.334C227.866 38.844 228.328 38.6983 228.721 38.407C229.114 38.1157 229.418 37.7357 229.633 37.267C229.848 36.7983 229.956 36.2917 229.956 35.747C229.956 35.1897 229.829 34.6767 229.576 34.208C229.323 33.7393 228.987 33.372 228.569 33.106C228.164 32.8273 227.714 32.688 227.22 32.688H223.021V38.844ZM236.763 31.51H237.884L243.489 45H242.083L240.335 40.782H234.274L232.545 45H231.12L236.763 31.51ZM240.031 39.737L237.314 33.068L234.559 39.737H240.031ZM245.498 45V31.51H246.809V43.176L255.169 31.51H256.404V45H255.093V33.543L246.828 45H245.498ZM250.97 30.37C250.35 30.37 249.824 30.2813 249.393 30.104C248.975 29.914 248.659 29.6607 248.443 29.344C248.228 29.0147 248.114 28.66 248.101 28.28H249.146C249.159 28.6093 249.292 28.907 249.545 29.173C249.811 29.439 250.286 29.572 250.97 29.572C251.629 29.572 252.091 29.4517 252.357 29.211C252.623 28.9577 252.763 28.6473 252.775 28.28H253.82C253.808 28.66 253.694 29.0147 253.478 29.344C253.263 29.6607 252.946 29.914 252.528 30.104C252.123 30.2813 251.604 30.37 250.97 30.37ZM264.701 45V31.51H274.885V45H273.555V32.688H266.031V45H264.701ZM282.444 31.51H283.565L289.17 45H287.764L286.016 40.782H279.955L278.226 45H276.801L282.444 31.51ZM285.712 39.737L282.995 33.068L280.24 39.737H285.712ZM291.104 45V31.51H296.69C297.273 31.51 297.805 31.6303 298.286 31.871C298.78 32.1117 299.204 32.441 299.559 32.859C299.914 33.2643 300.192 33.7203 300.395 34.227C300.598 34.721 300.699 35.2277 300.699 35.747C300.699 36.4817 300.534 37.1783 300.205 37.837C299.888 38.483 299.439 39.0087 298.856 39.414C298.273 39.8193 297.589 40.022 296.804 40.022H292.434V45H291.104ZM292.434 38.844H296.747C297.279 38.844 297.741 38.6983 298.134 38.407C298.527 38.1157 298.831 37.7357 299.046 37.267C299.261 36.7983 299.369 36.2917 299.369 35.747C299.369 35.1897 299.242 34.6767 298.989 34.208C298.736 33.7393 298.4 33.372 297.982 33.106C297.577 32.8273 297.127 32.688 296.633 32.688H292.434V38.844ZM306.176 31.51H307.297L312.902 45H311.496L309.748 40.782H303.687L301.958 45H300.533L306.176 31.51ZM309.444 39.737L306.727 33.068L303.972 39.737H309.444Z" fill="white"/>
<path d="M122.616 67.96C122.616 67.3627 122.719 66.7747 122.924 66.196C123.139 65.608 123.447 65.076 123.848 64.6C124.249 64.1147 124.739 63.7273 125.318 63.438C125.906 63.1487 126.573 63.004 127.32 63.004C128.207 63.004 128.963 63.2093 129.588 63.62C130.213 64.0213 130.68 64.5393 130.988 65.174L130.4 65.51C130.167 65.0527 129.877 64.6887 129.532 64.418C129.196 64.1473 128.832 63.956 128.44 63.844C128.048 63.7227 127.656 63.662 127.264 63.662C126.639 63.662 126.079 63.788 125.584 64.04C125.099 64.292 124.688 64.628 124.352 65.048C124.016 65.468 123.759 65.9347 123.582 66.448C123.414 66.9613 123.33 67.4793 123.33 68.002C123.33 68.59 123.433 69.15 123.638 69.682C123.843 70.2047 124.123 70.6713 124.478 71.082C124.842 71.4927 125.262 71.8193 125.738 72.062C126.223 72.3047 126.746 72.426 127.306 72.426C127.707 72.426 128.113 72.3607 128.524 72.23C128.944 72.09 129.336 71.88 129.7 71.6C130.064 71.3107 130.358 70.9373 130.582 70.48L131.198 70.774C130.983 71.2687 130.661 71.6887 130.232 72.034C129.803 72.3793 129.327 72.6407 128.804 72.818C128.281 72.9953 127.763 73.084 127.25 73.084C126.578 73.084 125.957 72.9393 125.388 72.65C124.819 72.3513 124.324 71.9593 123.904 71.474C123.493 70.9793 123.176 70.4287 122.952 69.822C122.728 69.206 122.616 68.5853 122.616 67.96ZM135.852 73.14C135.339 73.14 134.863 73.042 134.424 72.846C133.985 72.6407 133.603 72.3653 133.276 72.02C132.959 71.6653 132.707 71.2593 132.52 70.802C132.343 70.3353 132.254 69.8453 132.254 69.332C132.254 68.6413 132.408 68.016 132.716 67.456C133.024 66.896 133.449 66.448 133.99 66.112C134.531 65.7667 135.138 65.594 135.81 65.594C136.501 65.594 137.112 65.7667 137.644 66.112C138.176 66.4573 138.596 66.9147 138.904 67.484C139.221 68.044 139.38 68.66 139.38 69.332C139.38 69.388 139.38 69.444 139.38 69.5C139.38 69.556 139.375 69.6027 139.366 69.64H132.982C133.019 70.1907 133.173 70.69 133.444 71.138C133.715 71.586 134.06 71.9407 134.48 72.202C134.909 72.454 135.376 72.58 135.88 72.58C136.384 72.58 136.86 72.4493 137.308 72.188C137.756 71.9267 138.069 71.5907 138.246 71.18L138.862 71.348C138.722 71.6933 138.498 72.0013 138.19 72.272C137.891 72.5427 137.537 72.7573 137.126 72.916C136.725 73.0653 136.3 73.14 135.852 73.14ZM132.954 69.094H138.708C138.671 68.5247 138.521 68.0207 138.26 67.582C137.999 67.1433 137.653 66.798 137.224 66.546C136.804 66.294 136.337 66.168 135.824 66.168C135.311 66.168 134.844 66.294 134.424 66.546C134.004 66.798 133.663 67.1433 133.402 67.582C133.141 68.0207 132.991 68.5247 132.954 69.094ZM142.782 73V66.35H140.108V65.72H146.17V66.35H143.482V73H142.782ZM147.524 73V65.72H148.224V68.366H150.17C150.982 68.366 151.588 68.576 151.99 68.996C152.391 69.416 152.592 69.962 152.592 70.634C152.592 71.0633 152.503 71.46 152.326 71.824C152.148 72.188 151.882 72.4773 151.528 72.692C151.182 72.8973 150.748 73 150.226 73H147.524ZM148.224 72.426H150.142C150.562 72.426 150.898 72.342 151.15 72.174C151.411 72.006 151.598 71.7867 151.71 71.516C151.831 71.2453 151.892 70.956 151.892 70.648C151.892 70.3493 151.836 70.0693 151.724 69.808C151.621 69.5467 151.439 69.3367 151.178 69.178C150.926 69.0193 150.571 68.94 150.114 68.94H148.224V72.426ZM157.791 73V65.72H158.491L161.557 70.956L164.623 65.72H165.309V73H164.637V66.826L161.781 71.698H161.319L158.463 66.84V73H157.791ZM166.896 70.9C166.896 70.4613 167.027 70.0833 167.288 69.766C167.55 69.4393 167.909 69.1873 168.366 69.01C168.824 68.8233 169.351 68.73 169.948 68.73C170.322 68.73 170.709 68.7627 171.11 68.828C171.512 68.8933 171.871 68.982 172.188 69.094V68.408C172.188 67.736 171.992 67.1993 171.6 66.798C171.218 66.3967 170.686 66.196 170.004 66.196C169.64 66.196 169.262 66.2707 168.87 66.42C168.478 66.5693 168.077 66.784 167.666 67.064L167.372 66.56C167.848 66.2427 168.306 66.0047 168.744 65.846C169.192 65.678 169.636 65.594 170.074 65.594C170.942 65.594 171.628 65.8507 172.132 66.364C172.636 66.8773 172.888 67.5773 172.888 68.464V72.076C172.888 72.188 172.912 72.272 172.958 72.328C173.014 72.384 173.094 72.4167 173.196 72.426V73C173.112 73.0093 173.042 73.014 172.986 73.014C172.93 73.014 172.884 73.014 172.846 73.014C172.669 72.986 172.529 72.9113 172.426 72.79C172.333 72.6687 172.282 72.5333 172.272 72.384V71.81C171.936 72.23 171.502 72.5567 170.97 72.79C170.448 73.0233 169.897 73.14 169.318 73.14C168.861 73.14 168.446 73.042 168.072 72.846C167.708 72.65 167.419 72.384 167.204 72.048C166.999 71.7027 166.896 71.32 166.896 70.9ZM171.908 71.502C172.002 71.3807 172.072 71.264 172.118 71.152C172.165 71.04 172.188 70.9373 172.188 70.844V69.64C171.852 69.5093 171.502 69.4113 171.138 69.346C170.774 69.2807 170.401 69.248 170.018 69.248C169.29 69.248 168.698 69.3927 168.24 69.682C167.792 69.9713 167.568 70.3633 167.568 70.858C167.568 71.166 167.648 71.4507 167.806 71.712C167.965 71.9733 168.184 72.1833 168.464 72.342C168.754 72.5007 169.085 72.58 169.458 72.58C169.981 72.58 170.462 72.482 170.9 72.286C171.348 72.0807 171.684 71.8193 171.908 71.502ZM175.018 73V65.72H179.232V66.35H175.718V73H175.018ZM180.021 70.9C180.021 70.4613 180.152 70.0833 180.413 69.766C180.675 69.4393 181.034 69.1873 181.491 69.01C181.949 68.8233 182.476 68.73 183.073 68.73C183.447 68.73 183.834 68.7627 184.235 68.828C184.637 68.8933 184.996 68.982 185.313 69.094V68.408C185.313 67.736 185.117 67.1993 184.725 66.798C184.343 66.3967 183.811 66.196 183.129 66.196C182.765 66.196 182.387 66.2707 181.995 66.42C181.603 66.5693 181.202 66.784 180.791 67.064L180.497 66.56C180.973 66.2427 181.431 66.0047 181.869 65.846C182.317 65.678 182.761 65.594 183.199 65.594C184.067 65.594 184.753 65.8507 185.257 66.364C185.761 66.8773 186.013 67.5773 186.013 68.464V72.076C186.013 72.188 186.037 72.272 186.083 72.328C186.139 72.384 186.219 72.4167 186.321 72.426V73C186.237 73.0093 186.167 73.014 186.111 73.014C186.055 73.014 186.009 73.014 185.971 73.014C185.794 72.986 185.654 72.9113 185.551 72.79C185.458 72.6687 185.407 72.5333 185.397 72.384V71.81C185.061 72.23 184.627 72.5567 184.095 72.79C183.573 73.0233 183.022 73.14 182.443 73.14C181.986 73.14 181.571 73.042 181.197 72.846C180.833 72.65 180.544 72.384 180.329 72.048C180.124 71.7027 180.021 71.32 180.021 70.9ZM185.033 71.502C185.127 71.3807 185.197 71.264 185.243 71.152C185.29 71.04 185.313 70.9373 185.313 70.844V69.64C184.977 69.5093 184.627 69.4113 184.263 69.346C183.899 69.2807 183.526 69.248 183.143 69.248C182.415 69.248 181.823 69.3927 181.365 69.682C180.917 69.9713 180.693 70.3633 180.693 70.858C180.693 71.166 180.773 71.4507 180.931 71.712C181.09 71.9733 181.309 72.1833 181.589 72.342C181.879 72.5007 182.21 72.58 182.583 72.58C183.106 72.58 183.587 72.482 184.025 72.286C184.473 72.0807 184.809 71.8193 185.033 71.502ZM190.103 73.084C189.468 73.084 188.917 72.958 188.451 72.706C187.984 72.4447 187.634 72.0853 187.401 71.628L187.989 71.376C188.166 71.7213 188.432 71.992 188.787 72.188C189.151 72.384 189.585 72.482 190.089 72.482C190.695 72.482 191.181 72.342 191.545 72.062C191.918 71.7727 192.105 71.3853 192.105 70.9C192.105 70.4707 191.96 70.1207 191.671 69.85C191.381 69.5793 190.985 69.4393 190.481 69.43H189.739V68.912H190.537C190.751 68.912 190.947 68.8513 191.125 68.73C191.302 68.6087 191.442 68.4453 191.545 68.24C191.647 68.0347 191.699 67.806 191.699 67.554C191.699 67.1527 191.559 66.8307 191.279 66.588C191.008 66.336 190.607 66.21 190.075 66.21C189.645 66.21 189.281 66.2987 188.983 66.476C188.693 66.6533 188.465 66.91 188.297 67.246L187.751 66.966C187.956 66.5367 188.259 66.2053 188.661 65.972C189.071 65.7293 189.547 65.608 190.089 65.608C190.537 65.608 190.929 65.6873 191.265 65.846C191.601 65.9953 191.867 66.21 192.063 66.49C192.259 66.7607 192.357 67.092 192.357 67.484C192.357 67.848 192.268 68.1793 192.091 68.478C191.923 68.7673 191.694 68.9867 191.405 69.136C191.834 69.2667 192.165 69.4953 192.399 69.822C192.641 70.1487 192.763 70.536 192.763 70.984C192.763 71.4133 192.651 71.7867 192.427 72.104C192.203 72.412 191.89 72.6547 191.489 72.832C191.097 73 190.635 73.084 190.103 73.084ZM194.446 73V65.734H195.146V72.048L199.878 65.72H200.522V73H199.822V66.784L195.146 73H194.446ZM202.69 73V65.72H203.39V68.954H207.884V65.72H208.584V73H207.884V69.584H203.39V73H202.69ZM213.822 73.14C213.308 73.14 212.832 73.042 212.394 72.846C211.964 72.65 211.591 72.3793 211.274 72.034C210.956 71.6793 210.709 71.2733 210.532 70.816C210.354 70.3587 210.266 69.878 210.266 69.374C210.266 68.8607 210.354 68.38 210.532 67.932C210.709 67.4747 210.956 67.0733 211.274 66.728C211.6 66.3733 211.978 66.098 212.408 65.902C212.846 65.6967 213.318 65.594 213.822 65.594C214.326 65.594 214.792 65.6967 215.222 65.902C215.651 66.098 216.029 66.3733 216.356 66.728C216.682 67.0733 216.934 67.4747 217.112 67.932C217.289 68.38 217.378 68.8607 217.378 69.374C217.378 69.878 217.289 70.3587 217.112 70.816C216.934 71.2733 216.682 71.6793 216.356 72.034C216.038 72.3793 215.66 72.65 215.222 72.846C214.792 73.042 214.326 73.14 213.822 73.14ZM210.966 69.402C210.966 69.9713 211.092 70.494 211.344 70.97C211.605 71.4367 211.95 71.81 212.38 72.09C212.809 72.37 213.285 72.51 213.808 72.51C214.33 72.51 214.806 72.37 215.236 72.09C215.674 71.8007 216.02 71.418 216.272 70.942C216.533 70.4567 216.664 69.9293 216.664 69.36C216.664 68.7907 216.533 68.268 216.272 67.792C216.02 67.316 215.674 66.938 215.236 66.658C214.806 66.3687 214.335 66.224 213.822 66.224C213.299 66.224 212.823 66.3687 212.394 66.658C211.964 66.9473 211.619 67.33 211.358 67.806C211.096 68.282 210.966 68.814 210.966 69.402ZM219.055 73V65.72H222.569C222.961 65.72 223.288 65.8087 223.549 65.986C223.82 66.154 224.025 66.378 224.165 66.658C224.314 66.9287 224.389 67.2133 224.389 67.512C224.389 67.8947 224.291 68.2447 224.095 68.562C223.908 68.8793 223.647 69.1127 223.311 69.262C223.731 69.3833 224.067 69.6073 224.319 69.934C224.571 70.2607 224.697 70.6433 224.697 71.082C224.697 71.4553 224.604 71.7867 224.417 72.076C224.24 72.3653 223.992 72.594 223.675 72.762C223.367 72.9207 223.012 73 222.611 73H219.055ZM219.727 72.468H222.597C222.868 72.468 223.11 72.398 223.325 72.258C223.54 72.118 223.708 71.9407 223.829 71.726C223.96 71.502 224.025 71.2687 224.025 71.026C224.025 70.7647 223.964 70.5267 223.843 70.312C223.722 70.0973 223.558 69.9247 223.353 69.794C223.148 69.654 222.914 69.584 222.653 69.584H219.727V72.468ZM219.727 69.08H222.373C222.644 69.08 222.877 69.01 223.073 68.87C223.269 68.7207 223.423 68.534 223.535 68.31C223.647 68.086 223.703 67.8527 223.703 67.61C223.703 67.246 223.586 66.9287 223.353 66.658C223.12 66.3873 222.812 66.252 222.429 66.252H219.727V69.08ZM230.02 73V65.734H230.72V72.048L235.452 65.72H236.096V73H235.396V66.784L230.72 73H230.02ZM241.358 73.14C240.854 73.14 240.383 73.042 239.944 72.846C239.505 72.6407 239.123 72.3653 238.796 72.02C238.469 71.6653 238.213 71.2593 238.026 70.802C237.849 70.3447 237.76 69.8547 237.76 69.332C237.76 68.632 237.914 68.002 238.222 67.442C238.53 66.882 238.955 66.434 239.496 66.098C240.037 65.762 240.653 65.594 241.344 65.594C242.007 65.594 242.59 65.748 243.094 66.056C243.598 66.3547 243.976 66.7653 244.228 67.288L243.542 67.512C243.327 67.1107 243.019 66.798 242.618 66.574C242.226 66.3407 241.792 66.224 241.316 66.224C240.784 66.224 240.303 66.3593 239.874 66.63C239.445 66.9007 239.099 67.274 238.838 67.75C238.586 68.2167 238.46 68.744 238.46 69.332C238.46 69.9107 238.591 70.4427 238.852 70.928C239.113 71.4133 239.459 71.8007 239.888 72.09C240.327 72.37 240.807 72.51 241.33 72.51C241.666 72.51 241.993 72.4493 242.31 72.328C242.637 72.1973 242.917 72.0293 243.15 71.824C243.393 71.6187 243.551 71.3993 243.626 71.166L244.312 71.362C244.191 71.7073 243.981 72.0153 243.682 72.286C243.383 72.5473 243.033 72.7573 242.632 72.916C242.24 73.0653 241.815 73.14 241.358 73.14ZM245.893 73V65.72H251.563V73H250.863V66.35H246.593V73H245.893ZM253.152 70.9C253.152 70.4613 253.283 70.0833 253.544 69.766C253.805 69.4393 254.165 69.1873 254.622 69.01C255.079 68.8233 255.607 68.73 256.204 68.73C256.577 68.73 256.965 68.7627 257.366 68.828C257.767 68.8933 258.127 68.982 258.444 69.094V68.408C258.444 67.736 258.248 67.1993 257.856 66.798C257.473 66.3967 256.941 66.196 256.26 66.196C255.896 66.196 255.518 66.2707 255.126 66.42C254.734 66.5693 254.333 66.784 253.922 67.064L253.628 66.56C254.104 66.2427 254.561 66.0047 255 65.846C255.448 65.678 255.891 65.594 256.33 65.594C257.198 65.594 257.884 65.8507 258.388 66.364C258.892 66.8773 259.144 67.5773 259.144 68.464V72.076C259.144 72.188 259.167 72.272 259.214 72.328C259.27 72.384 259.349 72.4167 259.452 72.426V73C259.368 73.0093 259.298 73.014 259.242 73.014C259.186 73.014 259.139 73.014 259.102 73.014C258.925 72.986 258.785 72.9113 258.682 72.79C258.589 72.6687 258.537 72.5333 258.528 72.384V71.81C258.192 72.23 257.758 72.5567 257.226 72.79C256.703 73.0233 256.153 73.14 255.574 73.14C255.117 73.14 254.701 73.042 254.328 72.846C253.964 72.65 253.675 72.384 253.46 72.048C253.255 71.7027 253.152 71.32 253.152 70.9ZM258.164 71.502C258.257 71.3807 258.327 71.264 258.374 71.152C258.421 71.04 258.444 70.9373 258.444 70.844V69.64C258.108 69.5093 257.758 69.4113 257.394 69.346C257.03 69.2807 256.657 69.248 256.274 69.248C255.546 69.248 254.953 69.3927 254.496 69.682C254.048 69.9713 253.824 70.3633 253.824 70.858C253.824 71.166 253.903 71.4507 254.062 71.712C254.221 71.9733 254.44 72.1833 254.72 72.342C255.009 72.5007 255.341 72.58 255.714 72.58C256.237 72.58 256.717 72.482 257.156 72.286C257.604 72.0807 257.94 71.8193 258.164 71.502ZM264.83 73.14C264.204 73.14 263.644 72.9767 263.15 72.65C262.664 72.314 262.272 71.908 261.974 71.432V75.982H261.274V65.72H261.918V67.176C262.216 66.7093 262.613 66.3313 263.108 66.042C263.602 65.7433 264.125 65.594 264.676 65.594C265.189 65.594 265.656 65.7013 266.076 65.916C266.496 66.1213 266.86 66.406 267.168 66.77C267.485 67.1247 267.728 67.526 267.896 67.974C268.073 68.422 268.162 68.8887 268.162 69.374C268.162 70.046 268.022 70.6713 267.742 71.25C267.462 71.8193 267.07 72.2767 266.566 72.622C266.071 72.9673 265.492 73.14 264.83 73.14ZM264.662 72.51C265.091 72.51 265.474 72.4213 265.81 72.244C266.155 72.0667 266.449 71.8287 266.692 71.53C266.934 71.2313 267.121 70.8953 267.252 70.522C267.382 70.1487 267.448 69.766 267.448 69.374C267.448 68.954 267.373 68.5573 267.224 68.184C267.074 67.8013 266.864 67.4653 266.594 67.176C266.332 66.8867 266.024 66.658 265.67 66.49C265.324 66.3127 264.946 66.224 264.536 66.224C264.284 66.224 264.013 66.2753 263.724 66.378C263.444 66.4807 263.173 66.6253 262.912 66.812C262.66 66.9987 262.45 67.2133 262.282 67.456C262.114 67.6893 262.011 67.932 261.974 68.184V70.578C262.142 70.9327 262.356 71.2593 262.618 71.558C262.888 71.8473 263.201 72.0807 263.556 72.258C263.91 72.426 264.279 72.51 264.662 72.51ZM269.846 73V65.734H270.546V72.048L275.278 65.72H275.922V73H275.222V66.784L270.546 73H269.846ZM279.952 73V66.35H277.278V65.72H283.34V66.35H280.652V73H279.952ZM287.788 73.14C287.274 73.14 286.798 73.042 286.36 72.846C285.921 72.6407 285.538 72.3653 285.212 72.02C284.894 71.6653 284.642 71.2593 284.456 70.802C284.278 70.3353 284.19 69.8453 284.19 69.332C284.19 68.6413 284.344 68.016 284.652 67.456C284.96 66.896 285.384 66.448 285.926 66.112C286.467 65.7667 287.074 65.594 287.746 65.594C288.436 65.594 289.048 65.7667 289.58 66.112C290.112 66.4573 290.532 66.9147 290.84 67.484C291.157 68.044 291.316 68.66 291.316 69.332C291.316 69.388 291.316 69.444 291.316 69.5C291.316 69.556 291.311 69.6027 291.302 69.64H284.918C284.955 70.1907 285.109 70.69 285.38 71.138C285.65 71.586 285.996 71.9407 286.416 72.202C286.845 72.454 287.312 72.58 287.816 72.58C288.32 72.58 288.796 72.4493 289.244 72.188C289.692 71.9267 290.004 71.5907 290.182 71.18L290.798 71.348C290.658 71.6933 290.434 72.0013 290.126 72.272C289.827 72.5427 289.472 72.7573 289.062 72.916C288.66 73.0653 288.236 73.14 287.788 73.14ZM284.89 69.094H290.644C290.606 68.5247 290.457 68.0207 290.196 67.582C289.934 67.1433 289.589 66.798 289.16 66.546C288.74 66.294 288.273 66.168 287.76 66.168C287.246 66.168 286.78 66.294 286.36 66.546C285.94 66.798 285.599 67.1433 285.338 67.582C285.076 68.0207 284.927 68.5247 284.89 69.094ZM292.114 73.028V72.384C292.366 72.384 292.594 72.314 292.8 72.174C293.005 72.0247 293.187 71.7773 293.346 71.432C293.504 71.0867 293.63 70.6107 293.724 70.004C293.826 69.388 293.892 68.6133 293.92 67.68L293.99 65.72H298.526V73H297.826V66.35H294.62L294.592 67.722C294.554 68.7487 294.475 69.6073 294.354 70.298C294.242 70.9793 294.083 71.5207 293.878 71.922C293.672 72.314 293.42 72.5987 293.122 72.776C292.832 72.944 292.496 73.028 292.114 73.028ZM303.797 73.14C303.284 73.14 302.808 73.042 302.369 72.846C301.931 72.6407 301.548 72.3653 301.221 72.02C300.904 71.6653 300.652 71.2593 300.465 70.802C300.288 70.3353 300.199 69.8453 300.199 69.332C300.199 68.6413 300.353 68.016 300.661 67.456C300.969 66.896 301.394 66.448 301.935 66.112C302.477 65.7667 303.083 65.594 303.755 65.594C304.446 65.594 305.057 65.7667 305.589 66.112C306.121 66.4573 306.541 66.9147 306.849 67.484C307.167 68.044 307.325 68.66 307.325 69.332C307.325 69.388 307.325 69.444 307.325 69.5C307.325 69.556 307.321 69.6027 307.311 69.64H300.927C300.965 70.1907 301.119 70.69 301.389 71.138C301.66 71.586 302.005 71.9407 302.425 72.202C302.855 72.454 303.321 72.58 303.825 72.58C304.329 72.58 304.805 72.4493 305.253 72.188C305.701 71.9267 306.014 71.5907 306.191 71.18L306.807 71.348C306.667 71.6933 306.443 72.0013 306.135 72.272C305.837 72.5427 305.482 72.7573 305.071 72.916C304.67 73.0653 304.245 73.14 303.797 73.14ZM300.899 69.094H306.653C306.616 68.5247 306.467 68.0207 306.205 67.582C305.944 67.1433 305.599 66.798 305.169 66.546C304.749 66.294 304.283 66.168 303.769 66.168C303.256 66.168 302.789 66.294 302.369 66.546C301.949 66.798 301.609 67.1433 301.347 67.582C301.086 68.0207 300.937 68.5247 300.899 69.094ZM308.865 73V65.734H309.565V72.048L314.297 65.72H314.941V73H314.241V66.784L309.565 73H308.865ZM311.903 64.712C311.306 64.712 310.835 64.572 310.489 64.292C310.153 64.0027 309.985 63.6387 309.985 63.2H310.517C310.517 63.508 310.639 63.76 310.881 63.956C311.124 64.152 311.465 64.25 311.903 64.25C312.351 64.25 312.692 64.1567 312.925 63.97C313.159 63.774 313.28 63.5173 313.289 63.2H313.821C313.821 63.6387 313.649 64.0027 313.303 64.292C312.967 64.572 312.501 64.712 311.903 64.712Z" fill="white"/>
</svg>
