<svg width="317" height="112" viewBox="0 0 317 112" fill="none" xmlns="http://www.w3.org/2000/svg">
<path d="M49.9881 5.73468C53.3533 2.52465 58.6467 2.52465 62.0119 5.73468C64.3937 8.00657 67.8527 8.7418 70.9526 7.63507C75.3325 6.07132 80.1683 8.22436 81.9369 12.5256C83.1887 15.5698 86.0496 17.6484 89.3316 17.8982C93.9689 18.2511 97.5109 22.1849 97.3772 26.8337C97.2825 30.1238 99.0507 33.1863 101.947 34.7495C106.04 36.958 107.676 41.9924 105.663 46.1849C104.238 49.1521 104.608 52.669 106.618 55.2751C109.459 58.9575 108.906 64.2219 105.362 67.2332C102.853 69.3644 101.76 72.7276 102.537 75.9262C103.634 80.4455 100.988 85.0298 96.5251 86.3392C93.3667 87.2659 91.0005 89.8938 90.409 93.1318C89.5733 97.7068 85.2908 100.818 80.6814 100.199C77.4192 99.7612 74.1887 101.2 72.3313 103.917C69.707 107.756 64.5293 108.857 60.5702 106.417C57.7681 104.69 54.2319 104.69 51.4298 106.417C47.4707 108.857 42.293 107.757 39.6687 103.917C37.8113 101.2 34.5808 99.7612 31.3185 100.199C26.7092 100.818 22.4267 97.7068 21.591 93.1318C20.9995 89.8938 18.6333 87.2659 15.4749 86.3392C11.0124 85.0298 8.36563 80.4455 9.46298 75.9262C10.2396 72.7276 9.14686 69.3644 6.63845 67.2332C3.09426 64.2219 2.54094 58.9575 5.38162 55.2751C7.3921 52.669 7.76174 49.1521 6.33704 46.1849C4.32404 41.9924 5.9598 36.958 10.0526 34.7495C12.9493 33.1863 14.7175 30.1238 14.6228 26.8337C14.4891 22.1849 18.0311 18.2511 22.6684 17.8982C25.9504 17.6484 28.8113 15.5698 30.0631 12.5256C31.8317 8.22436 36.6675 6.07132 41.0474 7.63507C44.1473 8.7418 47.6063 8.00657 49.9881 5.73468Z" fill="#0E111A"/>
<circle cx="56" cy="56" r="43.2069" fill="#AA3399"/>
<circle cx="55.8793" cy="55.8793" r="40.069" stroke="#0E111A" stroke-width="1.68966"/>
<path d="M29.041 57.7715V61.2565C29.041 61.3973 29.0762 61.5029 29.1466 61.5733C29.2522 61.6437 29.3754 61.6789 29.5162 61.6789H29.8858V61.9957H27.3513V61.6789H27.7209C27.8969 61.6789 28.0201 61.6437 28.0905 61.5733C28.1609 61.5029 28.1961 61.3973 28.1961 61.2565V53.7058C28.1961 53.565 28.1609 53.4594 28.0905 53.389C28.0201 53.3186 27.8969 53.2834 27.7209 53.2834H27.4041V52.9666H30.5194C31.3994 52.9666 32.0682 53.1954 32.5259 53.653C33.0187 54.0754 33.2651 54.621 33.2651 55.2899C33.2651 56.0995 33.0011 56.7155 32.4731 57.1379C31.9802 57.5603 31.3818 57.7715 30.6778 57.7715H29.041ZM30.361 57.4547C30.889 57.4547 31.3466 57.2963 31.7338 56.9795C32.1563 56.6627 32.3675 56.1171 32.3675 55.3427C32.3675 54.6386 32.1915 54.1282 31.8394 53.8114C31.5226 53.4594 30.9946 53.2834 30.2554 53.2834H29.5162C29.3754 53.2834 29.2522 53.3186 29.1466 53.389C29.0762 53.4594 29.041 53.565 29.041 53.7058V57.4547H30.361ZM38.6107 58.6164H36.2347L35.7594 60.6228C35.7242 60.7988 35.7066 60.9397 35.7066 61.0453C35.7066 61.1861 35.7242 61.3269 35.7594 61.4677C35.8298 61.6085 35.9882 61.6789 36.2347 61.6789H36.3931V61.9957H34.4394V61.6789H34.5978C34.7386 61.6789 34.8618 61.6437 34.9674 61.5733C35.073 61.4677 35.1434 61.3093 35.1786 61.0981L37.2379 53.0194L38.0299 52.7554L40.0364 61.0981C40.1068 61.3093 40.1948 61.4677 40.3004 61.5733C40.406 61.6437 40.5292 61.6789 40.67 61.6789H40.8284V61.9957H38.5579V61.6789H38.7691C38.9803 61.6789 39.1036 61.6437 39.1388 61.5733C39.174 61.4677 39.1916 61.3797 39.1916 61.3093C39.1916 61.1685 39.174 61.0453 39.1388 60.9397L38.6107 58.6164ZM37.5019 53.917H37.4491L36.3403 58.2996H38.5579L37.5019 53.917ZM47.5997 55.0787C47.5997 55.7827 47.4061 56.3283 47.0189 56.7155C46.6317 57.1027 46.1917 57.3315 45.6988 57.4019L47.2829 61.3093C47.3533 61.4501 47.4237 61.5557 47.4941 61.6261C47.5997 61.6613 47.7053 61.6789 47.8109 61.6789H48.1277V61.9957H46.6493L44.9068 57.4547H43.6924V61.2565C43.6924 61.3973 43.7276 61.5029 43.798 61.5733C43.9036 61.6437 44.0268 61.6789 44.1676 61.6789H44.4844V61.9957H42.0555V61.6789H42.3723C42.5483 61.6789 42.6715 61.6437 42.7419 61.5733C42.8123 61.5029 42.8475 61.3973 42.8475 61.2565V53.7058C42.8475 53.565 42.8123 53.4594 42.7419 53.389C42.6715 53.3186 42.5483 53.2834 42.3723 53.2834H42.0555V52.9666H45.0652C45.8748 52.9666 46.4909 53.1426 46.9133 53.4946C47.3709 53.8466 47.5997 54.3746 47.5997 55.0787ZM43.6924 57.1379H44.854C45.382 57.1379 45.822 56.9795 46.1741 56.6627C46.5261 56.3459 46.7021 55.8531 46.7021 55.1843C46.7021 54.5858 46.5437 54.1282 46.2269 53.8114C45.91 53.4594 45.4172 53.2834 44.7484 53.2834H44.1676C44.0268 53.2834 43.9036 53.3186 43.798 53.389C43.7276 53.4594 43.6924 53.565 43.6924 53.7058V57.1379ZM53.2094 58.6164H50.8333L50.3581 60.6228C50.3229 60.7988 50.3053 60.9397 50.3053 61.0453C50.3053 61.1861 50.3229 61.3269 50.3581 61.4677C50.4285 61.6085 50.5869 61.6789 50.8333 61.6789H50.9917V61.9957H49.038V61.6789H49.1964C49.3372 61.6789 49.4604 61.6437 49.566 61.5733C49.6716 61.4677 49.742 61.3093 49.7772 61.0981L51.8365 53.0194L52.6285 52.7554L54.635 61.0981C54.7054 61.3093 54.7934 61.4677 54.899 61.5733C55.0046 61.6437 55.1278 61.6789 55.2686 61.6789H55.427V61.9957H53.1566V61.6789H53.3678C53.579 61.6789 53.7022 61.6437 53.7374 61.5733C53.7726 61.4677 53.7902 61.3797 53.7902 61.3093C53.7902 61.1685 53.7726 61.0453 53.7374 60.9397L53.2094 58.6164ZM52.1005 53.917H52.0477L50.9389 58.2996H53.1566L52.1005 53.917ZM61.5119 57.4019C61.5119 55.8883 61.2831 54.8323 60.8255 54.2338C60.3679 53.6002 59.7342 53.2834 58.9246 53.2834C58.6782 53.2834 58.4846 53.3186 58.3438 53.389C58.2382 53.4594 58.1854 53.565 58.1854 53.7058V61.2565C58.1854 61.3973 58.2382 61.5029 58.3438 61.5733C58.4494 61.6437 58.5902 61.6789 58.7662 61.6789C59.5406 61.6789 60.1919 61.3973 60.7199 60.834C61.2479 60.2356 61.5119 59.0916 61.5119 57.4019ZM57.3406 53.7058C57.3406 53.565 57.3054 53.4594 57.235 53.389C57.1646 53.3186 57.0414 53.2834 56.8653 53.2834H56.5485V52.9666H58.9246C60.0158 52.9666 60.8783 53.3186 61.5119 54.0226C62.1807 54.7266 62.5151 55.8179 62.5151 57.2963C62.5151 58.9156 62.1983 60.1124 61.5647 60.8869C60.9311 61.6261 59.9982 61.9957 58.7662 61.9957H56.4957V61.6789H56.8653C57.0414 61.6789 57.1646 61.6437 57.235 61.5733C57.3054 61.5029 57.3406 61.3973 57.3406 61.2565V53.7058ZM64.7983 53.2834V52.9666H69.0224V53.2834H67.808C67.6672 53.2834 67.544 53.3186 67.4384 53.389C67.368 53.4594 67.3328 53.565 67.3328 53.7058V61.2565C67.3328 61.3973 67.368 61.5029 67.4384 61.5733C67.544 61.6437 67.6672 61.6789 67.808 61.6789H69.0224V61.9957H64.7983V61.6789H66.0127C66.1887 61.6789 66.3119 61.6437 66.3823 61.5733C66.4527 61.5029 66.4879 61.3973 66.4879 61.2565V53.7058C66.4879 53.565 66.4527 53.4594 66.3823 53.389C66.3119 53.3186 66.1887 53.2834 66.0127 53.2834H64.7983ZM73.9985 57.6659C73.048 57.2435 72.3968 56.8739 72.0448 56.5571C71.6928 56.2403 71.5168 55.7475 71.5168 55.0787C71.5168 54.5506 71.728 54.0578 72.1504 53.6002C72.608 53.1074 73.2416 52.861 74.0513 52.861C74.4033 52.861 74.7377 52.9138 75.0545 53.0194C75.3713 53.1602 75.6001 53.2306 75.7409 53.2306C75.8465 53.2306 75.9345 53.213 76.0049 53.1778C76.1105 53.1074 76.1985 53.0018 76.2689 52.861L76.4801 55.0259L76.2161 55.1315C75.8993 54.3922 75.5649 53.8994 75.2129 53.653C74.8961 53.3714 74.4737 53.2306 73.9457 53.2306C73.2768 53.2306 72.8192 53.4242 72.5728 53.8114C72.3264 54.1634 72.2032 54.5506 72.2032 54.9731C72.2032 55.3603 72.3088 55.6771 72.52 55.9235C72.7664 56.1347 73.4 56.4691 74.4209 56.9267C75.2657 57.2787 75.8641 57.6835 76.2161 58.1412C76.6033 58.5636 76.7969 59.074 76.7969 59.6724C76.7969 60.306 76.5681 60.8693 76.1105 61.3621C75.6881 61.8549 75.0545 62.1013 74.2097 62.1013C73.8576 62.1013 73.5408 62.0309 73.2592 61.8901C72.9424 61.7845 72.696 61.7317 72.52 61.7317C72.4144 61.7317 72.3088 61.7669 72.2032 61.8373C72.0976 61.9077 71.9744 61.9957 71.8336 62.1013L71.4112 59.514L71.728 59.4084C71.9744 60.2884 72.3088 60.9045 72.7312 61.2565C73.1888 61.5733 73.6992 61.7317 74.2625 61.7317C74.8609 61.7317 75.3009 61.5557 75.5825 61.2037C75.8993 60.8516 76.0577 60.3412 76.0577 59.6724C76.0577 59.3204 75.8817 58.986 75.5297 58.6692C75.2129 58.3172 74.7025 57.9828 73.9985 57.6659ZM78.5521 53.2834V52.9666H83.7266L84.3075 54.7619L84.0435 54.8675C83.7618 54.3394 83.4626 53.9522 83.1458 53.7058C82.829 53.4242 82.477 53.2834 82.0898 53.2834H80.6113C80.4705 53.2834 80.3473 53.3186 80.2417 53.389C80.1713 53.4594 80.1361 53.565 80.1361 53.7058V56.9795H81.6674C82.0194 56.9795 82.2658 56.8915 82.4066 56.7155C82.5826 56.5395 82.6706 56.2755 82.6706 55.9235V55.6067H82.9874V58.722H82.6706V58.5108C82.6706 58.1236 82.5826 57.8244 82.4066 57.6131C82.2658 57.4019 82.0194 57.2963 81.6674 57.2963H80.1361V61.2565C80.1361 61.3973 80.1713 61.5029 80.2417 61.5733C80.3473 61.6437 80.4705 61.6789 80.6113 61.6789H81.9842C82.5122 61.6789 82.9522 61.5381 83.3042 61.2565C83.6914 60.9397 83.9906 60.4644 84.2019 59.8308L84.4659 59.9364L83.885 61.9957H78.4993V61.6789H78.8161C78.9921 61.6789 79.1153 61.6437 79.1857 61.5733C79.2561 61.5029 79.2913 61.3973 79.2913 61.2565V53.7058C79.2913 53.565 79.2561 53.4594 79.1857 53.389C79.1153 53.3186 78.9921 53.2834 78.8161 53.2834H78.5521Z" fill="#0E111A"/>
<path d="M29.041 57.7715V57.6509H28.9203V57.7715H29.041ZM29.1466 61.5733L29.0612 61.6586L29.0697 61.6671L29.0796 61.6737L29.1466 61.5733ZM29.8858 61.6789H30.0065V61.5582H29.8858V61.6789ZM29.8858 61.9957V62.1164H30.0065V61.9957H29.8858ZM27.3513 61.9957H27.2306V62.1164H27.3513V61.9957ZM27.3513 61.6789V61.5582H27.2306V61.6789H27.3513ZM27.4041 53.2834H27.2834V53.4041H27.4041V53.2834ZM27.4041 52.9666V52.8459H27.2834V52.9666H27.4041ZM32.5259 53.653L32.4403 53.7386L32.4473 53.7446L32.5259 53.653ZM32.4731 57.1379L32.3976 57.0436L32.3945 57.0463L32.4731 57.1379ZM31.7338 56.9795L31.6614 56.8829L31.6574 56.8861L31.7338 56.9795ZM31.8394 53.8114L31.7492 53.8926L31.7587 53.9011L31.8394 53.8114ZM29.1466 53.389L29.0796 53.2886L29.0697 53.2952L29.0612 53.3037L29.1466 53.389ZM29.041 57.4547H28.9203V57.5754H29.041V57.4547ZM28.9203 57.7715V61.2565H29.1616V57.7715H28.9203ZM28.9203 61.2565C28.9203 61.4159 28.9602 61.5576 29.0612 61.6586L29.2319 61.4879C29.1921 61.4481 29.1616 61.3787 29.1616 61.2565H28.9203ZM29.0796 61.6737C29.2072 61.7587 29.3542 61.7996 29.5162 61.7996V61.5582C29.3965 61.5582 29.2971 61.5286 29.2135 61.4729L29.0796 61.6737ZM29.5162 61.7996H29.8858V61.5582H29.5162V61.7996ZM29.7651 61.6789V61.9957H30.0065V61.6789H29.7651ZM29.8858 61.875H27.3513V62.1164H29.8858V61.875ZM27.472 61.9957V61.6789H27.2306V61.9957H27.472ZM27.3513 61.7996H27.7209V61.5582H27.3513V61.7996ZM27.7209 61.7996C27.9063 61.7996 28.0707 61.7638 28.1759 61.6586L28.0052 61.4879C27.9695 61.5236 27.8875 61.5582 27.7209 61.5582V61.7996ZM28.1759 61.6586C28.2769 61.5576 28.3168 61.4159 28.3168 61.2565H28.0754C28.0754 61.3787 28.045 61.4481 28.0052 61.4879L28.1759 61.6586ZM28.3168 61.2565V53.7058H28.0754V61.2565H28.3168ZM28.3168 53.7058C28.3168 53.5464 28.2769 53.4047 28.1759 53.3037L28.0052 53.4743C28.045 53.5141 28.0754 53.5836 28.0754 53.7058H28.3168ZM28.1759 53.3037C28.0707 53.1985 27.9063 53.1627 27.7209 53.1627V53.4041C27.8875 53.4041 27.9695 53.4387 28.0052 53.4743L28.1759 53.3037ZM27.7209 53.1627H27.4041V53.4041H27.7209V53.1627ZM27.5248 53.2834V52.9666H27.2834V53.2834H27.5248ZM27.4041 53.0873H30.5194V52.8459H27.4041V53.0873ZM30.5194 53.0873C31.3792 53.0873 32.0127 53.3105 32.4405 53.7384L32.6112 53.5677C32.1238 53.0803 31.4196 52.8459 30.5194 52.8459V53.0873ZM32.4473 53.7446C32.9125 54.1433 33.1444 54.655 33.1444 55.2899H33.3858C33.3858 54.587 33.1249 54.0075 32.6044 53.5614L32.4473 53.7446ZM33.1444 55.2899C33.1444 56.0709 32.8913 56.6488 32.3977 57.0437L32.5485 57.2322C33.1108 56.7823 33.3858 56.1281 33.3858 55.2899H33.1444ZM32.3945 57.0463C31.9255 57.4483 31.3556 57.6509 30.6778 57.6509V57.8922C31.408 57.8922 32.035 57.6724 32.5516 57.2296L32.3945 57.0463ZM30.6778 57.6509H29.041V57.8922H30.6778V57.6509ZM30.361 57.5754C30.9152 57.5754 31.4002 57.4084 31.8103 57.0729L31.6574 56.8861C31.293 57.1843 30.8628 57.334 30.361 57.334V57.5754ZM31.8063 57.0761C32.2713 56.7273 32.4881 56.1365 32.4881 55.3427H32.2468C32.2468 56.0976 32.0412 56.5982 31.6614 56.883L31.8063 57.0761ZM32.4881 55.3427C32.4881 54.6212 32.3079 54.0706 31.9202 53.7217L31.7587 53.9011C32.075 54.1858 32.2468 54.6561 32.2468 55.3427H32.4881ZM31.9291 53.7307C31.5793 53.3419 31.0099 53.1627 30.2554 53.1627V53.4041C30.9794 53.4041 31.466 53.5769 31.7497 53.8922L31.9291 53.7307ZM30.2554 53.1627H29.5162V53.4041H30.2554V53.1627ZM29.5162 53.1627C29.3542 53.1627 29.2072 53.2035 29.0796 53.2886L29.2135 53.4894C29.2971 53.4337 29.3965 53.4041 29.5162 53.4041V53.1627ZM29.0612 53.3037C28.9602 53.4047 28.9203 53.5464 28.9203 53.7058H29.1616C29.1616 53.5836 29.1921 53.5141 29.2319 53.4743L29.0612 53.3037ZM28.9203 53.7058V57.4547H29.1616V53.7058H28.9203ZM29.041 57.5754H30.361V57.334H29.041V57.5754ZM38.6107 58.6164L38.7284 58.5896L38.7071 58.4957H38.6107V58.6164ZM36.2347 58.6164V58.4957H36.1392L36.1172 58.5886L36.2347 58.6164ZM35.7594 60.6228L35.6419 60.595L35.6411 60.5992L35.7594 60.6228ZM35.7594 61.4677L35.6424 61.4969L35.6456 61.5098L35.6515 61.5216L35.7594 61.4677ZM36.3931 61.6789H36.5138V61.5582H36.3931V61.6789ZM36.3931 61.9957V62.1164H36.5138V61.9957H36.3931ZM34.4394 61.9957H34.3187V62.1164H34.4394V61.9957ZM34.4394 61.6789V61.5582H34.3187V61.6789H34.4394ZM34.9674 61.5733L35.0344 61.6737L35.0443 61.6671L35.0528 61.6586L34.9674 61.5733ZM35.1786 61.0981L35.0613 61.0681L35.0596 61.0782L35.1786 61.0981ZM37.2379 53.0194L37.1997 52.9049L37.1372 52.9257L37.1209 52.9896L37.2379 53.0194ZM38.0299 52.7554L38.1473 52.7272L38.1165 52.5993L37.9918 52.6409L38.0299 52.7554ZM40.0364 61.0981L39.9186 61.1264L39.9219 61.1362L40.0364 61.0981ZM40.3004 61.5733L40.215 61.6586L40.2235 61.6671L40.2334 61.6737L40.3004 61.5733ZM40.8284 61.6789H40.9491V61.5582H40.8284V61.6789ZM40.8284 61.9957V62.1164H40.9491V61.9957H40.8284ZM38.5579 61.9957H38.4372V62.1164H38.5579V61.9957ZM38.5579 61.6789V61.5582H38.4372V61.6789H38.5579ZM39.1388 61.5733L39.2467 61.6272L39.2505 61.6196L39.2532 61.6114L39.1388 61.5733ZM39.1388 60.9397L39.0205 60.9665L39.0243 60.9778L39.1388 60.9397ZM37.5019 53.917L37.6192 53.8888L37.597 53.7963H37.5019V53.917ZM37.4491 53.917V53.7963H37.3551L37.3321 53.8874L37.4491 53.917ZM36.3403 58.2996L36.2233 58.27L36.1852 58.4203H36.3403V58.2996ZM38.5579 58.2996V58.4203H38.7112L38.6753 58.2713L38.5579 58.2996ZM38.6107 58.4957H36.2347V58.7371H38.6107V58.4957ZM36.1172 58.5886L35.642 60.595L35.8769 60.6507L36.3521 58.6442L36.1172 58.5886ZM35.6411 60.5992C35.6053 60.7784 35.5859 60.9281 35.5859 61.0453H35.8273C35.8273 60.9512 35.8432 60.8193 35.8778 60.6465L35.6411 60.5992ZM35.5859 61.0453C35.5859 61.1962 35.6048 61.3469 35.6424 61.4969L35.8765 61.4384C35.8436 61.3069 35.8273 61.1759 35.8273 61.0453H35.5859ZM35.6515 61.5216C35.7525 61.7237 35.9709 61.7996 36.2347 61.7996V61.5582C36.0056 61.5582 35.9072 61.4933 35.8674 61.4137L35.6515 61.5216ZM36.2347 61.7996H36.3931V61.5582H36.2347V61.7996ZM36.2724 61.6789V61.9957H36.5138V61.6789H36.2724ZM36.3931 61.875H34.4394V62.1164H36.3931V61.875ZM34.5601 61.9957V61.6789H34.3187V61.9957H34.5601ZM34.4394 61.7996H34.5978V61.5582H34.4394V61.7996ZM34.5978 61.7996C34.7597 61.7996 34.9068 61.7587 35.0344 61.6737L34.9005 61.4729C34.8168 61.5286 34.7175 61.5582 34.5978 61.5582V61.7996ZM35.0528 61.6586C35.1824 61.529 35.2601 61.3436 35.2977 61.1179L35.0596 61.0782C35.0268 61.275 34.9637 61.4063 34.8821 61.4879L35.0528 61.6586ZM35.2956 61.1279L37.3548 53.0492L37.1209 52.9896L35.0617 61.0682L35.2956 61.1279ZM37.2761 53.1339L38.0681 52.8699L37.9918 52.6409L37.1997 52.9049L37.2761 53.1339ZM37.9126 52.7836L39.919 61.1263L40.1537 61.0698L38.1473 52.7272L37.9126 52.7836ZM39.9219 61.1362C39.9955 61.3572 40.0913 61.5349 40.215 61.6586L40.3857 61.4879C40.2983 61.4005 40.218 61.2613 40.1509 61.0599L39.9219 61.1362ZM40.2334 61.6737C40.361 61.7587 40.5081 61.7996 40.67 61.7996V61.5582C40.5503 61.5582 40.451 61.5286 40.3673 61.4729L40.2334 61.6737ZM40.67 61.7996H40.8284V61.5582H40.67V61.7996ZM40.7077 61.6789V61.9957H40.9491V61.6789H40.7077ZM40.8284 61.875H38.5579V62.1164H40.8284V61.875ZM38.6786 61.9957V61.6789H38.4372V61.9957H38.6786ZM38.5579 61.7996H38.7691V61.5582H38.5579V61.7996ZM38.7691 61.7996C38.8797 61.7996 38.976 61.7905 39.0531 61.7685C39.1275 61.7473 39.2067 61.7072 39.2467 61.6272L39.0308 61.5193C39.0356 61.5098 39.0356 61.5225 38.9868 61.5364C38.9407 61.5496 38.8698 61.5582 38.7691 61.5582V61.7996ZM39.2532 61.6114C39.2905 61.4998 39.3122 61.3979 39.3122 61.3093H39.0709C39.0709 61.3614 39.0574 61.4355 39.0243 61.5351L39.2532 61.6114ZM39.3122 61.3093C39.3122 61.1588 39.2935 61.0222 39.2532 60.9015L39.0243 60.9778C39.0544 61.0684 39.0709 61.1782 39.0709 61.3093H39.3122ZM39.2564 60.9129L38.7284 58.5896L38.493 58.6431L39.0211 60.9664L39.2564 60.9129ZM37.5019 53.7963H37.4491V54.0377H37.5019V53.7963ZM37.3321 53.8874L36.2233 58.27L36.4573 58.3292L37.5661 53.9466L37.3321 53.8874ZM36.3403 58.4203H38.5579V58.1789H36.3403V58.4203ZM38.6753 58.2713L37.6192 53.8888L37.3846 53.9453L38.4406 58.3278L38.6753 58.2713ZM45.6988 57.4019L45.6818 57.2825L45.529 57.3043L45.587 57.4473L45.6988 57.4019ZM47.2829 61.3093L47.1707 61.3547L47.1749 61.3632L47.2829 61.3093ZM47.4941 61.6261L47.4088 61.7114L47.4289 61.7316L47.4559 61.7406L47.4941 61.6261ZM48.1277 61.6789H48.2484V61.5582H48.1277V61.6789ZM48.1277 61.9957V62.1164H48.2484V61.9957H48.1277ZM46.6493 61.9957L46.5366 62.0389L46.5663 62.1164H46.6493V61.9957ZM44.9068 57.4547L45.0195 57.4115L44.9898 57.334H44.9068V57.4547ZM43.6924 57.4547V57.334H43.5717V57.4547H43.6924ZM43.798 61.5733L43.7126 61.6586L43.7211 61.6671L43.731 61.6737L43.798 61.5733ZM44.4844 61.6789H44.6051V61.5582H44.4844V61.6789ZM44.4844 61.9957V62.1164H44.6051V61.9957H44.4844ZM42.0555 61.9957H41.9348V62.1164H42.0555V61.9957ZM42.0555 61.6789V61.5582H41.9348V61.6789H42.0555ZM42.0555 53.2834H41.9348V53.4041H42.0555V53.2834ZM42.0555 52.9666V52.8459H41.9348V52.9666H42.0555ZM46.9133 53.4946L46.836 53.5874L46.8397 53.5903L46.9133 53.4946ZM43.6924 57.1379H43.5717V57.2586H43.6924V57.1379ZM46.2269 53.8114L46.137 53.8923L46.1415 53.8968L46.2269 53.8114ZM43.798 53.389L43.731 53.2886L43.7211 53.2952L43.7126 53.3037L43.798 53.389ZM47.479 55.0787C47.479 55.7602 47.2922 56.2716 46.9335 56.6302L47.1042 56.8009C47.52 56.385 47.7204 55.8051 47.7204 55.0787H47.479ZM46.9335 56.6302C46.5628 57.0009 46.1461 57.2161 45.6818 57.2825L45.7159 57.5214C46.2372 57.4469 46.7005 57.2046 47.1042 56.8009L46.9335 56.6302ZM45.587 57.4473L47.171 61.3546L47.3947 61.2639L45.8107 57.3566L45.587 57.4473ZM47.1749 61.3632C47.2482 61.5097 47.3254 61.6281 47.4088 61.7114L47.5794 61.5407C47.5219 61.4832 47.4584 61.3904 47.3908 61.2553L47.1749 61.3632ZM47.4559 61.7406C47.5732 61.7797 47.6916 61.7996 47.8109 61.7996V61.5582C47.719 61.5582 47.6262 61.5429 47.5323 61.5116L47.4559 61.7406ZM47.8109 61.7996H48.1277V61.5582H47.8109V61.7996ZM48.007 61.6789V61.9957H48.2484V61.6789H48.007ZM48.1277 61.875H46.6493V62.1164H48.1277V61.875ZM46.7619 61.9524L45.0195 57.4115L44.7941 57.498L46.5366 62.0389L46.7619 61.9524ZM44.9068 57.334H43.6924V57.5754H44.9068V57.334ZM43.5717 57.4547V61.2565H43.8131V57.4547H43.5717ZM43.5717 61.2565C43.5717 61.4159 43.6116 61.5576 43.7126 61.6586L43.8833 61.4879C43.8435 61.4481 43.8131 61.3787 43.8131 61.2565H43.5717ZM43.731 61.6737C43.8586 61.7587 44.0057 61.7996 44.1676 61.7996V61.5582C44.0479 61.5582 43.9486 61.5286 43.8649 61.4729L43.731 61.6737ZM44.1676 61.7996H44.4844V61.5582H44.1676V61.7996ZM44.3637 61.6789V61.9957H44.6051V61.6789H44.3637ZM44.4844 61.875H42.0555V62.1164H44.4844V61.875ZM42.1762 61.9957V61.6789H41.9348V61.9957H42.1762ZM42.0555 61.7996H42.3723V61.5582H42.0555V61.7996ZM42.3723 61.7996C42.5577 61.7996 42.7221 61.7638 42.8273 61.6586L42.6566 61.4879C42.6209 61.5236 42.539 61.5582 42.3723 61.5582V61.7996ZM42.8273 61.6586C42.9283 61.5576 42.9682 61.4159 42.9682 61.2565H42.7269C42.7269 61.3787 42.6964 61.4481 42.6566 61.4879L42.8273 61.6586ZM42.9682 61.2565V53.7058H42.7269V61.2565H42.9682ZM42.9682 53.7058C42.9682 53.5464 42.9283 53.4047 42.8273 53.3037L42.6566 53.4743C42.6964 53.5141 42.7269 53.5836 42.7269 53.7058H42.9682ZM42.8273 53.3037C42.7221 53.1985 42.5577 53.1627 42.3723 53.1627V53.4041C42.539 53.4041 42.6209 53.4387 42.6566 53.4743L42.8273 53.3037ZM42.3723 53.1627H42.0555V53.4041H42.3723V53.1627ZM42.1762 53.2834V52.9666H41.9348V53.2834H42.1762ZM42.0555 53.0873H45.0652V52.8459H42.0555V53.0873ZM45.0652 53.0873C45.8595 53.0873 46.4435 53.2602 46.836 53.5873L46.9905 53.4019C46.5382 53.025 45.8901 52.8459 45.0652 52.8459V53.0873ZM46.8397 53.5903C47.261 53.9144 47.479 54.403 47.479 55.0787H47.7204C47.7204 54.3463 47.4807 53.7789 46.9869 53.3989L46.8397 53.5903ZM43.6924 57.2586H44.854V57.0172H43.6924V57.2586ZM44.854 57.2586C45.4082 57.2586 45.878 57.0915 46.2548 56.7524L46.0933 56.573C45.7661 56.8675 45.3559 57.0172 44.854 57.0172V57.2586ZM46.2548 56.7524C46.6413 56.4045 46.8228 55.8728 46.8228 55.1843H46.5814C46.5814 55.8334 46.4108 56.2873 46.0933 56.573L46.2548 56.7524ZM46.8228 55.1843C46.8228 54.5649 46.6584 54.0723 46.3122 53.7261L46.1415 53.8968C46.4289 54.1841 46.5814 54.6068 46.5814 55.1843H46.8228ZM46.3166 53.7307C45.9687 53.3442 45.4369 53.1627 44.7484 53.1627V53.4041C45.3975 53.4041 45.8514 53.5747 46.1371 53.8922L46.3166 53.7307ZM44.7484 53.1627H44.1676V53.4041H44.7484V53.1627ZM44.1676 53.1627C44.0057 53.1627 43.8586 53.2035 43.731 53.2886L43.8649 53.4894C43.9486 53.4337 44.0479 53.4041 44.1676 53.4041V53.1627ZM43.7126 53.3037C43.6116 53.4047 43.5717 53.5464 43.5717 53.7058H43.8131C43.8131 53.5836 43.8435 53.5141 43.8833 53.4743L43.7126 53.3037ZM43.5717 53.7058V57.1379H43.8131V53.7058H43.5717ZM53.2094 58.6164L53.327 58.5896L53.3057 58.4957H53.2094V58.6164ZM50.8333 58.6164V58.4957H50.7378L50.7158 58.5886L50.8333 58.6164ZM50.3581 60.6228L50.2406 60.595L50.2397 60.5992L50.3581 60.6228ZM50.3581 61.4677L50.241 61.4969L50.2442 61.5098L50.2501 61.5216L50.3581 61.4677ZM50.9917 61.6789H51.1124V61.5582H50.9917V61.6789ZM50.9917 61.9957V62.1164H51.1124V61.9957H50.9917ZM49.038 61.9957H48.9173V62.1164H49.038V61.9957ZM49.038 61.6789V61.5582H48.9173V61.6789H49.038ZM49.566 61.5733L49.633 61.6737L49.6429 61.6671L49.6514 61.6586L49.566 61.5733ZM49.7772 61.0981L49.6599 61.0681L49.6582 61.0782L49.7772 61.0981ZM51.8365 53.0194L51.7983 52.9049L51.7358 52.9257L51.7196 52.9896L51.8365 53.0194ZM52.6285 52.7554L52.7459 52.7272L52.7151 52.5993L52.5904 52.6409L52.6285 52.7554ZM54.635 61.0981L54.5172 61.1264L54.5205 61.1362L54.635 61.0981ZM54.899 61.5733L54.8137 61.6586L54.8221 61.6671L54.8321 61.6737L54.899 61.5733ZM55.427 61.6789H55.5477V61.5582H55.427V61.6789ZM55.427 61.9957V62.1164H55.5477V61.9957H55.427ZM53.1566 61.9957H53.0359V62.1164H53.1566V61.9957ZM53.1566 61.6789V61.5582H53.0359V61.6789H53.1566ZM53.7374 61.5733L53.8453 61.6272L53.8492 61.6196L53.8519 61.6114L53.7374 61.5733ZM53.7374 60.9397L53.6191 60.9665L53.6229 60.9778L53.7374 60.9397ZM52.1005 53.917L52.2179 53.8888L52.1956 53.7963H52.1005V53.917ZM52.0477 53.917V53.7963H51.9538L51.9307 53.8874L52.0477 53.917ZM50.9389 58.2996L50.8219 58.27L50.7839 58.4203H50.9389V58.2996ZM53.1566 58.2996V58.4203H53.3098L53.2739 58.2713L53.1566 58.2996ZM53.2094 58.4957H50.8333V58.7371H53.2094V58.4957ZM50.7158 58.5886L50.2406 60.595L50.4755 60.6507L50.9507 58.6442L50.7158 58.5886ZM50.2397 60.5992C50.2039 60.7784 50.1846 60.9281 50.1846 61.0453H50.426C50.426 60.9512 50.4418 60.8193 50.4764 60.6465L50.2397 60.5992ZM50.1846 61.0453C50.1846 61.1962 50.2035 61.3469 50.241 61.4969L50.4751 61.4384C50.4423 61.3069 50.426 61.1759 50.426 61.0453H50.1846ZM50.2501 61.5216C50.3511 61.7237 50.5695 61.7996 50.8333 61.7996V61.5582C50.6043 61.5582 50.5058 61.4933 50.466 61.4137L50.2501 61.5216ZM50.8333 61.7996H50.9917V61.5582H50.8333V61.7996ZM50.871 61.6789V61.9957H51.1124V61.6789H50.871ZM50.9917 61.875H49.038V62.1164H50.9917V61.875ZM49.1587 61.9957V61.6789H48.9173V61.9957H49.1587ZM49.038 61.7996H49.1964V61.5582H49.038V61.7996ZM49.1964 61.7996C49.3583 61.7996 49.5054 61.7587 49.633 61.6737L49.4991 61.4729C49.4155 61.5286 49.3161 61.5582 49.1964 61.5582V61.7996ZM49.6514 61.6586C49.781 61.529 49.8587 61.3436 49.8963 61.1179L49.6582 61.0782C49.6254 61.275 49.5623 61.4063 49.4807 61.4879L49.6514 61.6586ZM49.8942 61.1279L51.9535 53.0492L51.7196 52.9896L49.6603 61.0682L49.8942 61.1279ZM51.8747 53.1339L52.6667 52.8699L52.5904 52.6409L51.7983 52.9049L51.8747 53.1339ZM52.5112 52.7836L54.5177 61.1263L54.7523 61.0698L52.7459 52.7272L52.5112 52.7836ZM54.5205 61.1362C54.5942 61.3572 54.6899 61.5349 54.8137 61.6586L54.9844 61.4879C54.8969 61.4005 54.8166 61.2613 54.7495 61.0599L54.5205 61.1362ZM54.8321 61.6737C54.9596 61.7587 55.1067 61.7996 55.2686 61.7996V61.5582C55.1489 61.5582 55.0496 61.5286 54.966 61.4729L54.8321 61.6737ZM55.2686 61.7996H55.427V61.5582H55.2686V61.7996ZM55.3063 61.6789V61.9957H55.5477V61.6789H55.3063ZM55.427 61.875H53.1566V62.1164H55.427V61.875ZM53.2772 61.9957V61.6789H53.0359V61.9957H53.2772ZM53.1566 61.7996H53.3678V61.5582H53.1566V61.7996ZM53.3678 61.7996C53.4783 61.7996 53.5746 61.7905 53.6517 61.7685C53.7261 61.7473 53.8054 61.7072 53.8453 61.6272L53.6294 61.5193C53.6342 61.5098 53.6343 61.5225 53.5854 61.5364C53.5393 61.5496 53.4684 61.5582 53.3678 61.5582V61.7996ZM53.8519 61.6114C53.8891 61.4998 53.9109 61.3979 53.9109 61.3093H53.6695C53.6695 61.3614 53.6561 61.4355 53.6229 61.5351L53.8519 61.6114ZM53.9109 61.3093C53.9109 61.1588 53.8921 61.0222 53.8519 60.9015L53.6229 60.9778C53.6531 61.0684 53.6695 61.1782 53.6695 61.3093H53.9109ZM53.8551 60.9129L53.327 58.5896L53.0917 58.6431L53.6197 60.9664L53.8551 60.9129ZM52.1005 53.7963H52.0477V54.0377H52.1005V53.7963ZM51.9307 53.8874L50.8219 58.27L51.0559 58.3292L52.1647 53.9466L51.9307 53.8874ZM50.9389 58.4203H53.1566V58.1789H50.9389V58.4203ZM53.2739 58.2713L52.2179 53.8888L51.9832 53.9453L53.0392 58.3278L53.2739 58.2713ZM60.8255 54.2338L60.7276 54.3045L60.7296 54.3071L60.8255 54.2338ZM58.3438 53.389L58.2898 53.2811L58.2831 53.2844L58.2768 53.2886L58.3438 53.389ZM60.7199 60.834L60.808 60.9166L60.8104 60.9139L60.7199 60.834ZM56.5485 53.2834H56.4278V53.4041H56.5485V53.2834ZM56.5485 52.9666V52.8459H56.4278V52.9666H56.5485ZM61.5119 54.0226L61.4222 54.1034L61.4244 54.1058L61.5119 54.0226ZM61.5647 60.8869L61.6564 60.9654L61.6581 60.9633L61.5647 60.8869ZM56.4957 61.9957H56.375V62.1164H56.4957V61.9957ZM56.4957 61.6789V61.5582H56.375V61.6789H56.4957ZM61.6326 57.4019C61.6326 55.8842 61.4048 54.7927 60.9213 54.1605L60.7296 54.3071C61.1614 54.8718 61.3912 55.8924 61.3912 57.4019H61.6326ZM60.9233 54.1632C60.4421 53.4968 59.7714 53.1627 58.9246 53.1627V53.4041C59.6971 53.4041 60.2937 53.7036 60.7276 54.3045L60.9233 54.1632ZM58.9246 53.1627C58.669 53.1627 58.4542 53.1989 58.2898 53.2811L58.3978 53.497C58.515 53.4383 58.6874 53.4041 58.9246 53.4041V53.1627ZM58.2768 53.2886C58.1336 53.3841 58.0647 53.5299 58.0647 53.7058H58.3061C58.3061 53.6002 58.3428 53.5347 58.4107 53.4894L58.2768 53.2886ZM58.0647 53.7058V61.2565H58.3061V53.7058H58.0647ZM58.0647 61.2565C58.0647 61.4324 58.1336 61.5782 58.2768 61.6737L58.4107 61.4729C58.3428 61.4276 58.3061 61.3621 58.3061 61.2565H58.0647ZM58.2768 61.6737C58.4086 61.7615 58.5753 61.7996 58.7662 61.7996V61.5582C58.6051 61.5582 58.4902 61.5258 58.4107 61.4729L58.2768 61.6737ZM58.7662 61.7996C59.5739 61.7996 60.257 61.5042 60.8079 60.9166L60.6318 60.7515C60.1267 61.2903 59.5074 61.5582 58.7662 61.5582V61.7996ZM60.8104 60.9139C61.0924 60.5942 61.2969 60.1374 61.4315 59.5543C61.5662 58.9705 61.6326 58.2523 61.6326 57.4019H61.3912C61.3912 58.2412 61.3256 58.9399 61.1963 59.5001C61.0668 60.0611 60.8753 60.4755 60.6294 60.7542L60.8104 60.9139ZM57.4613 53.7058C57.4613 53.5464 57.4213 53.4047 57.3203 53.3037L57.1496 53.4743C57.1894 53.5141 57.2199 53.5836 57.2199 53.7058H57.4613ZM57.3203 53.3037C57.2151 53.1985 57.0507 53.1627 56.8653 53.1627V53.4041C57.032 53.4041 57.114 53.4387 57.1496 53.4743L57.3203 53.3037ZM56.8653 53.1627H56.5485V53.4041H56.8653V53.1627ZM56.6692 53.2834V52.9666H56.4278V53.2834H56.6692ZM56.5485 53.0873H58.9246V52.8459H56.5485V53.0873ZM58.9246 53.0873C59.9874 53.0873 60.815 53.4287 61.4222 54.1034L61.6016 53.9419C60.9415 53.2085 60.0443 52.8459 58.9246 52.8459V53.0873ZM61.4244 54.1058C62.0631 54.7781 62.3944 55.8331 62.3944 57.2963H62.6358C62.6358 55.8027 62.2983 54.6752 61.5994 53.9395L61.4244 54.1058ZM62.3944 57.2963C62.3944 58.9038 62.0793 60.0674 61.4713 60.8104L61.6581 60.9633C62.3174 60.1575 62.6358 58.9274 62.6358 57.2963H62.3944ZM61.4731 60.8083C60.8682 61.514 59.9731 61.875 58.7662 61.875V62.1164C60.0234 62.1164 60.9939 61.7382 61.6563 60.9654L61.4731 60.8083ZM58.7662 61.875H56.4957V62.1164H58.7662V61.875ZM56.6164 61.9957V61.6789H56.375V61.9957H56.6164ZM56.4957 61.7996H56.8653V61.5582H56.4957V61.7996ZM56.8653 61.7996C57.0507 61.7996 57.2151 61.7638 57.3203 61.6586L57.1496 61.4879C57.114 61.5236 57.032 61.5582 56.8653 61.5582V61.7996ZM57.3203 61.6586C57.4213 61.5576 57.4613 61.4159 57.4613 61.2565H57.2199C57.2199 61.3787 57.1894 61.4481 57.1496 61.4879L57.3203 61.6586ZM57.4613 61.2565V53.7058H57.2199V61.2565H57.4613ZM64.7983 53.2834H64.6776V53.4041H64.7983V53.2834ZM64.7983 52.9666V52.8459H64.6776V52.9666H64.7983ZM69.0224 52.9666H69.1431V52.8459H69.0224V52.9666ZM69.0224 53.2834V53.4041H69.1431V53.2834H69.0224ZM67.4384 53.389L67.3714 53.2886L67.3615 53.2952L67.353 53.3037L67.4384 53.389ZM67.4384 61.5733L67.353 61.6586L67.3615 61.6671L67.3714 61.6737L67.4384 61.5733ZM69.0224 61.6789H69.1431V61.5582H69.0224V61.6789ZM69.0224 61.9957V62.1164H69.1431V61.9957H69.0224ZM64.7983 61.9957H64.6776V62.1164H64.7983V61.9957ZM64.7983 61.6789V61.5582H64.6776V61.6789H64.7983ZM64.919 53.2834V52.9666H64.6776V53.2834H64.919ZM64.7983 53.0873H69.0224V52.8459H64.7983V53.0873ZM68.9017 52.9666V53.2834H69.1431V52.9666H68.9017ZM69.0224 53.1627H67.808V53.4041H69.0224V53.1627ZM67.808 53.1627C67.6461 53.1627 67.499 53.2035 67.3714 53.2886L67.5053 53.4894C67.5889 53.4337 67.6883 53.4041 67.808 53.4041V53.1627ZM67.353 53.3037C67.252 53.4047 67.2121 53.5464 67.2121 53.7058H67.4534C67.4534 53.5836 67.4839 53.5141 67.5237 53.4743L67.353 53.3037ZM67.2121 53.7058V61.2565H67.4534V53.7058H67.2121ZM67.2121 61.2565C67.2121 61.4159 67.252 61.5576 67.353 61.6586L67.5237 61.4879C67.4839 61.4481 67.4534 61.3787 67.4534 61.2565H67.2121ZM67.3714 61.6737C67.499 61.7587 67.6461 61.7996 67.808 61.7996V61.5582C67.6883 61.5582 67.5889 61.5286 67.5053 61.4729L67.3714 61.6737ZM67.808 61.7996H69.0224V61.5582H67.808V61.7996ZM68.9017 61.6789V61.9957H69.1431V61.6789H68.9017ZM69.0224 61.875H64.7983V62.1164H69.0224V61.875ZM64.919 61.9957V61.6789H64.6776V61.9957H64.919ZM64.7983 61.7996H66.0127V61.5582H64.7983V61.7996ZM66.0127 61.7996C66.1981 61.7996 66.3625 61.7638 66.4677 61.6586L66.297 61.4879C66.2613 61.5236 66.1793 61.5582 66.0127 61.5582V61.7996ZM66.4677 61.6586C66.5687 61.5576 66.6086 61.4159 66.6086 61.2565H66.3672C66.3672 61.3787 66.3368 61.4481 66.297 61.4879L66.4677 61.6586ZM66.6086 61.2565V53.7058H66.3672V61.2565H66.6086ZM66.6086 53.7058C66.6086 53.5464 66.5687 53.4047 66.4677 53.3037L66.297 53.4743C66.3368 53.5141 66.3672 53.5836 66.3672 53.7058H66.6086ZM66.4677 53.3037C66.3625 53.1985 66.1981 53.1627 66.0127 53.1627V53.4041C66.1793 53.4041 66.2613 53.4387 66.297 53.4743L66.4677 53.3037ZM66.0127 53.1627H64.7983V53.4041H66.0127V53.1627ZM73.9985 57.6659L74.048 57.5559L74.0475 57.5557L73.9985 57.6659ZM72.1504 53.6002L72.062 53.5181L72.0617 53.5184L72.1504 53.6002ZM75.0545 53.0194L75.1037 52.9086L75.0927 52.9049L75.0545 53.0194ZM76.0049 53.1778L76.0589 53.2857L76.0656 53.2824L76.0719 53.2782L76.0049 53.1778ZM76.2689 52.861L76.389 52.8493L76.3484 52.4322L76.161 52.807L76.2689 52.861ZM76.4801 55.0259L76.525 55.1379L76.609 55.1043L76.6003 55.0141L76.4801 55.0259ZM76.2161 55.1315L76.1052 55.179L76.1516 55.2873L76.2609 55.2435L76.2161 55.1315ZM75.2129 53.653L75.1322 53.7438L75.1437 53.7519L75.2129 53.653ZM72.5728 53.8114L72.6718 53.8807L72.6746 53.8762L72.5728 53.8114ZM72.52 55.9235L72.4284 56.002L72.4344 56.0091L72.4415 56.0151L72.52 55.9235ZM74.4209 56.9267L74.3715 57.0369L74.3744 57.0381L74.4209 56.9267ZM76.2161 58.1412L76.1201 58.215L76.1272 58.2227L76.2161 58.1412ZM76.1105 61.3621L76.022 61.2799L76.0189 61.2835L76.1105 61.3621ZM73.2592 61.8901L73.3132 61.7821L73.3055 61.7783L73.2974 61.7756L73.2592 61.8901ZM71.8336 62.1013L71.7145 62.1207L71.7466 62.3174L71.906 62.1978L71.8336 62.1013ZM71.4112 59.514L71.373 59.3995L71.2755 59.432L71.2921 59.5335L71.4112 59.514ZM71.728 59.4084L71.8442 59.3759L71.81 59.2538L71.6898 59.2939L71.728 59.4084ZM72.7312 61.2565L72.6536 61.3495L72.6625 61.3557L72.7312 61.2565ZM75.5825 61.2037L75.4926 61.1228L75.4883 61.1283L75.5825 61.2037ZM75.5297 58.6692L75.4395 58.7504L75.449 58.7589L75.5297 58.6692ZM74.0475 57.5557C73.0982 57.1337 72.4623 56.7705 72.1255 56.4674L71.9641 56.6468C72.3313 56.9774 72.9979 57.3533 73.9494 57.7762L74.0475 57.5557ZM72.1255 56.4674C71.808 56.1817 71.6375 55.7278 71.6375 55.0787H71.3961C71.3961 55.7672 71.5775 56.2989 71.9641 56.6468L72.1255 56.4674ZM71.6375 55.0787C71.6375 54.5863 71.8333 54.1216 72.2391 53.6821L72.0617 53.5184C71.6226 53.994 71.3961 54.515 71.3961 55.0787H71.6375ZM72.2388 53.6823C72.669 53.2191 73.2678 52.9817 74.0513 52.9817V52.7403C73.2155 52.7403 72.547 52.9957 72.062 53.5181L72.2388 53.6823ZM74.0513 52.9817C74.391 52.9817 74.7125 53.0326 75.0163 53.1339L75.0927 52.9049C74.7629 52.795 74.4155 52.7403 74.0513 52.7403V52.9817ZM75.0055 53.1297C75.3215 53.2701 75.5716 53.3513 75.7409 53.3513V53.1099C75.6286 53.1099 75.4211 53.0503 75.1035 52.9091L75.0055 53.1297ZM75.7409 53.3513C75.8591 53.3513 75.967 53.3317 76.0589 53.2857L75.9509 53.0699C75.902 53.0943 75.8339 53.1099 75.7409 53.1099V53.3513ZM76.0719 53.2782C76.1987 53.1937 76.2993 53.0701 76.3769 52.915L76.161 52.807C76.0977 52.9335 76.0224 53.0211 75.938 53.0774L76.0719 53.2782ZM76.1488 52.8727L76.36 55.0376L76.6003 55.0141L76.389 52.8493L76.1488 52.8727ZM76.4353 54.9138L76.1713 55.0194L76.2609 55.2435L76.525 55.1379L76.4353 54.9138ZM76.3271 55.0839C76.0079 54.3393 75.6626 53.8205 75.2821 53.5541L75.1437 53.7519C75.4673 53.9784 75.7907 54.4452 76.1052 55.179L76.3271 55.0839ZM75.2931 53.5628C74.9491 53.2571 74.4957 53.1099 73.9457 53.1099V53.3513C74.4517 53.3513 74.843 53.4857 75.1327 53.7432L75.2931 53.5628ZM73.9457 53.1099C73.256 53.1099 72.7486 53.3103 72.471 53.7466L72.6746 53.8762C72.8898 53.5381 73.2977 53.3513 73.9457 53.3513V53.1099ZM72.4739 53.7422C72.2136 54.1141 72.0825 54.5254 72.0825 54.9731H72.3239C72.3239 54.5759 72.4392 54.2127 72.6717 53.8806L72.4739 53.7422ZM72.0825 54.9731C72.0825 55.3832 72.1949 55.7297 72.4284 56.002L72.6116 55.8449C72.4227 55.6245 72.3239 55.3373 72.3239 54.9731H72.0825ZM72.4415 56.0151C72.5757 56.1302 72.8061 56.2718 73.1237 56.4394C73.4437 56.6083 73.8599 56.8075 74.3715 57.0369L74.4702 56.8166C73.961 56.5883 73.55 56.3915 73.2364 56.226C72.9203 56.0592 72.7107 55.928 72.5985 55.8319L72.4415 56.0151ZM74.3744 57.0381C75.2101 57.3863 75.7867 57.7809 76.1205 58.2147L76.3118 58.0676C75.9415 57.5862 75.3213 57.1711 74.4673 56.8153L74.3744 57.0381ZM76.1272 58.2227C76.493 58.6218 76.6763 59.1027 76.6763 59.6724H76.9176C76.9176 59.0453 76.7137 58.5053 76.3051 58.0596L76.1272 58.2227ZM76.6763 59.6724C76.6763 60.2736 76.4604 60.8079 76.0221 61.2799L76.199 61.4442C76.6759 60.9306 76.9176 60.3385 76.9176 59.6724H76.6763ZM76.0189 61.2835C75.6259 61.742 75.0306 61.9806 74.2097 61.9806V62.222C75.0784 62.222 75.7503 61.9677 76.2022 61.4406L76.0189 61.2835ZM74.2097 61.9806C73.8741 61.9806 73.5762 61.9136 73.3132 61.7821L73.2053 61.998C73.5055 62.1482 73.8411 62.222 74.2097 62.222V61.9806ZM73.2974 61.7756C72.9772 61.6689 72.7159 61.611 72.52 61.611V61.8524C72.6761 61.8524 72.9076 61.9001 73.2211 62.0046L73.2974 61.7756ZM72.52 61.611C72.3861 61.611 72.2576 61.6559 72.1362 61.7369L72.2701 61.9377C72.36 61.8778 72.4427 61.8524 72.52 61.8524V61.611ZM72.1362 61.7369C72.0282 61.8089 71.9031 61.8983 71.7612 62.0047L71.906 62.1978C72.0456 62.0931 72.167 62.0065 72.2701 61.9377L72.1362 61.7369ZM71.9527 62.0818L71.5303 59.4946L71.2921 59.5335L71.7145 62.1207L71.9527 62.0818ZM71.4493 59.6285L71.7661 59.5229L71.6898 59.2939L71.373 59.3995L71.4493 59.6285ZM71.6118 59.4409C71.8608 60.3304 72.204 60.9742 72.6539 61.3492L72.8085 61.1637C72.4136 60.8347 72.088 60.2464 71.8442 59.3759L71.6118 59.4409ZM72.6625 61.3557C73.1406 61.6867 73.675 61.8524 74.2625 61.8524V61.611C73.7235 61.611 73.2371 61.4599 72.7999 61.1572L72.6625 61.3557ZM74.2625 61.8524C74.8847 61.8524 75.3652 61.6684 75.6767 61.2791L75.4883 61.1283C75.2366 61.4429 74.8371 61.611 74.2625 61.611V61.8524ZM75.6722 61.2844C76.0159 60.9026 76.1784 60.3588 76.1784 59.6724H75.937C75.937 60.3237 75.7828 60.8007 75.4928 61.1229L75.6722 61.2844ZM76.1784 59.6724C76.1784 59.2755 75.9787 58.9109 75.6104 58.5795L75.449 58.7589C75.7847 59.0611 75.937 59.3653 75.937 59.6724H76.1784ZM75.6194 58.5884C75.2865 58.2185 74.7588 57.8758 74.048 57.5559L73.9489 57.776C74.6461 58.0897 75.1393 58.4158 75.44 58.7499L75.6194 58.5884ZM78.5521 53.2834H78.4314V53.4041H78.5521V53.2834ZM78.5521 52.9666V52.8459H78.4314V52.9666H78.5521ZM83.7266 52.9666L83.8415 52.9294L83.8144 52.8459H83.7266V52.9666ZM84.3075 54.7619L84.3523 54.8739L84.457 54.832L84.4223 54.7247L84.3075 54.7619ZM84.0434 54.8675L83.937 54.9242L83.9879 55.0197L84.0883 54.9795L84.0434 54.8675ZM83.1458 53.7058L83.0655 53.7962L83.0717 53.8011L83.1458 53.7058ZM80.2417 53.389L80.1748 53.2886L80.1648 53.2952L80.1564 53.3037L80.2417 53.389ZM80.1361 56.9795H80.0154V57.1002H80.1361V56.9795ZM82.4066 56.7155L82.3207 56.6296L82.3124 56.6401L82.4066 56.7155ZM82.6706 55.6067V55.486H82.5499V55.6067H82.6706ZM82.9874 55.6067H83.1081V55.486H82.9874V55.6067ZM82.9874 58.722V58.8427H83.1081V58.722H82.9874ZM82.6706 58.722H82.5499V58.8427H82.6706V58.722ZM82.4066 57.6131L82.3056 57.6805L82.3139 57.6904L82.4066 57.6131ZM80.1361 57.2963V57.1756H80.0154V57.2963H80.1361ZM80.2417 61.5733L80.1564 61.6586L80.1648 61.6671L80.1748 61.6737L80.2417 61.5733ZM83.3042 61.2565L83.3796 61.3507L83.3807 61.3499L83.3042 61.2565ZM84.2019 59.8308L84.2467 59.7188L84.1278 59.6712L84.0874 59.7927L84.2019 59.8308ZM84.4659 59.9364L84.582 59.9692L84.6115 59.8647L84.5107 59.8244L84.4659 59.9364ZM83.885 61.9957V62.1164H83.9764L84.0012 62.0284L83.885 61.9957ZM78.4993 61.9957H78.3786V62.1164H78.4993V61.9957ZM78.4993 61.6789V61.5582H78.3786V61.6789H78.4993ZM78.6728 53.2834V52.9666H78.4314V53.2834H78.6728ZM78.5521 53.0873H83.7266V52.8459H78.5521V53.0873ZM83.6118 53.0037L84.1926 54.799L84.4223 54.7247L83.8415 52.9294L83.6118 53.0037ZM84.2626 54.6498L83.9986 54.7554L84.0883 54.9795L84.3523 54.8739L84.2626 54.6498ZM84.1499 54.8107C83.8639 54.2744 83.555 53.8712 83.2199 53.6105L83.0717 53.8011C83.3702 54.0333 83.6598 54.4045 83.937 54.9242L84.1499 54.8107ZM83.226 53.6156C82.8894 53.3164 82.5094 53.1627 82.0898 53.1627V53.4041C82.4445 53.4041 82.7687 53.532 83.0656 53.796L83.226 53.6156ZM82.0898 53.1627H80.6113V53.4041H82.0898V53.1627ZM80.6113 53.1627C80.4494 53.1627 80.3023 53.2035 80.1748 53.2886L80.3087 53.4894C80.3923 53.4337 80.4917 53.4041 80.6113 53.4041V53.1627ZM80.1564 53.3037C80.0554 53.4047 80.0154 53.5464 80.0154 53.7058H80.2568C80.2568 53.5836 80.2873 53.5141 80.3271 53.4743L80.1564 53.3037ZM80.0154 53.7058V56.9795H80.2568V53.7058H80.0154ZM80.1361 57.1002H81.6674V56.8588H80.1361V57.1002ZM81.6674 57.1002C82.0353 57.1002 82.3267 57.0086 82.5008 56.7909L82.3124 56.6401C82.2049 56.7745 82.0035 56.8588 81.6674 56.8588V57.1002ZM82.4919 56.8009C82.6986 56.5942 82.7913 56.2941 82.7913 55.9235H82.5499C82.5499 56.2569 82.4666 56.4848 82.3213 56.6302L82.4919 56.8009ZM82.7913 55.9235V55.6067H82.5499V55.9235H82.7913ZM82.6706 55.7274H82.9874V55.486H82.6706V55.7274ZM82.8667 55.6067V58.722H83.1081V55.6067H82.8667ZM82.9874 58.6013H82.6706V58.8427H82.9874V58.6013ZM82.7913 58.722V58.5108H82.5499V58.722H82.7913ZM82.7913 58.5108C82.7913 58.1067 82.6995 57.7762 82.4993 57.5359L82.3139 57.6904C82.4657 57.8726 82.5499 58.1404 82.5499 58.5108H82.7913ZM82.507 57.5462C82.3358 57.2894 82.0427 57.1756 81.6674 57.1756V57.417C81.9961 57.417 82.1958 57.5145 82.3062 57.6801L82.507 57.5462ZM81.6674 57.1756H80.1361V57.417H81.6674V57.1756ZM80.0154 57.2963V61.2565H80.2568V57.2963H80.0154ZM80.0154 61.2565C80.0154 61.4159 80.0554 61.5576 80.1564 61.6586L80.3271 61.4879C80.2873 61.4481 80.2568 61.3787 80.2568 61.2565H80.0154ZM80.1748 61.6737C80.3023 61.7587 80.4494 61.7996 80.6113 61.7996V61.5582C80.4917 61.5582 80.3923 61.5286 80.3087 61.4729L80.1748 61.6737ZM80.6113 61.7996H81.9842V61.5582H80.6113V61.7996ZM81.9842 61.7996C82.5347 61.7996 83.0027 61.6523 83.3796 61.3507L83.2288 61.1622C82.9018 61.4239 82.4897 61.5582 81.9842 61.5582V61.7996ZM83.3807 61.3499C83.7905 61.0145 84.1003 60.5172 84.3164 59.869L84.0874 59.7927C83.881 60.4117 83.5924 60.8648 83.2278 61.1631L83.3807 61.3499ZM84.157 59.9429L84.421 60.0485L84.5107 59.8244L84.2467 59.7188L84.157 59.9429ZM84.3497 59.9037L83.7689 61.9629L84.0012 62.0284L84.582 59.9692L84.3497 59.9037ZM83.885 61.875H78.4993V62.1164H83.885V61.875ZM78.62 61.9957V61.6789H78.3786V61.9957H78.62ZM78.4993 61.7996H78.8161V61.5582H78.4993V61.7996ZM78.8161 61.7996C79.0015 61.7996 79.1659 61.7638 79.271 61.6586L79.1004 61.4879C79.0647 61.5236 78.9827 61.5582 78.8161 61.5582V61.7996ZM79.271 61.6586C79.3721 61.5576 79.412 61.4159 79.412 61.2565H79.1706C79.1706 61.3787 79.1401 61.4481 79.1004 61.4879L79.271 61.6586ZM79.412 61.2565V53.7058H79.1706V61.2565H79.412ZM79.412 53.7058C79.412 53.5464 79.3721 53.4047 79.271 53.3037L79.1004 53.4743C79.1401 53.5141 79.1706 53.5836 79.1706 53.7058H79.412ZM79.271 53.3037C79.1659 53.1985 79.0015 53.1627 78.8161 53.1627V53.4041C78.9827 53.4041 79.0647 53.4387 79.1004 53.4743L79.271 53.3037ZM78.8161 53.1627H78.5521V53.4041H78.8161V53.1627Z" fill="#0E111A"/>
<path d="M40.1699 74.069V69.6131H42.0024C42.1907 69.6131 42.3622 69.6528 42.517 69.7323C42.676 69.8118 42.8141 69.9185 42.9312 70.0524C43.0484 70.1821 43.1384 70.3285 43.2011 70.4917C43.2681 70.6549 43.3015 70.8222 43.3015 70.9938C43.3015 71.2323 43.2471 71.4582 43.1384 71.6716C43.0338 71.8808 42.8873 72.0523 42.699 72.1862C42.5149 72.3201 42.2953 72.387 42.0401 72.387H40.4899V74.069H40.1699ZM40.4899 72.0921H42.0275C42.2242 72.0921 42.3936 72.0398 42.5359 71.9352C42.6781 71.8306 42.7869 71.6946 42.8622 71.5272C42.9375 71.3599 42.9752 71.1821 42.9752 70.9938C42.9752 70.7971 42.9292 70.6172 42.8371 70.4541C42.7492 70.2867 42.63 70.1528 42.4794 70.0524C42.3329 69.952 42.1698 69.9018 41.9899 69.9018H40.4899V72.0921ZM45.418 69.6131H45.6941L47.5769 74.069H47.238L46.6167 72.6004H44.4892L43.8679 74.069H43.5227L45.418 69.6131ZM46.5288 72.3368L45.5561 70.0022L44.5645 72.3368H46.5288ZM48.5171 74.069V69.6131H48.8371V73.6297L51.7617 69.6131H52.0629V74.069H51.7429V70.1152L48.8497 74.069H48.5171ZM50.2994 69.1989C50.1028 69.1989 49.9375 69.1717 49.8036 69.1173C49.6739 69.0587 49.5756 68.9834 49.5086 68.8914C49.4417 68.7951 49.4061 68.6905 49.402 68.5776H49.6655C49.6781 68.6822 49.7283 68.7784 49.8162 68.8663C49.904 68.9541 50.0651 68.9981 50.2994 68.9981C50.5253 68.9981 50.6843 68.9583 50.7764 68.8788C50.8684 68.7951 50.9186 68.6947 50.927 68.5776H51.1906C51.1822 68.6905 51.1446 68.7951 51.0776 68.8914C51.0107 68.9834 50.9123 69.0587 50.7826 69.1173C50.6529 69.1717 50.4919 69.1989 50.2994 69.1989ZM55.356 74.069V69.6131H58.6445V74.069H58.3245V69.9018H55.6761V74.069H55.356ZM61.4622 69.6131H61.7383L63.621 74.069H63.2822L62.6608 72.6004H60.5333L59.912 74.069H59.5668L61.4622 69.6131ZM62.573 72.3368L61.6002 70.0022L60.6086 72.3368H62.573ZM64.5486 74.069V69.6131H66.3812C66.5695 69.6131 66.741 69.6528 66.8958 69.7323C67.0548 69.8118 67.1929 69.9185 67.31 70.0524C67.4272 70.1821 67.5171 70.3285 67.5799 70.4917C67.6468 70.6549 67.6803 70.8222 67.6803 70.9938C67.6803 71.2323 67.6259 71.4582 67.5171 71.6716C67.4125 71.8808 67.2661 72.0523 67.0778 72.1862C66.8937 72.3201 66.6741 72.387 66.4189 72.387H64.8687V74.069H64.5486ZM64.8687 72.0921H66.4063C66.6029 72.0921 66.7724 72.0398 66.9146 71.9352C67.0569 71.8306 67.1657 71.6946 67.241 71.5272C67.3163 71.3599 67.354 71.1821 67.354 70.9938C67.354 70.7971 67.3079 70.6172 67.2159 70.4541C67.128 70.2867 67.0088 70.1528 66.8582 70.0524C66.7117 69.952 66.5486 69.9018 66.3686 69.9018H64.8687V72.0921ZM69.7968 69.6131H70.0729L71.9557 74.069H71.6168L70.9955 72.6004H68.868L68.2467 74.069H67.9015L69.7968 69.6131ZM70.9076 72.3368L69.9349 70.0022L68.9433 72.3368H70.9076Z" fill="#0E111A"/>
<path d="M55.8793 79.8965L57.3435 83.0709L60.8149 83.4825L58.2484 85.856L58.9297 89.2847L55.8793 87.5772L52.8289 89.2847L53.5102 85.856L50.9436 83.4825L54.4151 83.0709L55.8793 79.8965Z" fill="#0E111A"/>
<path d="M70 40.069H83.0345" stroke="black" stroke-width="0.241379"/>
<path d="M29.9311 40.069H42.9655" stroke="black" stroke-width="0.241379"/>
<path d="M70 43.931H83.0345" stroke="black" stroke-width="0.241379"/>
<path d="M29.9311 43.931H42.9655" stroke="black" stroke-width="0.241379"/>
<path fill-rule="evenodd" clip-rule="evenodd" d="M55.2759 43.931L66.6207 32.2241L61.5517 27.2759H49.1207L43.931 32.2241L55.2759 43.931ZM53.1831 30.5293V38.2414H54.6821V35.6562H56.5069C56.9921 35.6562 57.4121 35.5331 57.7669 35.2869C58.1217 35.0407 58.4005 34.7221 58.6033 34.331C58.806 33.94 58.9074 33.5272 58.9074 33.0928C58.9074 32.7741 58.8459 32.4628 58.7228 32.1586C58.5997 31.8545 58.4259 31.5793 58.2014 31.3331C57.9842 31.0869 57.7271 30.8914 57.4302 30.7466C57.1333 30.6017 56.8074 30.5293 56.4526 30.5293H53.1831ZM56.42 34.3419H54.6821V31.8436H56.3548C56.5359 31.8436 56.7024 31.8907 56.8545 31.9848C57.0138 32.079 57.1405 32.2202 57.2347 32.4085C57.336 32.5967 57.3867 32.8248 57.3867 33.0928C57.3867 33.339 57.3433 33.5598 57.2564 33.7553C57.1695 33.9436 57.0536 34.0885 56.9088 34.1898C56.764 34.2912 56.601 34.3419 56.42 34.3419Z" fill="#0E111A"/>
<path d="M125.266 42.7812V48.4531C125.266 48.6823 125.323 48.8542 125.438 48.9688C125.609 49.0833 125.81 49.1406 126.039 49.1406H126.641V49.6562H122.516V49.1406H123.117C123.404 49.1406 123.604 49.0833 123.719 48.9688C123.833 48.8542 123.891 48.6823 123.891 48.4531V36.1641C123.891 35.9349 123.833 35.763 123.719 35.6484C123.604 35.5339 123.404 35.4766 123.117 35.4766H122.602V34.9609H127.672C129.104 34.9609 130.193 35.3333 130.938 36.0781C131.74 36.7656 132.141 37.6536 132.141 38.7422C132.141 40.0599 131.711 41.0625 130.852 41.75C130.049 42.4375 129.076 42.7812 127.93 42.7812H125.266ZM127.414 42.2656C128.273 42.2656 129.018 42.0078 129.648 41.4922C130.336 40.9766 130.68 40.0885 130.68 38.8281C130.68 37.6823 130.393 36.8516 129.82 36.3359C129.305 35.763 128.445 35.4766 127.242 35.4766H126.039C125.81 35.4766 125.609 35.5339 125.438 35.6484C125.323 35.763 125.266 35.9349 125.266 36.1641V42.2656H127.414ZM139.961 44.1562H136.094L135.32 47.4219C135.263 47.7083 135.234 47.9375 135.234 48.1094C135.234 48.3385 135.263 48.5677 135.32 48.7969C135.435 49.026 135.693 49.1406 136.094 49.1406H136.352V49.6562H133.172V49.1406H133.43C133.659 49.1406 133.859 49.0833 134.031 48.9688C134.203 48.7969 134.318 48.5391 134.375 48.1953L137.727 35.0469L139.016 34.6172L142.281 48.1953C142.396 48.5391 142.539 48.7969 142.711 48.9688C142.883 49.0833 143.083 49.1406 143.312 49.1406H143.57V49.6562H139.875V49.1406H140.219C140.562 49.1406 140.763 49.0833 140.82 48.9688C140.878 48.7969 140.906 48.6536 140.906 48.5391C140.906 48.3099 140.878 48.1094 140.82 47.9375L139.961 44.1562ZM138.156 36.5078H138.07L136.266 43.6406H139.875L138.156 36.5078ZM153.711 38.3984C153.711 39.5443 153.396 40.4323 152.766 41.0625C152.135 41.6927 151.419 42.0651 150.617 42.1797L153.195 48.5391C153.31 48.7682 153.424 48.9401 153.539 49.0547C153.711 49.112 153.883 49.1406 154.055 49.1406H154.57V49.6562H152.164L149.328 42.2656H147.352V48.4531C147.352 48.6823 147.409 48.8542 147.523 48.9688C147.695 49.0833 147.896 49.1406 148.125 49.1406H148.641V49.6562H144.688V49.1406H145.203C145.49 49.1406 145.69 49.0833 145.805 48.9688C145.919 48.8542 145.977 48.6823 145.977 48.4531V36.1641C145.977 35.9349 145.919 35.763 145.805 35.6484C145.69 35.5339 145.49 35.4766 145.203 35.4766H144.688V34.9609H149.586C150.904 34.9609 151.906 35.2474 152.594 35.8203C153.339 36.3932 153.711 37.2526 153.711 38.3984ZM147.352 41.75H149.242C150.102 41.75 150.818 41.4922 151.391 40.9766C151.964 40.4609 152.25 39.6589 152.25 38.5703C152.25 37.5964 151.992 36.8516 151.477 36.3359C150.961 35.763 150.159 35.4766 149.07 35.4766H148.125C147.896 35.4766 147.695 35.5339 147.523 35.6484C147.409 35.763 147.352 35.9349 147.352 36.1641V41.75ZM161.961 44.1562H158.094L157.32 47.4219C157.263 47.7083 157.234 47.9375 157.234 48.1094C157.234 48.3385 157.263 48.5677 157.32 48.7969C157.435 49.026 157.693 49.1406 158.094 49.1406H158.352V49.6562H155.172V49.1406H155.43C155.659 49.1406 155.859 49.0833 156.031 48.9688C156.203 48.7969 156.318 48.5391 156.375 48.1953L159.727 35.0469L161.016 34.6172L164.281 48.1953C164.396 48.5391 164.539 48.7969 164.711 48.9688C164.883 49.0833 165.083 49.1406 165.312 49.1406H165.57V49.6562H161.875V49.1406H162.219C162.562 49.1406 162.763 49.0833 162.82 48.9688C162.878 48.7969 162.906 48.6536 162.906 48.5391C162.906 48.3099 162.878 48.1094 162.82 47.9375L161.961 44.1562ZM160.156 36.5078H160.07L158.266 43.6406H161.875L160.156 36.5078ZM174.594 42.1797C174.594 39.7161 174.221 37.9974 173.477 37.0234C172.732 35.9922 171.701 35.4766 170.383 35.4766C169.982 35.4766 169.667 35.5339 169.438 35.6484C169.266 35.763 169.18 35.9349 169.18 36.1641V48.4531C169.18 48.6823 169.266 48.8542 169.438 48.9688C169.609 49.0833 169.839 49.1406 170.125 49.1406C171.385 49.1406 172.445 48.6823 173.305 47.7656C174.164 46.7917 174.594 44.9297 174.594 42.1797ZM167.805 36.1641C167.805 35.9349 167.747 35.763 167.633 35.6484C167.518 35.5339 167.318 35.4766 167.031 35.4766H166.516V34.9609H170.383C172.159 34.9609 173.562 35.5339 174.594 36.6797C175.682 37.8255 176.227 39.6016 176.227 42.0078C176.227 44.6432 175.711 46.5911 174.68 47.8516C173.648 49.0547 172.13 49.6562 170.125 49.6562H166.43V49.1406H167.031C167.318 49.1406 167.518 49.0833 167.633 48.9688C167.747 48.8542 167.805 48.6823 167.805 48.4531V36.1641ZM179.062 35.4766V34.9609H185.938V35.4766H183.961C183.732 35.4766 183.531 35.5339 183.359 35.6484C183.245 35.763 183.188 35.9349 183.188 36.1641V48.4531C183.188 48.6823 183.245 48.8542 183.359 48.9688C183.531 49.0833 183.732 49.1406 183.961 49.1406H185.938V49.6562H179.062V49.1406H181.039C181.326 49.1406 181.526 49.0833 181.641 48.9688C181.755 48.8542 181.812 48.6823 181.812 48.4531V36.1641C181.812 35.9349 181.755 35.763 181.641 35.6484C181.526 35.5339 181.326 35.4766 181.039 35.4766H179.062ZM193.156 42.6094C191.609 41.9219 190.549 41.3203 189.977 40.8047C189.404 40.2891 189.117 39.487 189.117 38.3984C189.117 37.5391 189.461 36.737 190.148 35.9922C190.893 35.1901 191.924 34.7891 193.242 34.7891C193.815 34.7891 194.359 34.875 194.875 35.0469C195.391 35.276 195.763 35.3906 195.992 35.3906C196.164 35.3906 196.307 35.362 196.422 35.3047C196.594 35.1901 196.737 35.0182 196.852 34.7891L197.195 38.3125L196.766 38.4844C196.25 37.2812 195.706 36.4792 195.133 36.0781C194.617 35.6198 193.93 35.3906 193.07 35.3906C191.982 35.3906 191.237 35.7057 190.836 36.3359C190.435 36.9089 190.234 37.5391 190.234 38.2266C190.234 38.8568 190.406 39.3724 190.75 39.7734C191.151 40.1172 192.182 40.6615 193.844 41.4062C195.219 41.9792 196.193 42.638 196.766 43.3828C197.396 44.0703 197.711 44.901 197.711 45.875C197.711 46.9062 197.339 47.8229 196.594 48.625C195.906 49.4271 194.875 49.8281 193.5 49.8281C192.927 49.8281 192.411 49.7135 191.953 49.4844C191.438 49.3125 191.036 49.2266 190.75 49.2266C190.578 49.2266 190.406 49.2839 190.234 49.3984C190.062 49.513 189.862 49.6562 189.633 49.8281L188.945 45.6172L189.461 45.4453C189.862 46.8776 190.406 47.8802 191.094 48.4531C191.839 48.9688 192.669 49.2266 193.586 49.2266C194.56 49.2266 195.276 48.9401 195.734 48.3672C196.25 47.7943 196.508 46.9635 196.508 45.875C196.508 45.3021 196.221 44.7578 195.648 44.2422C195.133 43.6693 194.302 43.125 193.156 42.6094ZM199.688 35.4766V34.9609H208.109L209.055 37.8828L208.625 38.0547C208.167 37.1953 207.68 36.5651 207.164 36.1641C206.648 35.7057 206.076 35.4766 205.445 35.4766H203.039C202.81 35.4766 202.609 35.5339 202.438 35.6484C202.323 35.763 202.266 35.9349 202.266 36.1641V41.4922H204.758C205.331 41.4922 205.732 41.349 205.961 41.0625C206.247 40.776 206.391 40.3464 206.391 39.7734V39.2578H206.906V44.3281H206.391V43.9844C206.391 43.3542 206.247 42.8672 205.961 42.5234C205.732 42.1797 205.331 42.0078 204.758 42.0078H202.266V48.4531C202.266 48.6823 202.323 48.8542 202.438 48.9688C202.609 49.0833 202.81 49.1406 203.039 49.1406H205.273C206.133 49.1406 206.849 48.9115 207.422 48.4531C208.052 47.9375 208.539 47.1641 208.883 46.1328L209.312 46.3047L208.367 49.6562H199.602V49.1406H200.117C200.404 49.1406 200.604 49.0833 200.719 48.9688C200.833 48.8542 200.891 48.6823 200.891 48.4531V36.1641C200.891 35.9349 200.833 35.763 200.719 35.6484C200.604 35.5339 200.404 35.4766 200.117 35.4766H199.688Z" fill="#0E111A"/>
<path d="M221.691 49V35.51H227.277C227.86 35.51 228.392 35.6303 228.873 35.871C229.367 36.1117 229.791 36.441 230.146 36.859C230.501 37.2643 230.779 37.7203 230.982 38.227C231.185 38.721 231.286 39.2277 231.286 39.747C231.286 40.4817 231.121 41.1783 230.792 41.837C230.475 42.483 230.026 43.0087 229.443 43.414C228.86 43.8193 228.176 44.022 227.391 44.022H223.021V49H221.691ZM223.021 42.844H227.334C227.866 42.844 228.328 42.6983 228.721 42.407C229.114 42.1157 229.418 41.7357 229.633 41.267C229.848 40.7983 229.956 40.2917 229.956 39.747C229.956 39.1897 229.829 38.6767 229.576 38.208C229.323 37.7393 228.987 37.372 228.569 37.106C228.164 36.8273 227.714 36.688 227.22 36.688H223.021V42.844ZM236.763 35.51H237.884L243.489 49H242.083L240.335 44.782H234.274L232.545 49H231.12L236.763 35.51ZM240.031 43.737L237.314 37.068L234.559 43.737H240.031ZM245.498 49V35.51H246.809V47.176L255.169 35.51H256.404V49H255.093V37.543L246.828 49H245.498ZM250.97 34.37C250.35 34.37 249.824 34.2813 249.393 34.104C248.975 33.914 248.659 33.6607 248.443 33.344C248.228 33.0147 248.114 32.66 248.101 32.28H249.146C249.159 32.6093 249.292 32.907 249.545 33.173C249.811 33.439 250.286 33.572 250.97 33.572C251.629 33.572 252.091 33.4517 252.357 33.211C252.623 32.9577 252.763 32.6473 252.775 32.28H253.82C253.808 32.66 253.694 33.0147 253.478 33.344C253.263 33.6607 252.946 33.914 252.528 34.104C252.123 34.2813 251.604 34.37 250.97 34.37ZM264.701 49V35.51H274.885V49H273.555V36.688H266.031V49H264.701ZM282.444 35.51H283.565L289.17 49H287.764L286.016 44.782H279.955L278.226 49H276.801L282.444 35.51ZM285.712 43.737L282.995 37.068L280.24 43.737H285.712ZM291.104 49V35.51H296.69C297.273 35.51 297.805 35.6303 298.286 35.871C298.78 36.1117 299.204 36.441 299.559 36.859C299.914 37.2643 300.192 37.7203 300.395 38.227C300.598 38.721 300.699 39.2277 300.699 39.747C300.699 40.4817 300.534 41.1783 300.205 41.837C299.888 42.483 299.439 43.0087 298.856 43.414C298.273 43.8193 297.589 44.022 296.804 44.022H292.434V49H291.104ZM292.434 42.844H296.747C297.279 42.844 297.741 42.6983 298.134 42.407C298.527 42.1157 298.831 41.7357 299.046 41.267C299.261 40.7983 299.369 40.2917 299.369 39.747C299.369 39.1897 299.242 38.6767 298.989 38.208C298.736 37.7393 298.4 37.372 297.982 37.106C297.577 36.8273 297.127 36.688 296.633 36.688H292.434V42.844ZM306.176 35.51H307.297L312.902 49H311.496L309.748 44.782H303.687L301.958 49H300.533L306.176 35.51ZM309.444 43.737L306.727 37.068L303.972 43.737H309.444Z" fill="#0E111A"/>
<path d="M122.616 72.96C122.616 72.3627 122.719 71.7747 122.924 71.196C123.139 70.608 123.447 70.076 123.848 69.6C124.249 69.1147 124.739 68.7273 125.318 68.438C125.906 68.1487 126.573 68.004 127.32 68.004C128.207 68.004 128.963 68.2093 129.588 68.62C130.213 69.0213 130.68 69.5393 130.988 70.174L130.4 70.51C130.167 70.0527 129.877 69.6887 129.532 69.418C129.196 69.1473 128.832 68.956 128.44 68.844C128.048 68.7227 127.656 68.662 127.264 68.662C126.639 68.662 126.079 68.788 125.584 69.04C125.099 69.292 124.688 69.628 124.352 70.048C124.016 70.468 123.759 70.9347 123.582 71.448C123.414 71.9613 123.33 72.4793 123.33 73.002C123.33 73.59 123.433 74.15 123.638 74.682C123.843 75.2047 124.123 75.6713 124.478 76.082C124.842 76.4927 125.262 76.8193 125.738 77.062C126.223 77.3047 126.746 77.426 127.306 77.426C127.707 77.426 128.113 77.3607 128.524 77.23C128.944 77.09 129.336 76.88 129.7 76.6C130.064 76.3107 130.358 75.9373 130.582 75.48L131.198 75.774C130.983 76.2687 130.661 76.6887 130.232 77.034C129.803 77.3793 129.327 77.6407 128.804 77.818C128.281 77.9953 127.763 78.084 127.25 78.084C126.578 78.084 125.957 77.9393 125.388 77.65C124.819 77.3513 124.324 76.9593 123.904 76.474C123.493 75.9793 123.176 75.4287 122.952 74.822C122.728 74.206 122.616 73.5853 122.616 72.96ZM135.852 78.14C135.339 78.14 134.863 78.042 134.424 77.846C133.985 77.6407 133.603 77.3653 133.276 77.02C132.959 76.6653 132.707 76.2593 132.52 75.802C132.343 75.3353 132.254 74.8453 132.254 74.332C132.254 73.6413 132.408 73.016 132.716 72.456C133.024 71.896 133.449 71.448 133.99 71.112C134.531 70.7667 135.138 70.594 135.81 70.594C136.501 70.594 137.112 70.7667 137.644 71.112C138.176 71.4573 138.596 71.9147 138.904 72.484C139.221 73.044 139.38 73.66 139.38 74.332C139.38 74.388 139.38 74.444 139.38 74.5C139.38 74.556 139.375 74.6027 139.366 74.64H132.982C133.019 75.1907 133.173 75.69 133.444 76.138C133.715 76.586 134.06 76.9407 134.48 77.202C134.909 77.454 135.376 77.58 135.88 77.58C136.384 77.58 136.86 77.4493 137.308 77.188C137.756 76.9267 138.069 76.5907 138.246 76.18L138.862 76.348C138.722 76.6933 138.498 77.0013 138.19 77.272C137.891 77.5427 137.537 77.7573 137.126 77.916C136.725 78.0653 136.3 78.14 135.852 78.14ZM132.954 74.094H138.708C138.671 73.5247 138.521 73.0207 138.26 72.582C137.999 72.1433 137.653 71.798 137.224 71.546C136.804 71.294 136.337 71.168 135.824 71.168C135.311 71.168 134.844 71.294 134.424 71.546C134.004 71.798 133.663 72.1433 133.402 72.582C133.141 73.0207 132.991 73.5247 132.954 74.094ZM142.782 78V71.35H140.108V70.72H146.17V71.35H143.482V78H142.782ZM147.524 78V70.72H148.224V73.366H150.17C150.982 73.366 151.588 73.576 151.99 73.996C152.391 74.416 152.592 74.962 152.592 75.634C152.592 76.0633 152.503 76.46 152.326 76.824C152.148 77.188 151.882 77.4773 151.528 77.692C151.182 77.8973 150.748 78 150.226 78H147.524ZM148.224 77.426H150.142C150.562 77.426 150.898 77.342 151.15 77.174C151.411 77.006 151.598 76.7867 151.71 76.516C151.831 76.2453 151.892 75.956 151.892 75.648C151.892 75.3493 151.836 75.0693 151.724 74.808C151.621 74.5467 151.439 74.3367 151.178 74.178C150.926 74.0193 150.571 73.94 150.114 73.94H148.224V77.426ZM157.791 78V70.72H158.491L161.557 75.956L164.623 70.72H165.309V78H164.637V71.826L161.781 76.698H161.319L158.463 71.84V78H157.791ZM166.896 75.9C166.896 75.4613 167.027 75.0833 167.288 74.766C167.55 74.4393 167.909 74.1873 168.366 74.01C168.824 73.8233 169.351 73.73 169.948 73.73C170.322 73.73 170.709 73.7627 171.11 73.828C171.512 73.8933 171.871 73.982 172.188 74.094V73.408C172.188 72.736 171.992 72.1993 171.6 71.798C171.218 71.3967 170.686 71.196 170.004 71.196C169.64 71.196 169.262 71.2707 168.87 71.42C168.478 71.5693 168.077 71.784 167.666 72.064L167.372 71.56C167.848 71.2427 168.306 71.0047 168.744 70.846C169.192 70.678 169.636 70.594 170.074 70.594C170.942 70.594 171.628 70.8507 172.132 71.364C172.636 71.8773 172.888 72.5773 172.888 73.464V77.076C172.888 77.188 172.912 77.272 172.958 77.328C173.014 77.384 173.094 77.4167 173.196 77.426V78C173.112 78.0093 173.042 78.014 172.986 78.014C172.93 78.014 172.884 78.014 172.846 78.014C172.669 77.986 172.529 77.9113 172.426 77.79C172.333 77.6687 172.282 77.5333 172.272 77.384V76.81C171.936 77.23 171.502 77.5567 170.97 77.79C170.448 78.0233 169.897 78.14 169.318 78.14C168.861 78.14 168.446 78.042 168.072 77.846C167.708 77.65 167.419 77.384 167.204 77.048C166.999 76.7027 166.896 76.32 166.896 75.9ZM171.908 76.502C172.002 76.3807 172.072 76.264 172.118 76.152C172.165 76.04 172.188 75.9373 172.188 75.844V74.64C171.852 74.5093 171.502 74.4113 171.138 74.346C170.774 74.2807 170.401 74.248 170.018 74.248C169.29 74.248 168.698 74.3927 168.24 74.682C167.792 74.9713 167.568 75.3633 167.568 75.858C167.568 76.166 167.648 76.4507 167.806 76.712C167.965 76.9733 168.184 77.1833 168.464 77.342C168.754 77.5007 169.085 77.58 169.458 77.58C169.981 77.58 170.462 77.482 170.9 77.286C171.348 77.0807 171.684 76.8193 171.908 76.502ZM175.018 78V70.72H179.232V71.35H175.718V78H175.018ZM180.021 75.9C180.021 75.4613 180.152 75.0833 180.413 74.766C180.675 74.4393 181.034 74.1873 181.491 74.01C181.949 73.8233 182.476 73.73 183.073 73.73C183.447 73.73 183.834 73.7627 184.235 73.828C184.637 73.8933 184.996 73.982 185.313 74.094V73.408C185.313 72.736 185.117 72.1993 184.725 71.798C184.343 71.3967 183.811 71.196 183.129 71.196C182.765 71.196 182.387 71.2707 181.995 71.42C181.603 71.5693 181.202 71.784 180.791 72.064L180.497 71.56C180.973 71.2427 181.431 71.0047 181.869 70.846C182.317 70.678 182.761 70.594 183.199 70.594C184.067 70.594 184.753 70.8507 185.257 71.364C185.761 71.8773 186.013 72.5773 186.013 73.464V77.076C186.013 77.188 186.037 77.272 186.083 77.328C186.139 77.384 186.219 77.4167 186.321 77.426V78C186.237 78.0093 186.167 78.014 186.111 78.014C186.055 78.014 186.009 78.014 185.971 78.014C185.794 77.986 185.654 77.9113 185.551 77.79C185.458 77.6687 185.407 77.5333 185.397 77.384V76.81C185.061 77.23 184.627 77.5567 184.095 77.79C183.573 78.0233 183.022 78.14 182.443 78.14C181.986 78.14 181.571 78.042 181.197 77.846C180.833 77.65 180.544 77.384 180.329 77.048C180.124 76.7027 180.021 76.32 180.021 75.9ZM185.033 76.502C185.127 76.3807 185.197 76.264 185.243 76.152C185.29 76.04 185.313 75.9373 185.313 75.844V74.64C184.977 74.5093 184.627 74.4113 184.263 74.346C183.899 74.2807 183.526 74.248 183.143 74.248C182.415 74.248 181.823 74.3927 181.365 74.682C180.917 74.9713 180.693 75.3633 180.693 75.858C180.693 76.166 180.773 76.4507 180.931 76.712C181.09 76.9733 181.309 77.1833 181.589 77.342C181.879 77.5007 182.21 77.58 182.583 77.58C183.106 77.58 183.587 77.482 184.025 77.286C184.473 77.0807 184.809 76.8193 185.033 76.502ZM190.103 78.084C189.468 78.084 188.917 77.958 188.451 77.706C187.984 77.4447 187.634 77.0853 187.401 76.628L187.989 76.376C188.166 76.7213 188.432 76.992 188.787 77.188C189.151 77.384 189.585 77.482 190.089 77.482C190.695 77.482 191.181 77.342 191.545 77.062C191.918 76.7727 192.105 76.3853 192.105 75.9C192.105 75.4707 191.96 75.1207 191.671 74.85C191.381 74.5793 190.985 74.4393 190.481 74.43H189.739V73.912H190.537C190.751 73.912 190.947 73.8513 191.125 73.73C191.302 73.6087 191.442 73.4453 191.545 73.24C191.647 73.0347 191.699 72.806 191.699 72.554C191.699 72.1527 191.559 71.8307 191.279 71.588C191.008 71.336 190.607 71.21 190.075 71.21C189.645 71.21 189.281 71.2987 188.983 71.476C188.693 71.6533 188.465 71.91 188.297 72.246L187.751 71.966C187.956 71.5367 188.259 71.2053 188.661 70.972C189.071 70.7293 189.547 70.608 190.089 70.608C190.537 70.608 190.929 70.6873 191.265 70.846C191.601 70.9953 191.867 71.21 192.063 71.49C192.259 71.7607 192.357 72.092 192.357 72.484C192.357 72.848 192.268 73.1793 192.091 73.478C191.923 73.7673 191.694 73.9867 191.405 74.136C191.834 74.2667 192.165 74.4953 192.399 74.822C192.641 75.1487 192.763 75.536 192.763 75.984C192.763 76.4133 192.651 76.7867 192.427 77.104C192.203 77.412 191.89 77.6547 191.489 77.832C191.097 78 190.635 78.084 190.103 78.084ZM194.446 78V70.734H195.146V77.048L199.878 70.72H200.522V78H199.822V71.784L195.146 78H194.446ZM202.69 78V70.72H203.39V73.954H207.884V70.72H208.584V78H207.884V74.584H203.39V78H202.69ZM213.822 78.14C213.308 78.14 212.832 78.042 212.394 77.846C211.964 77.65 211.591 77.3793 211.274 77.034C210.956 76.6793 210.709 76.2733 210.532 75.816C210.354 75.3587 210.266 74.878 210.266 74.374C210.266 73.8607 210.354 73.38 210.532 72.932C210.709 72.4747 210.956 72.0733 211.274 71.728C211.6 71.3733 211.978 71.098 212.408 70.902C212.846 70.6967 213.318 70.594 213.822 70.594C214.326 70.594 214.792 70.6967 215.222 70.902C215.651 71.098 216.029 71.3733 216.356 71.728C216.682 72.0733 216.934 72.4747 217.112 72.932C217.289 73.38 217.378 73.8607 217.378 74.374C217.378 74.878 217.289 75.3587 217.112 75.816C216.934 76.2733 216.682 76.6793 216.356 77.034C216.038 77.3793 215.66 77.65 215.222 77.846C214.792 78.042 214.326 78.14 213.822 78.14ZM210.966 74.402C210.966 74.9713 211.092 75.494 211.344 75.97C211.605 76.4367 211.95 76.81 212.38 77.09C212.809 77.37 213.285 77.51 213.808 77.51C214.33 77.51 214.806 77.37 215.236 77.09C215.674 76.8007 216.02 76.418 216.272 75.942C216.533 75.4567 216.664 74.9293 216.664 74.36C216.664 73.7907 216.533 73.268 216.272 72.792C216.02 72.316 215.674 71.938 215.236 71.658C214.806 71.3687 214.335 71.224 213.822 71.224C213.299 71.224 212.823 71.3687 212.394 71.658C211.964 71.9473 211.619 72.33 211.358 72.806C211.096 73.282 210.966 73.814 210.966 74.402ZM219.055 78V70.72H222.569C222.961 70.72 223.288 70.8087 223.549 70.986C223.82 71.154 224.025 71.378 224.165 71.658C224.314 71.9287 224.389 72.2133 224.389 72.512C224.389 72.8947 224.291 73.2447 224.095 73.562C223.908 73.8793 223.647 74.1127 223.311 74.262C223.731 74.3833 224.067 74.6073 224.319 74.934C224.571 75.2607 224.697 75.6433 224.697 76.082C224.697 76.4553 224.604 76.7867 224.417 77.076C224.24 77.3653 223.992 77.594 223.675 77.762C223.367 77.9207 223.012 78 222.611 78H219.055ZM219.727 77.468H222.597C222.868 77.468 223.11 77.398 223.325 77.258C223.54 77.118 223.708 76.9407 223.829 76.726C223.96 76.502 224.025 76.2687 224.025 76.026C224.025 75.7647 223.964 75.5267 223.843 75.312C223.722 75.0973 223.558 74.9247 223.353 74.794C223.148 74.654 222.914 74.584 222.653 74.584H219.727V77.468ZM219.727 74.08H222.373C222.644 74.08 222.877 74.01 223.073 73.87C223.269 73.7207 223.423 73.534 223.535 73.31C223.647 73.086 223.703 72.8527 223.703 72.61C223.703 72.246 223.586 71.9287 223.353 71.658C223.12 71.3873 222.812 71.252 222.429 71.252H219.727V74.08ZM230.02 78V70.734H230.72V77.048L235.452 70.72H236.096V78H235.396V71.784L230.72 78H230.02ZM241.358 78.14C240.854 78.14 240.383 78.042 239.944 77.846C239.505 77.6407 239.123 77.3653 238.796 77.02C238.469 76.6653 238.213 76.2593 238.026 75.802C237.849 75.3447 237.76 74.8547 237.76 74.332C237.76 73.632 237.914 73.002 238.222 72.442C238.53 71.882 238.955 71.434 239.496 71.098C240.037 70.762 240.653 70.594 241.344 70.594C242.007 70.594 242.59 70.748 243.094 71.056C243.598 71.3547 243.976 71.7653 244.228 72.288L243.542 72.512C243.327 72.1107 243.019 71.798 242.618 71.574C242.226 71.3407 241.792 71.224 241.316 71.224C240.784 71.224 240.303 71.3593 239.874 71.63C239.445 71.9007 239.099 72.274 238.838 72.75C238.586 73.2167 238.46 73.744 238.46 74.332C238.46 74.9107 238.591 75.4427 238.852 75.928C239.113 76.4133 239.459 76.8007 239.888 77.09C240.327 77.37 240.807 77.51 241.33 77.51C241.666 77.51 241.993 77.4493 242.31 77.328C242.637 77.1973 242.917 77.0293 243.15 76.824C243.393 76.6187 243.551 76.3993 243.626 76.166L244.312 76.362C244.191 76.7073 243.981 77.0153 243.682 77.286C243.383 77.5473 243.033 77.7573 242.632 77.916C242.24 78.0653 241.815 78.14 241.358 78.14ZM245.893 78V70.72H251.563V78H250.863V71.35H246.593V78H245.893ZM253.152 75.9C253.152 75.4613 253.283 75.0833 253.544 74.766C253.805 74.4393 254.165 74.1873 254.622 74.01C255.079 73.8233 255.607 73.73 256.204 73.73C256.577 73.73 256.965 73.7627 257.366 73.828C257.767 73.8933 258.127 73.982 258.444 74.094V73.408C258.444 72.736 258.248 72.1993 257.856 71.798C257.473 71.3967 256.941 71.196 256.26 71.196C255.896 71.196 255.518 71.2707 255.126 71.42C254.734 71.5693 254.333 71.784 253.922 72.064L253.628 71.56C254.104 71.2427 254.561 71.0047 255 70.846C255.448 70.678 255.891 70.594 256.33 70.594C257.198 70.594 257.884 70.8507 258.388 71.364C258.892 71.8773 259.144 72.5773 259.144 73.464V77.076C259.144 77.188 259.167 77.272 259.214 77.328C259.27 77.384 259.349 77.4167 259.452 77.426V78C259.368 78.0093 259.298 78.014 259.242 78.014C259.186 78.014 259.139 78.014 259.102 78.014C258.925 77.986 258.785 77.9113 258.682 77.79C258.589 77.6687 258.537 77.5333 258.528 77.384V76.81C258.192 77.23 257.758 77.5567 257.226 77.79C256.703 78.0233 256.153 78.14 255.574 78.14C255.117 78.14 254.701 78.042 254.328 77.846C253.964 77.65 253.675 77.384 253.46 77.048C253.255 76.7027 253.152 76.32 253.152 75.9ZM258.164 76.502C258.257 76.3807 258.327 76.264 258.374 76.152C258.421 76.04 258.444 75.9373 258.444 75.844V74.64C258.108 74.5093 257.758 74.4113 257.394 74.346C257.03 74.2807 256.657 74.248 256.274 74.248C255.546 74.248 254.953 74.3927 254.496 74.682C254.048 74.9713 253.824 75.3633 253.824 75.858C253.824 76.166 253.903 76.4507 254.062 76.712C254.221 76.9733 254.44 77.1833 254.72 77.342C255.009 77.5007 255.341 77.58 255.714 77.58C256.237 77.58 256.717 77.482 257.156 77.286C257.604 77.0807 257.94 76.8193 258.164 76.502ZM264.83 78.14C264.204 78.14 263.644 77.9767 263.15 77.65C262.664 77.314 262.272 76.908 261.974 76.432V80.982H261.274V70.72H261.918V72.176C262.216 71.7093 262.613 71.3313 263.108 71.042C263.602 70.7433 264.125 70.594 264.676 70.594C265.189 70.594 265.656 70.7013 266.076 70.916C266.496 71.1213 266.86 71.406 267.168 71.77C267.485 72.1247 267.728 72.526 267.896 72.974C268.073 73.422 268.162 73.8887 268.162 74.374C268.162 75.046 268.022 75.6713 267.742 76.25C267.462 76.8193 267.07 77.2767 266.566 77.622C266.071 77.9673 265.492 78.14 264.83 78.14ZM264.662 77.51C265.091 77.51 265.474 77.4213 265.81 77.244C266.155 77.0667 266.449 76.8287 266.692 76.53C266.934 76.2313 267.121 75.8953 267.252 75.522C267.382 75.1487 267.448 74.766 267.448 74.374C267.448 73.954 267.373 73.5573 267.224 73.184C267.074 72.8013 266.864 72.4653 266.594 72.176C266.332 71.8867 266.024 71.658 265.67 71.49C265.324 71.3127 264.946 71.224 264.536 71.224C264.284 71.224 264.013 71.2753 263.724 71.378C263.444 71.4807 263.173 71.6253 262.912 71.812C262.66 71.9987 262.45 72.2133 262.282 72.456C262.114 72.6893 262.011 72.932 261.974 73.184V75.578C262.142 75.9327 262.356 76.2593 262.618 76.558C262.888 76.8473 263.201 77.0807 263.556 77.258C263.91 77.426 264.279 77.51 264.662 77.51ZM269.846 78V70.734H270.546V77.048L275.278 70.72H275.922V78H275.222V71.784L270.546 78H269.846ZM279.952 78V71.35H277.278V70.72H283.34V71.35H280.652V78H279.952ZM287.788 78.14C287.274 78.14 286.798 78.042 286.36 77.846C285.921 77.6407 285.538 77.3653 285.212 77.02C284.894 76.6653 284.642 76.2593 284.456 75.802C284.278 75.3353 284.19 74.8453 284.19 74.332C284.19 73.6413 284.344 73.016 284.652 72.456C284.96 71.896 285.384 71.448 285.926 71.112C286.467 70.7667 287.074 70.594 287.746 70.594C288.436 70.594 289.048 70.7667 289.58 71.112C290.112 71.4573 290.532 71.9147 290.84 72.484C291.157 73.044 291.316 73.66 291.316 74.332C291.316 74.388 291.316 74.444 291.316 74.5C291.316 74.556 291.311 74.6027 291.302 74.64H284.918C284.955 75.1907 285.109 75.69 285.38 76.138C285.65 76.586 285.996 76.9407 286.416 77.202C286.845 77.454 287.312 77.58 287.816 77.58C288.32 77.58 288.796 77.4493 289.244 77.188C289.692 76.9267 290.004 76.5907 290.182 76.18L290.798 76.348C290.658 76.6933 290.434 77.0013 290.126 77.272C289.827 77.5427 289.472 77.7573 289.062 77.916C288.66 78.0653 288.236 78.14 287.788 78.14ZM284.89 74.094H290.644C290.606 73.5247 290.457 73.0207 290.196 72.582C289.934 72.1433 289.589 71.798 289.16 71.546C288.74 71.294 288.273 71.168 287.76 71.168C287.246 71.168 286.78 71.294 286.36 71.546C285.94 71.798 285.599 72.1433 285.338 72.582C285.076 73.0207 284.927 73.5247 284.89 74.094ZM292.114 78.028V77.384C292.366 77.384 292.594 77.314 292.8 77.174C293.005 77.0247 293.187 76.7773 293.346 76.432C293.504 76.0867 293.63 75.6107 293.724 75.004C293.826 74.388 293.892 73.6133 293.92 72.68L293.99 70.72H298.526V78H297.826V71.35H294.62L294.592 72.722C294.554 73.7487 294.475 74.6073 294.354 75.298C294.242 75.9793 294.083 76.5207 293.878 76.922C293.672 77.314 293.42 77.5987 293.122 77.776C292.832 77.944 292.496 78.028 292.114 78.028ZM303.797 78.14C303.284 78.14 302.808 78.042 302.369 77.846C301.931 77.6407 301.548 77.3653 301.221 77.02C300.904 76.6653 300.652 76.2593 300.465 75.802C300.288 75.3353 300.199 74.8453 300.199 74.332C300.199 73.6413 300.353 73.016 300.661 72.456C300.969 71.896 301.394 71.448 301.935 71.112C302.477 70.7667 303.083 70.594 303.755 70.594C304.446 70.594 305.057 70.7667 305.589 71.112C306.121 71.4573 306.541 71.9147 306.849 72.484C307.167 73.044 307.325 73.66 307.325 74.332C307.325 74.388 307.325 74.444 307.325 74.5C307.325 74.556 307.321 74.6027 307.311 74.64H300.927C300.965 75.1907 301.119 75.69 301.389 76.138C301.66 76.586 302.005 76.9407 302.425 77.202C302.855 77.454 303.321 77.58 303.825 77.58C304.329 77.58 304.805 77.4493 305.253 77.188C305.701 76.9267 306.014 76.5907 306.191 76.18L306.807 76.348C306.667 76.6933 306.443 77.0013 306.135 77.272C305.837 77.5427 305.482 77.7573 305.071 77.916C304.67 78.0653 304.245 78.14 303.797 78.14ZM300.899 74.094H306.653C306.616 73.5247 306.467 73.0207 306.205 72.582C305.944 72.1433 305.599 71.798 305.169 71.546C304.749 71.294 304.283 71.168 303.769 71.168C303.256 71.168 302.789 71.294 302.369 71.546C301.949 71.798 301.609 72.1433 301.347 72.582C301.086 73.0207 300.937 73.5247 300.899 74.094ZM308.865 78V70.734H309.565V77.048L314.297 70.72H314.941V78H314.241V71.784L309.565 78H308.865ZM311.903 69.712C311.306 69.712 310.835 69.572 310.489 69.292C310.153 69.0027 309.985 68.6387 309.985 68.2H310.517C310.517 68.508 310.639 68.76 310.881 68.956C311.124 69.152 311.465 69.25 311.903 69.25C312.351 69.25 312.692 69.1567 312.925 68.97C313.159 68.774 313.28 68.5173 313.289 68.2H313.821C313.821 68.6387 313.649 69.0027 313.303 69.292C312.967 69.572 312.501 69.712 311.903 69.712Z" fill="#0E111A"/>
</svg>
