<svg width="192" height="25" viewBox="0 0 192 25" fill="none" xmlns="http://www.w3.org/2000/svg">
<path d="M3.26562 12.7812V18.4531C3.26562 18.6823 3.32292 18.8542 3.4375 18.9688C3.60938 19.0833 3.8099 19.1406 4.03906 19.1406H4.64062V19.6562H0.515625V19.1406H1.11719C1.40365 19.1406 1.60417 19.0833 1.71875 18.9688C1.83333 18.8542 1.89062 18.6823 1.89062 18.4531V6.16406C1.89062 5.9349 1.83333 5.76302 1.71875 5.64844C1.60417 5.53385 1.40365 5.47656 1.11719 5.47656H0.601562V4.96094H5.67188C7.10417 4.96094 8.19271 5.33333 8.9375 6.07812C9.73958 6.76562 10.1406 7.65365 10.1406 8.74219C10.1406 10.0599 9.71094 11.0625 8.85156 11.75C8.04948 12.4375 7.07552 12.7812 5.92969 12.7812H3.26562ZM5.41406 12.2656C6.27344 12.2656 7.01823 12.0078 7.64844 11.4922C8.33594 10.9766 8.67969 10.0885 8.67969 8.82812C8.67969 7.68229 8.39323 6.85156 7.82031 6.33594C7.30469 5.76302 6.44531 5.47656 5.24219 5.47656H4.03906C3.8099 5.47656 3.60938 5.53385 3.4375 5.64844C3.32292 5.76302 3.26562 5.9349 3.26562 6.16406V12.2656H5.41406ZM17.9609 14.1562H14.0938L13.3203 17.4219C13.263 17.7083 13.2344 17.9375 13.2344 18.1094C13.2344 18.3385 13.263 18.5677 13.3203 18.7969C13.4349 19.026 13.6927 19.1406 14.0938 19.1406H14.3516V19.6562H11.1719V19.1406H11.4297C11.6589 19.1406 11.8594 19.0833 12.0312 18.9688C12.2031 18.7969 12.3177 18.5391 12.375 18.1953L15.7266 5.04688L17.0156 4.61719L20.2812 18.1953C20.3958 18.5391 20.5391 18.7969 20.7109 18.9688C20.8828 19.0833 21.0833 19.1406 21.3125 19.1406H21.5703V19.6562H17.875V19.1406H18.2188C18.5625 19.1406 18.763 19.0833 18.8203 18.9688C18.8776 18.7969 18.9062 18.6536 18.9062 18.5391C18.9062 18.3099 18.8776 18.1094 18.8203 17.9375L17.9609 14.1562ZM16.1562 6.50781H16.0703L14.2656 13.6406H17.875L16.1562 6.50781ZM31.7109 8.39844C31.7109 9.54427 31.3958 10.4323 30.7656 11.0625C30.1354 11.6927 29.4193 12.0651 28.6172 12.1797L31.1953 18.5391C31.3099 18.7682 31.4245 18.9401 31.5391 19.0547C31.7109 19.112 31.8828 19.1406 32.0547 19.1406H32.5703V19.6562H30.1641L27.3281 12.2656H25.3516V18.4531C25.3516 18.6823 25.4089 18.8542 25.5234 18.9688C25.6953 19.0833 25.8958 19.1406 26.125 19.1406H26.6406V19.6562H22.6875V19.1406H23.2031C23.4896 19.1406 23.6901 19.0833 23.8047 18.9688C23.9193 18.8542 23.9766 18.6823 23.9766 18.4531V6.16406C23.9766 5.9349 23.9193 5.76302 23.8047 5.64844C23.6901 5.53385 23.4896 5.47656 23.2031 5.47656H22.6875V4.96094H27.5859C28.9036 4.96094 29.9062 5.2474 30.5938 5.82031C31.3385 6.39323 31.7109 7.2526 31.7109 8.39844ZM25.3516 11.75H27.2422C28.1016 11.75 28.8177 11.4922 29.3906 10.9766C29.9635 10.4609 30.25 9.65885 30.25 8.57031C30.25 7.59635 29.9922 6.85156 29.4766 6.33594C28.9609 5.76302 28.1589 5.47656 27.0703 5.47656H26.125C25.8958 5.47656 25.6953 5.53385 25.5234 5.64844C25.4089 5.76302 25.3516 5.9349 25.3516 6.16406V11.75ZM39.9609 14.1562H36.0938L35.3203 17.4219C35.263 17.7083 35.2344 17.9375 35.2344 18.1094C35.2344 18.3385 35.263 18.5677 35.3203 18.7969C35.4349 19.026 35.6927 19.1406 36.0938 19.1406H36.3516V19.6562H33.1719V19.1406H33.4297C33.6589 19.1406 33.8594 19.0833 34.0312 18.9688C34.2031 18.7969 34.3177 18.5391 34.375 18.1953L37.7266 5.04688L39.0156 4.61719L42.2812 18.1953C42.3958 18.5391 42.5391 18.7969 42.7109 18.9688C42.8828 19.0833 43.0833 19.1406 43.3125 19.1406H43.5703V19.6562H39.875V19.1406H40.2188C40.5625 19.1406 40.763 19.0833 40.8203 18.9688C40.8776 18.7969 40.9062 18.6536 40.9062 18.5391C40.9062 18.3099 40.8776 18.1094 40.8203 17.9375L39.9609 14.1562ZM38.1562 6.50781H38.0703L36.2656 13.6406H39.875L38.1562 6.50781ZM52.5938 12.1797C52.5938 9.71615 52.2214 7.9974 51.4766 7.02344C50.7318 5.99219 49.7005 5.47656 48.3828 5.47656C47.9818 5.47656 47.6667 5.53385 47.4375 5.64844C47.2656 5.76302 47.1797 5.9349 47.1797 6.16406V18.4531C47.1797 18.6823 47.2656 18.8542 47.4375 18.9688C47.6094 19.0833 47.8385 19.1406 48.125 19.1406C49.3854 19.1406 50.4453 18.6823 51.3047 17.7656C52.1641 16.7917 52.5938 14.9297 52.5938 12.1797ZM45.8047 6.16406C45.8047 5.9349 45.7474 5.76302 45.6328 5.64844C45.5182 5.53385 45.3177 5.47656 45.0312 5.47656H44.5156V4.96094H48.3828C50.1589 4.96094 51.5625 5.53385 52.5938 6.67969C53.6823 7.82552 54.2266 9.60156 54.2266 12.0078C54.2266 14.6432 53.7109 16.5911 52.6797 17.8516C51.6484 19.0547 50.1302 19.6562 48.125 19.6562H44.4297V19.1406H45.0312C45.3177 19.1406 45.5182 19.0833 45.6328 18.9688C45.7474 18.8542 45.8047 18.6823 45.8047 18.4531V6.16406ZM57.0625 5.47656V4.96094H63.9375V5.47656H61.9609C61.7318 5.47656 61.5312 5.53385 61.3594 5.64844C61.2448 5.76302 61.1875 5.9349 61.1875 6.16406V18.4531C61.1875 18.6823 61.2448 18.8542 61.3594 18.9688C61.5312 19.0833 61.7318 19.1406 61.9609 19.1406H63.9375V19.6562H57.0625V19.1406H59.0391C59.3255 19.1406 59.526 19.0833 59.6406 18.9688C59.7552 18.8542 59.8125 18.6823 59.8125 18.4531V6.16406C59.8125 5.9349 59.7552 5.76302 59.6406 5.64844C59.526 5.53385 59.3255 5.47656 59.0391 5.47656H57.0625ZM71.1562 12.6094C69.6094 11.9219 68.5495 11.3203 67.9766 10.8047C67.4036 10.2891 67.1172 9.48698 67.1172 8.39844C67.1172 7.53906 67.4609 6.73698 68.1484 5.99219C68.8932 5.1901 69.9245 4.78906 71.2422 4.78906C71.8151 4.78906 72.3594 4.875 72.875 5.04688C73.3906 5.27604 73.763 5.39062 73.9922 5.39062C74.1641 5.39062 74.3073 5.36198 74.4219 5.30469C74.5938 5.1901 74.737 5.01823 74.8516 4.78906L75.1953 8.3125L74.7656 8.48438C74.25 7.28125 73.7057 6.47917 73.1328 6.07812C72.6172 5.61979 71.9297 5.39062 71.0703 5.39062C69.9818 5.39062 69.237 5.70573 68.8359 6.33594C68.4349 6.90885 68.2344 7.53906 68.2344 8.22656C68.2344 8.85677 68.4062 9.3724 68.75 9.77344C69.151 10.1172 70.1823 10.6615 71.8438 11.4062C73.2188 11.9792 74.1927 12.638 74.7656 13.3828C75.3958 14.0703 75.7109 14.901 75.7109 15.875C75.7109 16.9062 75.3385 17.8229 74.5938 18.625C73.9062 19.4271 72.875 19.8281 71.5 19.8281C70.9271 19.8281 70.4115 19.7135 69.9531 19.4844C69.4375 19.3125 69.0365 19.2266 68.75 19.2266C68.5781 19.2266 68.4062 19.2839 68.2344 19.3984C68.0625 19.513 67.862 19.6562 67.6328 19.8281L66.9453 15.6172L67.4609 15.4453C67.862 16.8776 68.4062 17.8802 69.0938 18.4531C69.8385 18.9688 70.6693 19.2266 71.5859 19.2266C72.5599 19.2266 73.276 18.9401 73.7344 18.3672C74.25 17.7943 74.5078 16.9635 74.5078 15.875C74.5078 15.3021 74.2214 14.7578 73.6484 14.2422C73.1328 13.6693 72.3021 13.125 71.1562 12.6094ZM77.6875 5.47656V4.96094H86.1094L87.0547 7.88281L86.625 8.05469C86.1667 7.19531 85.6797 6.5651 85.1641 6.16406C84.6484 5.70573 84.0755 5.47656 83.4453 5.47656H81.0391C80.8099 5.47656 80.6094 5.53385 80.4375 5.64844C80.3229 5.76302 80.2656 5.9349 80.2656 6.16406V11.4922H82.7578C83.3307 11.4922 83.7318 11.349 83.9609 11.0625C84.2474 10.776 84.3906 10.3464 84.3906 9.77344V9.25781H84.9062V14.3281H84.3906V13.9844C84.3906 13.3542 84.2474 12.8672 83.9609 12.5234C83.7318 12.1797 83.3307 12.0078 82.7578 12.0078H80.2656V18.4531C80.2656 18.6823 80.3229 18.8542 80.4375 18.9688C80.6094 19.0833 80.8099 19.1406 81.0391 19.1406H83.2734C84.1328 19.1406 84.849 18.9115 85.4219 18.4531C86.0521 17.9375 86.5391 17.1641 86.8828 16.1328L87.3125 16.3047L86.3672 19.6562H77.6016V19.1406H78.1172C78.4036 19.1406 78.6042 19.0833 78.7188 18.9688C78.8333 18.8542 78.8906 18.6823 78.8906 18.4531V6.16406C78.8906 5.9349 78.8333 5.76302 78.7188 5.64844C78.6042 5.53385 78.4036 5.47656 78.1172 5.47656H77.6875Z" fill="#0E111A"/>
<path d="M99.691 19V5.51H105.277C105.86 5.51 106.392 5.63033 106.873 5.871C107.367 6.11167 107.791 6.441 108.146 6.859C108.501 7.26433 108.779 7.72033 108.982 8.227C109.185 8.721 109.286 9.22767 109.286 9.747C109.286 10.4817 109.121 11.1783 108.792 11.837C108.475 12.483 108.026 13.0087 107.443 13.414C106.86 13.8193 106.176 14.022 105.391 14.022H101.021V19H99.691ZM101.021 12.844H105.334C105.866 12.844 106.328 12.6983 106.721 12.407C107.114 12.1157 107.418 11.7357 107.633 11.267C107.848 10.7983 107.956 10.2917 107.956 9.747C107.956 9.18967 107.829 8.67667 107.576 8.208C107.323 7.73933 106.987 7.372 106.569 7.106C106.164 6.82733 105.714 6.688 105.22 6.688H101.021V12.844ZM114.763 5.51H115.884L121.489 19H120.083L118.335 14.782H112.274L110.545 19H109.12L114.763 5.51ZM118.031 13.737L115.314 7.068L112.559 13.737H118.031ZM123.498 19V5.51H124.809V17.176L133.169 5.51H134.404V19H133.093V7.543L124.828 19H123.498ZM128.97 4.37C128.35 4.37 127.824 4.28133 127.393 4.104C126.975 3.914 126.659 3.66067 126.443 3.344C126.228 3.01467 126.114 2.66 126.101 2.28H127.146C127.159 2.60933 127.292 2.907 127.545 3.173C127.811 3.439 128.286 3.572 128.97 3.572C129.629 3.572 130.091 3.45167 130.357 3.211C130.623 2.95767 130.763 2.64733 130.775 2.28H131.82C131.808 2.66 131.694 3.01467 131.478 3.344C131.263 3.66067 130.946 3.914 130.528 4.104C130.123 4.28133 129.604 4.37 128.97 4.37ZM142.701 19V5.51H152.885V19H151.555V6.688H144.031V19H142.701ZM160.444 5.51H161.565L167.17 19H165.764L164.016 14.782H157.955L156.226 19H154.801L160.444 5.51ZM163.712 13.737L160.995 7.068L158.24 13.737H163.712ZM169.104 19V5.51H174.69C175.273 5.51 175.805 5.63033 176.286 5.871C176.78 6.11167 177.204 6.441 177.559 6.859C177.914 7.26433 178.192 7.72033 178.395 8.227C178.598 8.721 178.699 9.22767 178.699 9.747C178.699 10.4817 178.534 11.1783 178.205 11.837C177.888 12.483 177.439 13.0087 176.856 13.414C176.273 13.8193 175.589 14.022 174.804 14.022H170.434V19H169.104ZM170.434 12.844H174.747C175.279 12.844 175.741 12.6983 176.134 12.407C176.527 12.1157 176.831 11.7357 177.046 11.267C177.261 10.7983 177.369 10.2917 177.369 9.747C177.369 9.18967 177.242 8.67667 176.989 8.208C176.736 7.73933 176.4 7.372 175.982 7.106C175.577 6.82733 175.127 6.688 174.633 6.688H170.434V12.844ZM184.176 5.51H185.297L190.902 19H189.496L187.748 14.782H181.687L179.958 19H178.533L184.176 5.51ZM187.444 13.737L184.727 7.068L181.972 13.737H187.444Z" fill="#0E111A"/>
</svg>
