<svg width="464" height="464" viewBox="0 0 464 464" fill="none" xmlns="http://www.w3.org/2000/svg">
<path d="M207.093 23.7579C221.035 10.4593 242.965 10.4593 256.907 23.7579C266.774 33.1701 281.104 36.216 293.946 31.631C312.092 25.1526 332.126 34.0723 339.453 51.8918C344.639 64.5036 356.491 73.1148 370.088 74.1496C389.3 75.6118 403.974 91.9089 403.42 111.168C403.028 124.799 410.353 137.486 422.353 143.962C439.309 153.112 446.086 173.968 437.747 191.337C431.844 203.63 433.376 218.2 441.705 228.997C453.473 244.252 451.181 266.062 436.498 278.537C426.106 287.367 421.579 301.3 424.796 314.551C429.342 333.274 418.377 352.266 399.89 357.691C386.805 361.53 377.002 372.417 374.551 385.832C371.089 404.785 353.348 417.675 334.252 415.111C320.737 413.296 307.353 419.255 299.658 430.513C288.786 446.42 267.336 450.979 250.934 440.87C239.325 433.715 224.675 433.715 213.066 440.87C196.664 450.979 175.214 446.42 164.342 430.513C156.647 419.255 143.263 413.296 129.748 415.111C110.652 417.675 92.9108 404.785 89.4485 385.832C86.9981 372.417 77.1952 361.53 64.1104 357.691C45.6226 352.266 34.6576 333.274 39.2038 314.551C42.4213 301.3 37.8941 287.367 27.5022 278.537C12.819 266.062 10.5267 244.252 22.2953 228.997C30.6244 218.2 32.1558 203.63 26.2535 191.337C17.9139 173.968 24.6906 153.112 41.6466 143.962C53.6472 137.486 60.9723 124.799 60.5802 111.168C60.0262 91.9089 74.7001 75.6118 93.9118 74.1496C107.509 73.1148 119.361 64.5036 124.547 51.8918C131.874 34.0723 151.908 25.1526 170.054 31.631C182.896 36.216 197.226 33.1701 207.093 23.7579Z" fill="#0E111A"/>
<circle cx="232" cy="232" r="179" fill="#AA3399"/>
<circle cx="231.5" cy="231.5" r="166" stroke="#0E111A" stroke-width="7"/>
<path d="M120.312 241.625V256.062C120.312 256.646 120.458 257.083 120.75 257.375C121.188 257.667 121.698 257.812 122.281 257.812H123.812V259.125H113.312V257.812H114.844C115.573 257.812 116.083 257.667 116.375 257.375C116.667 257.083 116.812 256.646 116.812 256.062V224.781C116.812 224.198 116.667 223.76 116.375 223.469C116.083 223.177 115.573 223.031 114.844 223.031H113.531V221.719H126.438C130.083 221.719 132.854 222.667 134.75 224.562C136.792 226.312 137.812 228.573 137.812 231.344C137.812 234.698 136.719 237.25 134.531 239C132.49 240.75 130.01 241.625 127.094 241.625H120.312ZM125.781 240.312C127.969 240.312 129.865 239.656 131.469 238.344C133.219 237.031 134.094 234.771 134.094 231.562C134.094 228.646 133.365 226.531 131.906 225.219C130.594 223.76 128.406 223.031 125.344 223.031H122.281C121.698 223.031 121.188 223.177 120.75 223.469C120.458 223.76 120.312 224.198 120.312 224.781V240.312H125.781ZM159.959 245.125H150.115L148.146 253.438C148 254.167 147.927 254.75 147.927 255.188C147.927 255.771 148 256.354 148.146 256.938C148.438 257.521 149.094 257.812 150.115 257.812H150.771V259.125H142.677V257.812H143.334C143.917 257.812 144.427 257.667 144.865 257.375C145.302 256.938 145.594 256.281 145.74 255.406L154.271 221.938L157.552 220.844L165.865 255.406C166.157 256.281 166.521 256.938 166.959 257.375C167.396 257.667 167.907 257.812 168.49 257.812H169.146V259.125H159.74V257.812H160.615C161.49 257.812 162 257.667 162.146 257.375C162.292 256.938 162.365 256.573 162.365 256.281C162.365 255.698 162.292 255.188 162.146 254.75L159.959 245.125ZM155.365 225.656H155.146L150.552 243.812H159.74L155.365 225.656ZM197.199 230.469C197.199 233.385 196.397 235.646 194.792 237.25C193.188 238.854 191.365 239.802 189.324 240.094L195.886 256.281C196.178 256.865 196.47 257.302 196.761 257.594C197.199 257.74 197.636 257.812 198.074 257.812H199.386V259.125H193.261L186.042 240.312H181.011V256.062C181.011 256.646 181.157 257.083 181.449 257.375C181.886 257.667 182.397 257.812 182.98 257.812H184.292V259.125H174.23V257.812H175.542C176.272 257.812 176.782 257.667 177.074 257.375C177.365 257.083 177.511 256.646 177.511 256.062V224.781C177.511 224.198 177.365 223.76 177.074 223.469C176.782 223.177 176.272 223.031 175.542 223.031H174.23V221.719H186.699C190.053 221.719 192.605 222.448 194.355 223.906C196.251 225.365 197.199 227.552 197.199 230.469ZM181.011 239H185.824C188.011 239 189.834 238.344 191.292 237.031C192.751 235.719 193.48 233.677 193.48 230.906C193.48 228.427 192.824 226.531 191.511 225.219C190.199 223.76 188.157 223.031 185.386 223.031H182.98C182.397 223.031 181.886 223.177 181.449 223.469C181.157 223.76 181.011 224.198 181.011 224.781V239ZM220.439 245.125H210.595L208.626 253.438C208.48 254.167 208.408 254.75 208.408 255.188C208.408 255.771 208.48 256.354 208.626 256.938C208.918 257.521 209.574 257.812 210.595 257.812H211.251V259.125H203.158V257.812H203.814C204.397 257.812 204.908 257.667 205.345 257.375C205.783 256.938 206.074 256.281 206.22 255.406L214.751 221.938L218.033 220.844L226.345 255.406C226.637 256.281 227.001 256.938 227.439 257.375C227.876 257.667 228.387 257.812 228.97 257.812H229.626V259.125H220.22V257.812H221.095C221.97 257.812 222.48 257.667 222.626 257.375C222.772 256.938 222.845 256.573 222.845 256.281C222.845 255.698 222.772 255.188 222.626 254.75L220.439 245.125ZM215.845 225.656H215.626L211.033 243.812H220.22L215.845 225.656ZM254.835 240.094C254.835 233.823 253.887 229.448 251.991 226.969C250.095 224.344 247.47 223.031 244.116 223.031C243.095 223.031 242.293 223.177 241.71 223.469C241.272 223.76 241.054 224.198 241.054 224.781V256.062C241.054 256.646 241.272 257.083 241.71 257.375C242.147 257.667 242.731 257.812 243.46 257.812C246.668 257.812 249.366 256.646 251.554 254.312C253.741 251.833 254.835 247.094 254.835 240.094ZM237.554 224.781C237.554 224.198 237.408 223.76 237.116 223.469C236.825 223.177 236.314 223.031 235.585 223.031H234.272V221.719H244.116C248.637 221.719 252.21 223.177 254.835 226.094C257.606 229.01 258.991 233.531 258.991 239.656C258.991 246.365 257.679 251.323 255.054 254.531C252.429 257.594 248.564 259.125 243.46 259.125H234.054V257.812H235.585C236.314 257.812 236.825 257.667 237.116 257.375C237.408 257.083 237.554 256.646 237.554 256.062V224.781ZM268.45 223.031V221.719H285.95V223.031H280.919C280.335 223.031 279.825 223.177 279.387 223.469C279.096 223.76 278.95 224.198 278.95 224.781V256.062C278.95 256.646 279.096 257.083 279.387 257.375C279.825 257.667 280.335 257.812 280.919 257.812H285.95V259.125H268.45V257.812H273.481C274.21 257.812 274.721 257.667 275.012 257.375C275.304 257.083 275.45 256.646 275.45 256.062V224.781C275.45 224.198 275.304 223.76 275.012 223.469C274.721 223.177 274.21 223.031 273.481 223.031H268.45ZM306.565 241.188C302.628 239.438 299.93 237.906 298.471 236.594C297.013 235.281 296.284 233.24 296.284 230.469C296.284 228.281 297.159 226.24 298.909 224.344C300.805 222.302 303.43 221.281 306.784 221.281C308.242 221.281 309.628 221.5 310.94 221.938C312.253 222.521 313.2 222.812 313.784 222.812C314.221 222.812 314.586 222.74 314.878 222.594C315.315 222.302 315.68 221.865 315.971 221.281L316.846 230.25L315.753 230.688C314.44 227.625 313.055 225.583 311.596 224.562C310.284 223.396 308.534 222.812 306.346 222.812C303.575 222.812 301.68 223.615 300.659 225.219C299.638 226.677 299.128 228.281 299.128 230.031C299.128 231.635 299.565 232.948 300.44 233.969C301.461 234.844 304.086 236.229 308.315 238.125C311.815 239.583 314.294 241.26 315.753 243.156C317.357 244.906 318.159 247.021 318.159 249.5C318.159 252.125 317.211 254.458 315.315 256.5C313.565 258.542 310.94 259.562 307.44 259.562C305.982 259.562 304.669 259.271 303.503 258.688C302.19 258.25 301.169 258.031 300.44 258.031C300.003 258.031 299.565 258.177 299.128 258.469C298.69 258.76 298.18 259.125 297.596 259.562L295.846 248.844L297.159 248.406C298.18 252.052 299.565 254.604 301.315 256.062C303.211 257.375 305.325 258.031 307.659 258.031C310.138 258.031 311.961 257.302 313.128 255.844C314.44 254.385 315.096 252.271 315.096 249.5C315.096 248.042 314.367 246.656 312.909 245.344C311.596 243.885 309.482 242.5 306.565 241.188ZM325.43 223.031V221.719H346.867L349.274 229.156L348.18 229.594C347.013 227.406 345.774 225.802 344.461 224.781C343.149 223.615 341.69 223.031 340.086 223.031H333.961C333.378 223.031 332.867 223.177 332.43 223.469C332.138 223.76 331.992 224.198 331.992 224.781V238.344H338.336C339.795 238.344 340.815 237.979 341.399 237.25C342.128 236.521 342.492 235.427 342.492 233.969V232.656H343.805V245.562H342.492V244.688C342.492 243.083 342.128 241.844 341.399 240.969C340.815 240.094 339.795 239.656 338.336 239.656H331.992V256.062C331.992 256.646 332.138 257.083 332.43 257.375C332.867 257.667 333.378 257.812 333.961 257.812H339.649C341.836 257.812 343.659 257.229 345.117 256.062C346.722 254.75 347.961 252.781 348.836 250.156L349.93 250.594L347.524 259.125H325.211V257.812H326.524C327.253 257.812 327.763 257.667 328.055 257.375C328.347 257.083 328.492 256.646 328.492 256.062V224.781C328.492 224.198 328.347 223.76 328.055 223.469C327.763 223.177 327.253 223.031 326.524 223.031H325.43Z" fill="#0E111A"/>
<path d="M120.312 241.625V241.125H119.812V241.625H120.312ZM120.75 257.375L120.396 257.729L120.431 257.764L120.473 257.791L120.75 257.375ZM123.812 257.812H124.312V257.312H123.812V257.812ZM123.812 259.125V259.625H124.312V259.125H123.812ZM113.312 259.125H112.812V259.625H113.312V259.125ZM113.312 257.812V257.312H112.812V257.812H113.312ZM113.531 223.031H113.031V223.531H113.531V223.031ZM113.531 221.719V221.219H113.031V221.719H113.531ZM134.75 224.562L134.396 224.916L134.41 224.93L134.425 224.942L134.75 224.562ZM134.531 239L134.219 238.61L134.212 238.615L134.206 238.62L134.531 239ZM131.469 238.344L131.169 237.944L131.16 237.95L131.152 237.957L131.469 238.344ZM131.906 225.219L131.535 225.553L131.552 225.573L131.572 225.59L131.906 225.219ZM120.75 223.469L120.473 223.053L120.431 223.08L120.396 223.115L120.75 223.469ZM120.312 240.312H119.812V240.812H120.312V240.312ZM119.812 241.625V256.062H120.812V241.625H119.812ZM119.812 256.062C119.812 256.723 119.978 257.31 120.396 257.729L121.104 257.021C120.939 256.857 120.812 256.569 120.812 256.062H119.812ZM120.473 257.791C121.001 258.143 121.61 258.312 122.281 258.312V257.312C121.785 257.312 121.374 257.19 121.027 256.959L120.473 257.791ZM122.281 258.312H123.812V257.312H122.281V258.312ZM123.312 257.812V259.125H124.312V257.812H123.312ZM123.812 258.625H113.312V259.625H123.812V258.625ZM113.812 259.125V257.812H112.812V259.125H113.812ZM113.312 258.312H114.844V257.312H113.312V258.312ZM114.844 258.312C115.612 258.312 116.293 258.164 116.729 257.729L116.021 257.021C115.874 257.169 115.534 257.312 114.844 257.312V258.312ZM116.729 257.729C117.147 257.31 117.312 256.723 117.312 256.062H116.312C116.312 256.569 116.186 256.857 116.021 257.021L116.729 257.729ZM117.312 256.062V224.781H116.312V256.062H117.312ZM117.312 224.781C117.312 224.121 117.147 223.534 116.729 223.115L116.021 223.822C116.186 223.987 116.312 224.275 116.312 224.781H117.312ZM116.729 223.115C116.293 222.68 115.612 222.531 114.844 222.531V223.531C115.534 223.531 115.874 223.675 116.021 223.822L116.729 223.115ZM114.844 222.531H113.531V223.531H114.844V222.531ZM114.031 223.031V221.719H113.031V223.031H114.031ZM113.531 222.219H126.438V221.219H113.531V222.219ZM126.438 222.219C130 222.219 132.624 223.144 134.396 224.916L135.104 224.209C133.084 222.19 130.167 221.219 126.438 221.219V222.219ZM134.425 224.942C136.352 226.594 137.312 228.714 137.312 231.344H138.312C138.312 228.432 137.232 226.031 135.075 224.183L134.425 224.942ZM137.312 231.344C137.312 234.579 136.264 236.973 134.219 238.61L134.844 239.39C137.173 237.527 138.312 234.816 138.312 231.344H137.312ZM134.206 238.62C132.263 240.286 129.902 241.125 127.094 241.125V242.125C130.119 242.125 132.716 241.214 134.857 239.38L134.206 238.62ZM127.094 241.125H120.312V242.125H127.094V241.125ZM125.781 240.812C128.077 240.812 130.087 240.121 131.785 238.731L131.152 237.957C129.642 239.192 127.86 239.812 125.781 239.812V240.812ZM131.769 238.744C133.696 237.299 134.594 234.851 134.594 231.562H133.594C133.594 234.69 132.742 236.764 131.169 237.944L131.769 238.744ZM134.594 231.562C134.594 228.574 133.847 226.293 132.241 224.847L131.572 225.59C132.882 226.77 133.594 228.718 133.594 231.562H134.594ZM132.278 224.884C130.828 223.274 128.469 222.531 125.344 222.531V223.531C128.343 223.531 130.359 224.247 131.535 225.553L132.278 224.884ZM125.344 222.531H122.281V223.531H125.344V222.531ZM122.281 222.531C121.61 222.531 121.001 222.7 120.473 223.053L121.027 223.885C121.374 223.654 121.785 223.531 122.281 223.531V222.531ZM120.396 223.115C119.978 223.534 119.812 224.121 119.812 224.781H120.812C120.812 224.275 120.939 223.987 121.104 223.822L120.396 223.115ZM119.812 224.781V240.312H120.812V224.781H119.812ZM120.312 240.812H125.781V239.812H120.312V240.812ZM159.959 245.125L160.446 245.014L160.358 244.625H159.959V245.125ZM150.115 245.125V244.625H149.72L149.628 245.01L150.115 245.125ZM148.146 253.438L147.66 253.322L147.658 253.331L147.656 253.339L148.146 253.438ZM148.146 256.938L147.661 257.059L147.674 257.112L147.699 257.161L148.146 256.938ZM150.771 257.812H151.271V257.312H150.771V257.812ZM150.771 259.125V259.625H151.271V259.125H150.771ZM142.677 259.125H142.177V259.625H142.677V259.125ZM142.677 257.812V257.312H142.177V257.812H142.677ZM144.865 257.375L145.142 257.791L145.184 257.764L145.219 257.729L144.865 257.375ZM145.74 255.406L145.255 255.283L145.25 255.303L145.247 255.324L145.74 255.406ZM154.271 221.938L154.113 221.463L153.854 221.549L153.787 221.814L154.271 221.938ZM157.552 220.844L158.039 220.727L157.911 220.197L157.394 220.369L157.552 220.844ZM165.865 255.406L165.379 255.523L165.384 255.544L165.391 255.564L165.865 255.406ZM166.959 257.375L166.605 257.729L166.64 257.764L166.681 257.791L166.959 257.375ZM169.146 257.812H169.646V257.312H169.146V257.812ZM169.146 259.125V259.625H169.646V259.125H169.146ZM159.74 259.125H159.24V259.625H159.74V259.125ZM159.74 257.812V257.312H159.24V257.812H159.74ZM162.146 257.375L162.593 257.599L162.609 257.567L162.621 257.533L162.146 257.375ZM162.146 254.75L161.659 254.861L161.664 254.885L161.672 254.908L162.146 254.75ZM155.365 225.656L155.851 225.539L155.759 225.156H155.365V225.656ZM155.146 225.656V225.156H154.757L154.662 225.534L155.146 225.656ZM150.552 243.812L150.068 243.69L149.91 244.312H150.552V243.812ZM159.74 243.812V244.312H160.375L160.226 243.695L159.74 243.812ZM159.959 244.625H150.115V245.625H159.959V244.625ZM149.628 245.01L147.66 253.322L148.633 253.553L150.602 245.24L149.628 245.01ZM147.656 253.339C147.507 254.082 147.427 254.702 147.427 255.188H148.427C148.427 254.798 148.493 254.251 148.637 253.536L147.656 253.339ZM147.427 255.188C147.427 255.813 147.506 256.437 147.661 257.059L148.631 256.816C148.495 256.271 148.427 255.729 148.427 255.188H147.427ZM147.699 257.161C148.118 257.998 149.022 258.312 150.115 258.312V257.312C149.166 257.312 148.758 257.044 148.593 256.714L147.699 257.161ZM150.115 258.312H150.771V257.312H150.115V258.312ZM150.271 257.812V259.125H151.271V257.812H150.271ZM150.771 258.625H142.677V259.625H150.771V258.625ZM143.177 259.125V257.812H142.177V259.125H143.177ZM142.677 258.312H143.334V257.312H142.677V258.312ZM143.334 258.312C144.005 258.312 144.614 258.143 145.142 257.791L144.588 256.959C144.241 257.19 143.83 257.312 143.334 257.312V258.312ZM145.219 257.729C145.755 257.192 146.077 256.423 146.233 255.488L145.247 255.324C145.111 256.139 144.85 256.683 144.511 257.021L145.219 257.729ZM146.225 255.53L154.756 222.061L153.787 221.814L145.255 255.283L146.225 255.53ZM154.429 222.412L157.711 221.318L157.394 220.369L154.113 221.463L154.429 222.412ZM157.066 220.961L165.379 255.523L166.351 255.289L158.039 220.727L157.066 220.961ZM165.391 255.564C165.696 256.48 166.093 257.216 166.605 257.729L167.312 257.021C166.95 256.659 166.618 256.083 166.339 255.248L165.391 255.564ZM166.681 257.791C167.21 258.143 167.819 258.312 168.49 258.312V257.312C167.994 257.312 167.583 257.19 167.236 256.959L166.681 257.791ZM168.49 258.312H169.146V257.312H168.49V258.312ZM168.646 257.812V259.125H169.646V257.812H168.646ZM169.146 258.625H159.74V259.625H169.146V258.625ZM160.24 259.125V257.812H159.24V259.125H160.24ZM159.74 258.312H160.615V257.312H159.74V258.312ZM160.615 258.312C161.073 258.312 161.472 258.275 161.791 258.184C162.099 258.096 162.428 257.93 162.593 257.599L161.699 257.151C161.719 257.112 161.719 257.165 161.517 257.222C161.326 257.277 161.032 257.312 160.615 257.312V258.312ZM162.621 257.533C162.775 257.071 162.865 256.649 162.865 256.281H161.865C161.865 256.497 161.809 256.804 161.672 257.217L162.621 257.533ZM162.865 256.281C162.865 255.658 162.787 255.092 162.621 254.592L161.672 254.908C161.797 255.283 161.865 255.738 161.865 256.281H162.865ZM162.634 254.639L160.446 245.014L159.471 245.236L161.659 254.861L162.634 254.639ZM155.365 225.156H155.146V226.156H155.365V225.156ZM154.662 225.534L150.068 243.69L151.037 243.935L155.631 225.779L154.662 225.534ZM150.552 244.312H159.74V243.312H150.552V244.312ZM160.226 243.695L155.851 225.539L154.879 225.773L159.254 243.93L160.226 243.695ZM189.324 240.094L189.253 239.599L188.62 239.689L188.86 240.282L189.324 240.094ZM195.886 256.281L195.423 256.469L195.43 256.487L195.439 256.505L195.886 256.281ZM196.761 257.594L196.408 257.947L196.491 258.031L196.603 258.068L196.761 257.594ZM199.386 257.812H199.886V257.312H199.386V257.812ZM199.386 259.125V259.625H199.886V259.125H199.386ZM193.261 259.125L192.794 259.304L192.918 259.625H193.261V259.125ZM186.042 240.312L186.509 240.133L186.386 239.812H186.042V240.312ZM181.011 240.312V239.812H180.511V240.312H181.011ZM181.449 257.375L181.095 257.729L181.13 257.764L181.171 257.791L181.449 257.375ZM184.292 257.812H184.792V257.312H184.292V257.812ZM184.292 259.125V259.625H184.792V259.125H184.292ZM174.23 259.125H173.73V259.625H174.23V259.125ZM174.23 257.812V257.312H173.73V257.812H174.23ZM174.23 223.031H173.73V223.531H174.23V223.031ZM174.23 221.719V221.219H173.73V221.719H174.23ZM194.355 223.906L194.035 224.29L194.042 224.297L194.05 224.303L194.355 223.906ZM181.011 239H180.511V239.5H181.011V239ZM191.511 225.219L191.14 225.553L191.148 225.563L191.158 225.572L191.511 225.219ZM181.449 223.469L181.171 223.053L181.13 223.08L181.095 223.115L181.449 223.469ZM196.699 230.469C196.699 233.292 195.925 235.411 194.439 236.896L195.146 237.604C196.869 235.881 197.699 233.478 197.699 230.469H196.699ZM194.439 236.896C192.903 238.432 191.177 239.324 189.253 239.599L189.394 240.589C191.554 240.28 193.473 239.276 195.146 237.604L194.439 236.896ZM188.86 240.282L195.423 256.469L196.35 256.093L189.787 239.906L188.86 240.282ZM195.439 256.505C195.742 257.112 196.063 257.602 196.408 257.947L197.115 257.24C196.877 257.002 196.613 256.617 196.333 256.058L195.439 256.505ZM196.603 258.068C197.089 258.23 197.58 258.312 198.074 258.312V257.312C197.693 257.312 197.309 257.249 196.919 257.119L196.603 258.068ZM198.074 258.312H199.386V257.312H198.074V258.312ZM198.886 257.812V259.125H199.886V257.812H198.886ZM199.386 258.625H193.261V259.625H199.386V258.625ZM193.728 258.946L186.509 240.133L185.576 240.492L192.794 259.304L193.728 258.946ZM186.042 239.812H181.011V240.812H186.042V239.812ZM180.511 240.312V256.062H181.511V240.312H180.511ZM180.511 256.062C180.511 256.723 180.677 257.31 181.095 257.729L181.802 257.021C181.637 256.857 181.511 256.569 181.511 256.062H180.511ZM181.171 257.791C181.7 258.143 182.309 258.312 182.98 258.312V257.312C182.484 257.312 182.073 257.19 181.726 256.959L181.171 257.791ZM182.98 258.312H184.292V257.312H182.98V258.312ZM183.792 257.812V259.125H184.792V257.812H183.792ZM184.292 258.625H174.23V259.625H184.292V258.625ZM174.73 259.125V257.812H173.73V259.125H174.73ZM174.23 258.312H175.542V257.312H174.23V258.312ZM175.542 258.312C176.311 258.312 176.992 258.164 177.427 257.729L176.72 257.021C176.572 257.169 176.233 257.312 175.542 257.312V258.312ZM177.427 257.729C177.846 257.31 178.011 256.723 178.011 256.062H177.011C177.011 256.569 176.885 256.857 176.72 257.021L177.427 257.729ZM178.011 256.062V224.781H177.011V256.062H178.011ZM178.011 224.781C178.011 224.121 177.846 223.534 177.427 223.115L176.72 223.822C176.885 223.987 177.011 224.275 177.011 224.781H178.011ZM177.427 223.115C176.992 222.68 176.311 222.531 175.542 222.531V223.531C176.233 223.531 176.572 223.675 176.72 223.822L177.427 223.115ZM175.542 222.531H174.23V223.531H175.542V222.531ZM174.73 223.031V221.719H173.73V223.031H174.73ZM174.23 222.219H186.699V221.219H174.23V222.219ZM186.699 222.219C189.99 222.219 192.409 222.935 194.035 224.29L194.675 223.522C192.801 221.961 190.116 221.219 186.699 221.219V222.219ZM194.05 224.303C195.796 225.645 196.699 227.669 196.699 230.469H197.699C197.699 227.435 196.706 225.084 194.66 223.51L194.05 224.303ZM181.011 239.5H185.824V238.5H181.011V239.5ZM185.824 239.5C188.119 239.5 190.066 238.808 191.627 237.403L190.958 236.66C189.602 237.88 187.903 238.5 185.824 238.5V239.5ZM191.627 237.403C193.228 235.962 193.98 233.759 193.98 230.906H192.98C192.98 233.595 192.273 235.476 190.958 236.66L191.627 237.403ZM193.98 230.906C193.98 228.34 193.299 226.3 191.865 224.865L191.158 225.572C192.348 226.763 192.98 228.514 192.98 230.906H193.98ZM191.883 224.884C190.442 223.283 188.239 222.531 185.386 222.531V223.531C188.075 223.531 189.956 224.238 191.14 225.553L191.883 224.884ZM185.386 222.531H182.98V223.531H185.386V222.531ZM182.98 222.531C182.309 222.531 181.7 222.7 181.171 223.053L181.726 223.885C182.073 223.654 182.484 223.531 182.98 223.531V222.531ZM181.095 223.115C180.677 223.534 180.511 224.121 180.511 224.781H181.511C181.511 224.275 181.637 223.987 181.802 223.822L181.095 223.115ZM180.511 224.781V239H181.511V224.781H180.511ZM220.439 245.125L220.926 245.014L220.838 244.625H220.439V245.125ZM210.595 245.125V244.625H210.2L210.108 245.01L210.595 245.125ZM208.626 253.438L208.14 253.322L208.138 253.331L208.136 253.339L208.626 253.438ZM208.626 256.938L208.141 257.059L208.154 257.112L208.179 257.161L208.626 256.938ZM211.251 257.812H211.751V257.312H211.251V257.812ZM211.251 259.125V259.625H211.751V259.125H211.251ZM203.158 259.125H202.658V259.625H203.158V259.125ZM203.158 257.812V257.312H202.658V257.812H203.158ZM205.345 257.375L205.622 257.791L205.664 257.764L205.699 257.729L205.345 257.375ZM206.22 255.406L205.735 255.283L205.73 255.303L205.727 255.324L206.22 255.406ZM214.751 221.938L214.593 221.463L214.334 221.549L214.267 221.814L214.751 221.938ZM218.033 220.844L218.519 220.727L218.391 220.197L217.874 220.369L218.033 220.844ZM226.345 255.406L225.859 255.523L225.864 255.544L225.871 255.564L226.345 255.406ZM227.439 257.375L227.085 257.729L227.12 257.764L227.161 257.791L227.439 257.375ZM229.626 257.812H230.126V257.312H229.626V257.812ZM229.626 259.125V259.625H230.126V259.125H229.626ZM220.22 259.125H219.72V259.625H220.22V259.125ZM220.22 257.812V257.312H219.72V257.812H220.22ZM222.626 257.375L223.073 257.599L223.089 257.567L223.101 257.533L222.626 257.375ZM222.626 254.75L222.139 254.861L222.144 254.885L222.152 254.908L222.626 254.75ZM215.845 225.656L216.331 225.539L216.239 225.156H215.845V225.656ZM215.626 225.656V225.156H215.237L215.142 225.534L215.626 225.656ZM211.033 243.812L210.548 243.69L210.39 244.312H211.033V243.812ZM220.22 243.812V244.312H220.855L220.706 243.695L220.22 243.812ZM220.439 244.625H210.595V245.625H220.439V244.625ZM210.108 245.01L208.14 253.322L209.113 253.553L211.082 245.24L210.108 245.01ZM208.136 253.339C207.987 254.082 207.908 254.702 207.908 255.188H208.908C208.908 254.798 208.973 254.251 209.117 253.536L208.136 253.339ZM207.908 255.188C207.908 255.813 207.986 256.437 208.141 257.059L209.111 256.816C208.975 256.271 208.908 255.729 208.908 255.188H207.908ZM208.179 257.161C208.598 257.998 209.502 258.312 210.595 258.312V257.312C209.646 257.312 209.238 257.044 209.073 256.714L208.179 257.161ZM210.595 258.312H211.251V257.312H210.595V258.312ZM210.751 257.812V259.125H211.751V257.812H210.751ZM211.251 258.625H203.158V259.625H211.251V258.625ZM203.658 259.125V257.812H202.658V259.125H203.658ZM203.158 258.312H203.814V257.312H203.158V258.312ZM203.814 258.312C204.485 258.312 205.094 258.143 205.622 257.791L205.068 256.959C204.721 257.19 204.31 257.312 203.814 257.312V258.312ZM205.699 257.729C206.235 257.192 206.557 256.423 206.713 255.488L205.727 255.324C205.591 256.139 205.33 256.683 204.991 257.021L205.699 257.729ZM206.705 255.53L215.236 222.061L214.267 221.814L205.735 255.283L206.705 255.53ZM214.909 222.412L218.191 221.318L217.874 220.369L214.593 221.463L214.909 222.412ZM217.546 220.961L225.859 255.523L226.831 255.289L218.519 220.727L217.546 220.961ZM225.871 255.564C226.176 256.48 226.573 257.216 227.085 257.729L227.792 257.021C227.43 256.659 227.098 256.083 226.819 255.248L225.871 255.564ZM227.161 257.791C227.69 258.143 228.299 258.312 228.97 258.312V257.312C228.474 257.312 228.063 257.19 227.716 256.959L227.161 257.791ZM228.97 258.312H229.626V257.312H228.97V258.312ZM229.126 257.812V259.125H230.126V257.812H229.126ZM229.626 258.625H220.22V259.625H229.626V258.625ZM220.72 259.125V257.812H219.72V259.125H220.72ZM220.22 258.312H221.095V257.312H220.22V258.312ZM221.095 258.312C221.553 258.312 221.952 258.275 222.271 258.184C222.579 258.096 222.908 257.93 223.073 257.599L222.179 257.151C222.199 257.112 222.199 257.165 221.997 257.222C221.806 257.277 221.512 257.312 221.095 257.312V258.312ZM223.101 257.533C223.255 257.071 223.345 256.649 223.345 256.281H222.345C222.345 256.497 222.289 256.804 222.152 257.217L223.101 257.533ZM223.345 256.281C223.345 255.658 223.267 255.092 223.101 254.592L222.152 254.908C222.277 255.283 222.345 255.738 222.345 256.281H223.345ZM223.114 254.639L220.926 245.014L219.951 245.236L222.139 254.861L223.114 254.639ZM215.845 225.156H215.626V226.156H215.845V225.156ZM215.142 225.534L210.548 243.69L211.517 243.935L216.111 225.779L215.142 225.534ZM211.033 244.312H220.22V243.312H211.033V244.312ZM220.706 243.695L216.331 225.539L215.359 225.773L219.734 243.93L220.706 243.695ZM251.991 226.969L251.586 227.262L251.594 227.272L251.991 226.969ZM241.71 223.469L241.486 223.022L241.459 223.035L241.433 223.053L241.71 223.469ZM251.554 254.312L251.919 254.654L251.924 254.649L251.929 254.643L251.554 254.312ZM234.272 223.031H233.772V223.531H234.272V223.031ZM234.272 221.719V221.219H233.772V221.719H234.272ZM254.835 226.094L254.463 226.428L254.473 226.438L254.835 226.094ZM255.054 254.531L255.433 254.857L255.441 254.848L255.054 254.531ZM234.054 259.125H233.554V259.625H234.054V259.125ZM234.054 257.812V257.312H233.554V257.812H234.054ZM255.335 240.094C255.335 233.806 254.391 229.284 252.388 226.665L251.594 227.272C253.383 229.612 254.335 233.84 254.335 240.094H255.335ZM252.397 226.676C250.403 223.915 247.624 222.531 244.116 222.531V223.531C247.317 223.531 249.788 224.772 251.586 227.261L252.397 226.676ZM244.116 222.531C243.057 222.531 242.167 222.681 241.486 223.022L241.934 223.916C242.419 223.673 243.134 223.531 244.116 223.531V222.531ZM241.433 223.053C240.839 223.448 240.554 224.052 240.554 224.781H241.554C241.554 224.344 241.706 224.072 241.987 223.885L241.433 223.053ZM240.554 224.781V256.062H241.554V224.781H240.554ZM240.554 256.062C240.554 256.791 240.839 257.395 241.433 257.791L241.987 256.959C241.706 256.771 241.554 256.5 241.554 256.062H240.554ZM241.433 257.791C241.978 258.155 242.669 258.312 243.46 258.312V257.312C242.793 257.312 242.317 257.178 241.987 256.959L241.433 257.791ZM243.46 258.312C246.806 258.312 249.636 257.089 251.919 254.654L251.189 253.971C249.096 256.203 246.531 257.312 243.46 257.312V258.312ZM251.929 254.643C253.097 253.319 253.944 251.426 254.502 249.011C255.06 246.592 255.335 243.617 255.335 240.094H254.335C254.335 243.571 254.063 246.465 253.527 248.786C252.991 251.11 252.198 252.827 251.179 253.982L251.929 254.643ZM238.054 224.781C238.054 224.121 237.888 223.534 237.47 223.115L236.763 223.822C236.928 223.987 237.054 224.275 237.054 224.781H238.054ZM237.47 223.115C237.034 222.68 236.353 222.531 235.585 222.531V223.531C236.275 223.531 236.615 223.675 236.763 223.822L237.47 223.115ZM235.585 222.531H234.272V223.531H235.585V222.531ZM234.772 223.031V221.719H233.772V223.031H234.772ZM234.272 222.219H244.116V221.219H234.272V222.219ZM244.116 222.219C248.519 222.219 251.948 223.633 254.463 226.428L255.207 225.759C252.472 222.721 248.755 221.219 244.116 221.219V222.219ZM254.473 226.438C257.119 229.223 258.491 233.594 258.491 239.656H259.491C259.491 233.468 258.093 228.797 255.197 225.749L254.473 226.438ZM258.491 239.656C258.491 246.316 257.185 251.136 254.667 254.215L255.441 254.848C258.172 251.51 259.491 246.414 259.491 239.656H258.491ZM254.674 254.206C252.168 257.129 248.46 258.625 243.46 258.625V259.625C248.668 259.625 252.689 258.058 255.433 254.857L254.674 254.206ZM243.46 258.625H234.054V259.625H243.46V258.625ZM234.554 259.125V257.812H233.554V259.125H234.554ZM234.054 258.312H235.585V257.312H234.054V258.312ZM235.585 258.312C236.353 258.312 237.034 258.164 237.47 257.729L236.763 257.021C236.615 257.169 236.275 257.312 235.585 257.312V258.312ZM237.47 257.729C237.888 257.31 238.054 256.723 238.054 256.062H237.054C237.054 256.569 236.928 256.857 236.763 257.021L237.47 257.729ZM238.054 256.062V224.781H237.054V256.062H238.054ZM268.45 223.031H267.95V223.531H268.45V223.031ZM268.45 221.719V221.219H267.95V221.719H268.45ZM285.95 221.719H286.45V221.219H285.95V221.719ZM285.95 223.031V223.531H286.45V223.031H285.95ZM279.387 223.469L279.11 223.053L279.069 223.08L279.034 223.115L279.387 223.469ZM279.387 257.375L279.034 257.729L279.069 257.764L279.11 257.791L279.387 257.375ZM285.95 257.812H286.45V257.312H285.95V257.812ZM285.95 259.125V259.625H286.45V259.125H285.95ZM268.45 259.125H267.95V259.625H268.45V259.125ZM268.45 257.812V257.312H267.95V257.812H268.45ZM268.95 223.031V221.719H267.95V223.031H268.95ZM268.45 222.219H285.95V221.219H268.45V222.219ZM285.45 221.719V223.031H286.45V221.719H285.45ZM285.95 222.531H280.919V223.531H285.95V222.531ZM280.919 222.531C280.248 222.531 279.639 222.7 279.11 223.053L279.665 223.885C280.011 223.654 280.423 223.531 280.919 223.531V222.531ZM279.034 223.115C278.615 223.534 278.45 224.121 278.45 224.781H279.45C279.45 224.275 279.576 223.987 279.741 223.822L279.034 223.115ZM278.45 224.781V256.062H279.45V224.781H278.45ZM278.45 256.062C278.45 256.723 278.615 257.31 279.034 257.729L279.741 257.021C279.576 256.857 279.45 256.569 279.45 256.062H278.45ZM279.11 257.791C279.639 258.143 280.248 258.312 280.919 258.312V257.312C280.423 257.312 280.011 257.19 279.665 256.959L279.11 257.791ZM280.919 258.312H285.95V257.312H280.919V258.312ZM285.45 257.812V259.125H286.45V257.812H285.45ZM285.95 258.625H268.45V259.625H285.95V258.625ZM268.95 259.125V257.812H267.95V259.125H268.95ZM268.45 258.312H273.481V257.312H268.45V258.312ZM273.481 258.312C274.249 258.312 274.93 258.164 275.366 257.729L274.659 257.021C274.511 257.169 274.172 257.312 273.481 257.312V258.312ZM275.366 257.729C275.785 257.31 275.95 256.723 275.95 256.062H274.95C274.95 256.569 274.824 256.857 274.659 257.021L275.366 257.729ZM275.95 256.062V224.781H274.95V256.062H275.95ZM275.95 224.781C275.95 224.121 275.785 223.534 275.366 223.115L274.659 223.822C274.824 223.987 274.95 224.275 274.95 224.781H275.95ZM275.366 223.115C274.93 222.68 274.249 222.531 273.481 222.531V223.531C274.172 223.531 274.511 223.675 274.659 223.822L275.366 223.115ZM273.481 222.531H268.45V223.531H273.481V222.531ZM306.565 241.188L306.77 240.732L306.768 240.731L306.565 241.188ZM298.909 224.344L298.542 224.004L298.541 224.005L298.909 224.344ZM310.94 221.938L311.143 221.481L311.121 221.471L311.098 221.463L310.94 221.938ZM314.878 222.594L315.101 223.041L315.129 223.027L315.155 223.01L314.878 222.594ZM315.971 221.281L316.469 221.233L316.3 219.505L315.524 221.058L315.971 221.281ZM316.846 230.25L317.032 230.714L317.38 230.575L317.344 230.201L316.846 230.25ZM315.753 230.688L315.293 230.884L315.485 231.333L315.938 231.152L315.753 230.688ZM311.596 224.562L311.264 224.936L311.286 224.955L311.31 224.972L311.596 224.562ZM300.659 225.219L301.068 225.505L301.075 225.496L301.081 225.487L300.659 225.219ZM300.44 233.969L300.06 234.294L300.085 234.323L300.115 234.348L300.44 233.969ZM308.315 238.125L308.11 238.581L308.123 238.587L308.315 238.125ZM315.753 243.156L315.356 243.461L315.369 243.478L315.384 243.494L315.753 243.156ZM315.315 256.5L314.949 256.16L314.942 256.167L314.935 256.175L315.315 256.5ZM303.503 258.688L303.726 258.24L303.694 258.224L303.661 258.213L303.503 258.688ZM297.596 259.562L297.103 259.643L297.236 260.458L297.896 259.963L297.596 259.562ZM295.846 248.844L295.688 248.369L295.284 248.504L295.353 248.924L295.846 248.844ZM297.159 248.406L297.64 248.271L297.499 247.766L297.001 247.932L297.159 248.406ZM301.315 256.062L300.995 256.447L301.012 256.461L301.03 256.474L301.315 256.062ZM313.128 255.844L312.756 255.509L312.746 255.52L312.737 255.531L313.128 255.844ZM312.909 245.344L312.537 245.678L312.555 245.698L312.574 245.715L312.909 245.344ZM306.768 240.731C302.835 238.983 300.201 237.478 298.806 236.222L298.137 236.965C299.658 238.335 302.42 239.892 306.362 241.644L306.768 240.731ZM298.806 236.222C297.49 235.038 296.784 233.158 296.784 230.469H295.784C295.784 233.321 296.535 235.524 298.137 236.965L298.806 236.222ZM296.784 230.469C296.784 228.429 297.595 226.504 299.276 224.683L298.541 224.005C296.722 225.975 295.784 228.133 295.784 230.469H296.784ZM299.275 224.684C301.057 222.765 303.538 221.781 306.784 221.781V220.781C303.321 220.781 300.552 221.839 298.542 224.004L299.275 224.684ZM306.784 221.781C308.191 221.781 309.523 221.992 310.782 222.412L311.098 221.463C309.732 221.008 308.293 220.781 306.784 220.781V221.781ZM310.737 222.394C312.046 222.976 313.082 223.312 313.784 223.312V222.312C313.318 222.312 312.459 222.065 311.143 221.481L310.737 222.394ZM313.784 223.312C314.274 223.312 314.72 223.231 315.101 223.041L314.654 222.147C314.451 222.248 314.169 222.312 313.784 222.312V223.312ZM315.155 223.01C315.68 222.66 316.097 222.148 316.418 221.505L315.524 221.058C315.262 221.582 314.95 221.945 314.6 222.178L315.155 223.01ZM315.474 221.33L316.349 230.299L317.344 230.201L316.469 221.233L315.474 221.33ZM316.661 229.786L315.567 230.223L315.938 231.152L317.032 230.714L316.661 229.786ZM316.212 230.491C314.89 227.406 313.459 225.256 311.883 224.153L311.31 224.972C312.65 225.91 313.99 227.844 315.293 230.884L316.212 230.491ZM311.928 224.189C310.503 222.922 308.625 222.312 306.346 222.312V223.312C308.443 223.312 310.064 223.87 311.264 224.936L311.928 224.189ZM306.346 222.312C303.489 222.312 301.387 223.143 300.237 224.95L301.081 225.487C301.972 224.086 303.662 223.312 306.346 223.312V222.312ZM300.249 224.932C299.171 226.473 298.628 228.177 298.628 230.031H299.628C299.628 228.386 300.105 226.881 301.068 225.505L300.249 224.932ZM298.628 230.031C298.628 231.731 299.093 233.166 300.06 234.294L300.82 233.643C300.037 232.73 299.628 231.54 299.628 230.031H298.628ZM300.115 234.348C300.671 234.825 301.625 235.412 302.941 236.106C304.267 236.806 305.991 237.631 308.11 238.581L308.52 237.669C306.41 236.723 304.707 235.908 303.408 235.222C302.098 234.531 301.23 233.987 300.765 233.589L300.115 234.348ZM308.123 238.587C311.585 240.029 313.973 241.664 315.356 243.461L316.149 242.851C314.615 240.857 312.045 239.138 308.507 237.663L308.123 238.587ZM315.384 243.494C316.9 245.147 317.659 247.14 317.659 249.5H318.659C318.659 246.902 317.814 244.665 316.121 242.818L315.384 243.494ZM317.659 249.5C317.659 251.991 316.764 254.204 314.949 256.16L315.681 256.84C317.657 254.712 318.659 252.259 318.659 249.5H317.659ZM314.935 256.175C313.307 258.074 310.841 259.062 307.44 259.062V260.062C311.039 260.062 313.823 259.009 315.695 256.825L314.935 256.175ZM307.44 259.062C306.05 259.062 304.816 258.785 303.726 258.24L303.279 259.135C304.523 259.757 305.913 260.062 307.44 260.062V259.062ZM303.661 258.213C302.334 257.771 301.252 257.531 300.44 257.531V258.531C301.087 258.531 302.046 258.729 303.344 259.162L303.661 258.213ZM300.44 257.531C299.885 257.531 299.353 257.718 298.85 258.053L299.405 258.885C299.777 258.637 300.12 258.531 300.44 258.531V257.531ZM298.85 258.053C298.403 258.351 297.884 258.721 297.296 259.162L297.896 259.963C298.475 259.529 298.977 259.17 299.405 258.885L298.85 258.053ZM298.09 259.482L296.34 248.763L295.353 248.924L297.103 259.643L298.09 259.482ZM296.004 249.318L297.317 248.881L297.001 247.932L295.688 248.369L296.004 249.318ZM296.677 248.541C297.709 252.226 299.131 254.893 300.995 256.447L301.635 255.678C299.999 254.315 298.65 251.878 297.64 248.271L296.677 248.541ZM301.03 256.474C303.011 257.845 305.225 258.531 307.659 258.531V257.531C305.426 257.531 303.411 256.905 301.6 255.651L301.03 256.474ZM307.659 258.531C310.236 258.531 312.227 257.769 313.518 256.156L312.737 255.531C311.694 256.835 310.039 257.531 307.659 257.531V258.531ZM313.499 256.178C314.923 254.596 315.596 252.344 315.596 249.5H314.596C314.596 252.198 313.957 254.175 312.756 255.509L313.499 256.178ZM315.596 249.5C315.596 247.856 314.769 246.345 313.243 244.972L312.574 245.715C313.965 246.967 314.596 248.228 314.596 249.5H315.596ZM313.28 245.009C311.901 243.477 309.715 242.057 306.77 240.732L306.36 241.643C309.248 242.943 311.291 244.294 312.537 245.678L313.28 245.009ZM325.43 223.031H324.93V223.531H325.43V223.031ZM325.43 221.719V221.219H324.93V221.719H325.43ZM346.867 221.719L347.343 221.565L347.231 221.219H346.867V221.719ZM349.274 229.156L349.459 229.62L349.893 229.447L349.749 229.002L349.274 229.156ZM348.18 229.594L347.739 229.829L347.95 230.224L348.366 230.058L348.18 229.594ZM344.461 224.781L344.129 225.155L344.141 225.166L344.154 225.176L344.461 224.781ZM332.43 223.469L332.153 223.053L332.111 223.08L332.076 223.115L332.43 223.469ZM331.992 238.344H331.492V238.844H331.992V238.344ZM341.399 237.25L341.045 236.896L341.026 236.916L341.008 236.938L341.399 237.25ZM342.492 232.656V232.156H341.992V232.656H342.492ZM343.805 232.656H344.305V232.156H343.805V232.656ZM343.805 245.562V246.062H344.305V245.562H343.805ZM342.492 245.562H341.992V246.062H342.492V245.562ZM341.399 240.969L340.983 241.246L340.998 241.268L341.015 241.289L341.399 240.969ZM331.992 239.656V239.156H331.492V239.656H331.992ZM332.43 257.375L332.076 257.729L332.111 257.764L332.153 257.791L332.43 257.375ZM345.117 256.062L345.43 256.453L345.434 256.449L345.117 256.062ZM348.836 250.156L349.022 249.692L348.53 249.495L348.362 249.998L348.836 250.156ZM349.93 250.594L350.411 250.729L350.533 250.297L350.116 250.13L349.93 250.594ZM347.524 259.125V259.625H347.902L348.005 259.261L347.524 259.125ZM325.211 259.125H324.711V259.625H325.211V259.125ZM325.211 257.812V257.312H324.711V257.812H325.211ZM325.93 223.031V221.719H324.93V223.031H325.93ZM325.43 222.219H346.867V221.219H325.43V222.219ZM346.392 221.873L348.798 229.31L349.749 229.002L347.343 221.565L346.392 221.873ZM349.088 228.692L347.994 229.13L348.366 230.058L349.459 229.62L349.088 228.692ZM348.621 229.358C347.436 227.137 346.156 225.466 344.768 224.387L344.154 225.176C345.391 226.138 346.59 227.676 347.739 229.829L348.621 229.358ZM344.793 224.408C343.399 223.168 341.825 222.531 340.086 222.531V223.531C341.556 223.531 342.899 224.061 344.129 225.155L344.793 224.408ZM340.086 222.531H333.961V223.531H340.086V222.531ZM333.961 222.531C333.29 222.531 332.681 222.7 332.153 223.053L332.707 223.885C333.054 223.654 333.465 223.531 333.961 223.531V222.531ZM332.076 223.115C331.658 223.534 331.492 224.121 331.492 224.781H332.492C332.492 224.275 332.619 223.987 332.784 223.822L332.076 223.115ZM331.492 224.781V238.344H332.492V224.781H331.492ZM331.992 238.844H338.336V237.844H331.992V238.844ZM338.336 238.844C339.86 238.844 341.068 238.464 341.789 237.562L341.008 236.938C340.563 237.494 339.729 237.844 338.336 237.844V238.844ZM341.752 237.604C342.608 236.748 342.992 235.504 342.992 233.969H341.992C341.992 235.35 341.648 236.294 341.045 236.896L341.752 237.604ZM342.992 233.969V232.656H341.992V233.969H342.992ZM342.492 233.156H343.805V232.156H342.492V233.156ZM343.305 232.656V245.562H344.305V232.656H343.305ZM343.805 245.062H342.492V246.062H343.805V245.062ZM342.992 245.562V244.688H341.992V245.562H342.992ZM342.992 244.688C342.992 243.013 342.612 241.644 341.783 240.649L341.015 241.289C341.643 242.043 341.992 243.153 341.992 244.688H342.992ZM341.815 240.691C341.105 239.627 339.891 239.156 338.336 239.156V240.156C339.698 240.156 340.525 240.56 340.983 241.246L341.815 240.691ZM338.336 239.156H331.992V240.156H338.336V239.156ZM331.492 239.656V256.062H332.492V239.656H331.492ZM331.492 256.062C331.492 256.723 331.658 257.31 332.076 257.729L332.784 257.021C332.619 256.857 332.492 256.569 332.492 256.062H331.492ZM332.153 257.791C332.681 258.143 333.29 258.312 333.961 258.312V257.312C333.465 257.312 333.054 257.19 332.707 256.959L332.153 257.791ZM333.961 258.312H339.649V257.312H333.961V258.312ZM339.649 258.312C341.929 258.312 343.868 257.702 345.43 256.453L344.805 255.672C343.45 256.756 341.743 257.312 339.649 257.312V258.312ZM345.434 256.449C347.132 255.06 348.415 253 349.311 250.314L348.362 249.998C347.507 252.563 346.311 254.44 344.801 255.676L345.434 256.449ZM348.651 250.62L349.744 251.058L350.116 250.13L349.022 249.692L348.651 250.62ZM349.449 250.458L347.043 258.989L348.005 259.261L350.411 250.729L349.449 250.458ZM347.524 258.625H325.211V259.625H347.524V258.625ZM325.711 259.125V257.812H324.711V259.125H325.711ZM325.211 258.312H326.524V257.312H325.211V258.312ZM326.524 258.312C327.292 258.312 327.973 258.164 328.409 257.729L327.701 257.021C327.554 257.169 327.214 257.312 326.524 257.312V258.312ZM328.409 257.729C328.827 257.31 328.992 256.723 328.992 256.062H327.992C327.992 256.569 327.866 256.857 327.701 257.021L328.409 257.729ZM328.992 256.062V224.781H327.992V256.062H328.992ZM328.992 224.781C328.992 224.121 328.827 223.534 328.409 223.115L327.701 223.822C327.866 223.987 327.992 224.275 327.992 224.781H328.992ZM328.409 223.115C327.973 222.68 327.292 222.531 326.524 222.531V223.531C327.214 223.531 327.554 223.675 327.701 223.822L328.409 223.115ZM326.524 222.531H325.43V223.531H326.524V222.531Z" fill="#0E111A"/>
<path d="M166.418 307V288.54H174.01C174.79 288.54 175.501 288.705 176.142 289.034C176.801 289.363 177.373 289.805 177.858 290.36C178.343 290.897 178.716 291.504 178.976 292.18C179.253 292.856 179.392 293.549 179.392 294.26C179.392 295.248 179.167 296.184 178.716 297.068C178.283 297.935 177.676 298.645 176.896 299.2C176.133 299.755 175.223 300.032 174.166 300.032H167.744V307H166.418ZM167.744 298.81H174.114C174.929 298.81 175.631 298.593 176.22 298.16C176.809 297.727 177.26 297.163 177.572 296.47C177.884 295.777 178.04 295.04 178.04 294.26C178.04 293.445 177.849 292.7 177.468 292.024C177.104 291.331 176.61 290.776 175.986 290.36C175.379 289.944 174.703 289.736 173.958 289.736H167.744V298.81ZM188.16 288.54H189.304L197.104 307H195.7L193.126 300.916H184.312L181.738 307H180.308L188.16 288.54ZM192.762 299.824L188.732 290.152L184.624 299.824H192.762ZM200.999 307V288.54H202.325V305.18L214.441 288.54H215.689V307H214.363V290.62L202.377 307H200.999ZM208.383 286.824C207.569 286.824 206.884 286.711 206.329 286.486C205.792 286.243 205.385 285.931 205.107 285.55C204.83 285.151 204.683 284.718 204.665 284.25H205.757C205.809 284.683 206.017 285.082 206.381 285.446C206.745 285.81 207.413 285.992 208.383 285.992C209.319 285.992 209.978 285.827 210.359 285.498C210.741 285.151 210.949 284.735 210.983 284.25H212.075C212.041 284.718 211.885 285.151 211.607 285.55C211.33 285.931 210.923 286.243 210.385 286.486C209.848 286.711 209.181 286.824 208.383 286.824ZM229.332 307V288.54H242.956V307H241.63V289.736H230.658V307H229.332ZM254.629 288.54H255.773L263.573 307H262.169L259.595 300.916H250.781L248.207 307H246.777L254.629 288.54ZM259.231 299.824L255.201 290.152L251.093 299.824H259.231ZM267.416 307V288.54H275.008C275.788 288.54 276.498 288.705 277.14 289.034C277.798 289.363 278.37 289.805 278.856 290.36C279.341 290.897 279.714 291.504 279.974 292.18C280.251 292.856 280.39 293.549 280.39 294.26C280.39 295.248 280.164 296.184 279.714 297.068C279.28 297.935 278.674 298.645 277.894 299.2C277.131 299.755 276.221 300.032 275.164 300.032H268.742V307H267.416ZM268.742 298.81H275.112C275.926 298.81 276.628 298.593 277.218 298.16C277.807 297.727 278.258 297.163 278.57 296.47C278.882 295.777 279.038 295.04 279.038 294.26C279.038 293.445 278.847 292.7 278.466 292.024C278.102 291.331 277.608 290.776 276.984 290.36C276.377 289.944 275.701 289.736 274.956 289.736H268.742V298.81ZM289.158 288.54H290.302L298.102 307H296.698L294.124 300.916H285.31L282.736 307H281.306L289.158 288.54ZM293.76 299.824L289.73 290.152L285.622 299.824H293.76Z" fill="#0E111A"/>
<path d="M231.5 331L237.566 344.151L251.948 345.856L241.315 355.689L244.137 369.894L231.5 362.82L218.863 369.894L221.685 355.689L211.052 345.856L225.434 344.151L231.5 331Z" fill="#0E111A"/>
<path d="M290 166H344" stroke="black"/>
<path d="M124 166H178" stroke="black"/>
<path d="M290 182H344" stroke="black"/>
<path d="M124 182H178" stroke="black"/>
<path fill-rule="evenodd" clip-rule="evenodd" d="M229 182L276 133.5L255 113H203.5L182 133.5L229 182ZM220.33 127.05V159H226.54V148.29H234.1C236.11 148.29 237.85 147.78 239.32 146.76C240.79 145.74 241.945 144.42 242.785 142.8C243.625 141.18 244.045 139.47 244.045 137.67C244.045 136.35 243.79 135.06 243.28 133.8C242.77 132.54 242.05 131.4 241.12 130.38C240.22 129.36 239.155 128.55 237.925 127.95C236.695 127.35 235.345 127.05 233.875 127.05H220.33ZM233.74 142.845H226.54V132.495H233.47C234.22 132.495 234.91 132.69 235.54 133.08C236.2 133.47 236.725 134.055 237.115 134.835C237.535 135.615 237.745 136.56 237.745 137.67C237.745 138.69 237.565 139.605 237.205 140.415C236.845 141.195 236.365 141.795 235.765 142.215C235.165 142.635 234.49 142.845 233.74 142.845Z" fill="#0E111A"/>
</svg>
