<svg width="50" height="50" viewBox="0 0 50 50" fill="none" xmlns="http://www.w3.org/2000/svg">
<path d="M10.2686 39.7314C13.1822 42.645 16.8944 44.6292 20.9357 45.433C24.9769 46.2369 29.1658 45.8243 32.9726 44.2475C36.7794 42.6707 40.0331 40.0004 42.3223 36.5744C44.6115 33.1483 45.8334 29.1204 45.8334 25C45.8334 20.8795 44.6115 16.8516 42.3223 13.4256C40.0331 9.99959 36.7794 7.32933 32.9726 5.7525C29.1658 4.17567 24.9769 3.7631 20.9357 4.56696C16.8944 5.37082 13.1822 7.355 10.2687 10.2686" stroke="white"/>
<path d="M31.25 25L31.6404 24.6877L31.8903 25L31.6404 25.3124L31.25 25ZM6.25 25.5C5.97386 25.5 5.75 25.2762 5.75 25C5.75 24.7239 5.97386 24.5 6.25 24.5V25.5ZM23.3071 14.271L31.6404 24.6877L30.8596 25.3124L22.5262 14.8957L23.3071 14.271ZM31.6404 25.3124L23.3071 35.729L22.5262 35.1043L30.8596 24.6877L31.6404 25.3124ZM31.25 25.5H6.25V24.5H31.25V25.5Z" fill="white"/>
</svg>
