<svg width="50" height="50" viewBox="0 0 50 50" fill="none" xmlns="http://www.w3.org/2000/svg">
<path d="M39.7315 39.7314C36.8179 42.645 33.1057 44.6292 29.0645 45.433C25.0232 46.2369 20.8343 45.8243 17.0275 44.2475C13.2207 42.6707 9.96699 40.0004 7.6778 36.5744C5.3886 33.1483 4.16675 29.1204 4.16675 25C4.16675 20.8795 5.3886 16.8516 7.6778 13.4256C9.96699 9.99959 13.2207 7.32933 17.0275 5.7525C20.8343 4.17567 25.0232 3.7631 29.0645 4.56696C33.1057 5.37082 36.8179 7.355 39.7315 10.2686" stroke="white"/>
<path d="M18.75 25L18.3596 24.6877L18.1097 25L18.3596 25.3124L18.75 25ZM43.75 25.5C44.0261 25.5 44.25 25.2762 44.25 25C44.25 24.7239 44.0261 24.5 43.75 24.5V25.5ZM26.6929 14.271L18.3596 24.6877L19.1404 25.3124L27.4738 14.8957L26.6929 14.271ZM18.3596 25.3124L26.6929 35.729L27.4738 35.1043L19.1404 24.6877L18.3596 25.3124ZM18.75 25.5H43.75V24.5H18.75V25.5Z" fill="white"/>
</svg>
