<svg width="19" height="11" viewBox="0 0 19 11" fill="none" xmlns="http://www.w3.org/2000/svg">
<path d="M18.3355 9.34811C18.3355 9.27754 18.2649 9.27754 18.2649 9.20697C17.9826 8.64242 17.3475 7.93673 16.5007 7.16046C16.0773 6.80762 15.8655 6.52533 15.7244 6.3842C15.5127 6.10192 15.5127 5.89022 15.5833 5.60794C15.6538 5.39623 15.9361 5.04337 16.4301 4.40825C16.7124 4.0554 16.8535 3.8437 17.0652 3.63199C18.1238 2.2206 18.6177 1.30319 18.4766 0.879773L18.4061 0.80921C18.3355 0.738641 18.2649 0.668074 18.1238 0.668074C17.9826 0.597504 17.7709 0.597504 17.5592 0.668074H14.8776C14.807 0.668074 14.807 0.668074 14.6659 0.668074C14.5953 0.668074 14.5247 0.668074 14.5247 0.668074H14.4542H14.3836L14.313 0.738637C14.2424 0.809206 14.2424 0.809204 14.2424 0.879773C13.9602 1.65604 13.6073 2.29116 13.2545 2.99686C13.0428 3.34971 12.8311 3.70256 12.6193 3.98484C12.4076 4.26712 12.2665 4.47882 12.1254 4.61996C11.9842 4.7611 11.8431 4.83167 11.7725 4.97281C11.7019 5.04338 11.5608 5.11395 11.5608 5.04338C11.4902 5.04338 11.4197 5.04338 11.4197 4.97281C11.3491 4.90224 11.2785 4.83166 11.208 4.7611C11.1374 4.69053 11.1374 4.54939 11.0668 4.40825C11.0668 4.26711 11.0668 4.12597 11.0668 4.0554C11.0668 3.98483 11.0668 3.77313 11.0668 3.63199C11.0668 3.42028 11.0668 3.27914 11.0668 3.20857C11.0668 2.99686 11.0668 2.71459 11.0668 2.43231C11.0668 2.15003 11.0668 1.93832 11.0668 1.79718C11.0668 1.65604 11.0668 1.44433 11.0668 1.30319C11.0668 1.09149 11.0668 0.950343 11.0668 0.879773C11.0668 0.809204 10.9963 0.668069 10.9963 0.5975C10.9257 0.52693 10.8551 0.456359 10.7845 0.385789C10.714 0.31522 10.5728 0.315222 10.5023 0.244652C10.1494 0.174083 9.72601 0.103516 9.23202 0.103516C8.10291 0.103516 7.32664 0.174087 7.04436 0.315226C6.90322 0.385796 6.76208 0.456361 6.69152 0.5975C6.55038 0.738639 6.55037 0.80921 6.62094 0.80921C6.97379 0.87978 7.25607 1.02091 7.39721 1.23262L7.46778 1.37377C7.53835 1.44434 7.53834 1.58547 7.60891 1.79718C7.67948 2.00889 7.67948 2.2206 7.67948 2.50287C7.67948 2.92629 7.67948 3.34971 7.67948 3.63199C7.67948 3.98484 7.60891 4.19654 7.60891 4.40825C7.60891 4.61996 7.53835 4.7611 7.46778 4.83167C7.39721 4.97281 7.39721 5.04338 7.32664 5.04338C7.32664 5.04338 7.32663 5.11394 7.25606 5.11394C7.18549 5.11394 7.11493 5.18452 6.97379 5.18452C6.90322 5.18452 6.76208 5.11395 6.69152 5.04338C6.55038 4.97281 6.40924 4.83167 6.33867 4.69053C6.19753 4.54939 6.05639 4.33768 5.91525 4.0554C5.77411 3.77312 5.56239 3.49085 5.42125 3.06743L5.28013 2.78516C5.20956 2.64402 5.06842 2.36174 4.92728 2.00889C4.78614 1.65604 4.645 1.37377 4.50386 1.02092C4.43329 0.879782 4.36273 0.809206 4.29216 0.738637H4.22158C4.22158 0.738637 4.15101 0.668074 4.08044 0.668074C4.00987 0.668074 3.93931 0.5975 3.86874 0.5975H1.32823C1.04595 0.5975 0.904815 0.668067 0.834246 0.738637L0.763672 0.80921C0.763672 0.80921 0.763672 0.879778 0.763672 0.950347C0.763672 1.02092 0.763676 1.09148 0.834246 1.23262C1.18709 2.07945 1.61051 2.92629 2.03392 3.77313C2.45734 4.54939 2.88076 5.25509 3.16304 5.74907C3.51589 6.24306 3.79816 6.73705 4.15101 7.16046C4.50386 7.58388 4.71556 7.86616 4.78613 8.0073C4.92727 8.14843 4.99783 8.219 5.0684 8.28957L5.28013 8.50128C5.42126 8.64242 5.63297 8.85413 5.91525 9.06584C6.19753 9.27755 6.55037 9.48925 6.90322 9.70096C7.25606 9.91267 7.67949 10.0538 8.10291 10.195C8.59689 10.3361 9.0203 10.4067 9.44372 10.3361H10.5023C10.714 10.3361 10.8551 10.2655 10.9963 10.1244L11.0668 10.0538C11.0668 9.98324 11.1374 9.98324 11.1374 9.91267C11.1374 9.8421 11.1374 9.77153 11.1374 9.6304C11.1374 9.34812 11.1374 9.13641 11.208 8.9247C11.2785 8.71299 11.2785 8.57186 11.3491 8.43072C11.4197 8.28958 11.4902 8.219 11.5608 8.14843C11.6314 8.07786 11.702 8.0073 11.702 8.0073H11.7725C11.9136 7.93673 12.1254 8.00729 12.2665 8.14843C12.4782 8.28957 12.6899 8.50128 12.831 8.71299C12.9722 8.9247 13.1839 9.13641 13.4662 9.41869C13.7485 9.70096 13.9602 9.91267 14.1013 9.98324L14.313 10.1244C14.4542 10.195 14.5953 10.2655 14.807 10.3361C15.0187 10.4067 15.1598 10.4067 15.301 10.4067L17.7004 10.3361C17.9121 10.3361 18.1238 10.2655 18.2649 10.195C18.406 10.1244 18.4766 10.0538 18.4766 9.91267C18.4766 9.8421 18.4766 9.70097 18.4766 9.6304C18.3355 9.48926 18.3355 9.41868 18.3355 9.34811Z" fill="white"/>
</svg>
