<svg width="19" height="19" viewBox="0 0 19 19" fill="none" xmlns="http://www.w3.org/2000/svg">
<path d="M15.7378 3.25352C14.0585 1.58008 11.8195 0.650391 9.4561 0.650391C4.54268 0.650391 0.562194 4.61706 0.562194 9.51341C0.562194 11.0629 0.997561 12.6124 1.7439 13.9139L0.5 18.5004L5.22683 17.2608C6.53293 17.9426 7.96341 18.3145 9.4561 18.3145C14.3695 18.3145 18.35 14.3478 18.35 9.45143C18.2878 7.1582 17.4171 4.92695 15.7378 3.25352ZM13.7476 12.6743C13.561 13.1702 12.6902 13.666 12.2549 13.728C11.8817 13.79 11.3841 13.79 10.8866 13.666C10.5756 13.5421 10.1402 13.4181 9.64268 13.1702C7.40366 12.2405 5.97317 10.0092 5.84878 9.82331C5.72439 9.69935 4.91585 8.6457 4.91585 7.53008C4.91585 6.41445 5.47561 5.91862 5.66219 5.6707C5.84878 5.42279 6.09756 5.42279 6.28415 5.42279C6.40854 5.42279 6.59512 5.42279 6.71951 5.42279C6.8439 5.42279 7.03049 5.36081 7.21707 5.79466C7.40366 6.22852 7.83902 7.34414 7.90122 7.40612C7.96341 7.53008 7.96341 7.65404 7.90122 7.778C7.83902 7.90195 7.77683 8.02591 7.65244 8.14987C7.52805 8.27383 7.40366 8.45976 7.34146 8.52174C7.21707 8.6457 7.09268 8.76966 7.21707 8.9556C7.34146 9.20351 7.77683 9.88529 8.46098 10.5051C9.33171 11.2488 10.0159 11.4967 10.2646 11.6207C10.5134 11.7447 10.6378 11.6827 10.7622 11.5587C10.8866 11.4348 11.322 10.9389 11.4463 10.691C11.5707 10.4431 11.7573 10.5051 11.9439 10.5671C12.1305 10.629 13.25 11.1868 13.4366 11.3108C13.6854 11.4348 13.8098 11.4967 13.8719 11.5587C13.9341 11.7447 13.9341 12.1785 13.7476 12.6743Z" fill="white"/>
</svg>
