<svg width="43" height="40" viewBox="0 0 43 40" fill="none" xmlns="http://www.w3.org/2000/svg">
<g clip-path="url(#clip0_202_71)">
<path d="M36.598 29.4226C36.5571 29.3499 36.5013 29.2854 36.4337 29.2329C36.3661 29.1803 36.2881 29.1407 36.2041 29.1164L33.6504 28.3711C33.5665 28.3465 33.4783 28.3376 33.3908 28.3449C33.3033 28.3523 33.2182 28.3757 33.1404 28.4138C33.0625 28.4519 32.9935 28.5039 32.9373 28.567C32.881 28.63 32.8386 28.7028 32.8125 28.7812L32.6118 29.3804L26.8688 27.7047L24.1712 26.9125C23.906 26.8344 23.6263 26.8088 23.3499 26.8372C23.0735 26.8656 22.8064 26.9473 22.5657 27.0773L17.7182 29.6937L17.0367 27.7343L19.1239 26.3172C19.2381 26.2396 19.3231 26.1302 19.3667 26.0047C19.4103 25.8792 19.4103 25.7441 19.3667 25.6186C19.3231 25.4931 19.2381 25.3838 19.1238 25.3062C19.0096 25.2286 18.8721 25.1868 18.7309 25.1867H16.1504L15.3535 22.8937C15.3096 22.7683 15.2245 22.6591 15.1102 22.5817C14.9959 22.5042 14.8583 22.4625 14.7171 22.4625C14.5759 22.4625 14.4384 22.5042 14.3241 22.5817C14.2098 22.6591 14.1246 22.7683 14.0808 22.8937L13.2839 25.1867H10.7034C10.5621 25.1868 10.4246 25.2286 10.3104 25.3062C10.1962 25.3838 10.1112 25.4931 10.0676 25.6186C10.0239 25.7441 10.0239 25.8792 10.0675 26.0047C10.1111 26.1302 10.1961 26.2396 10.3103 26.3172L12.3975 27.7343L11.6006 30.0273C11.5571 30.1528 11.5572 30.288 11.6009 30.4134C11.6446 30.5388 11.7296 30.6481 11.8439 30.7257C11.9581 30.8032 12.0957 30.8449 12.2369 30.845C12.3781 30.845 12.5157 30.8032 12.63 30.7257L14.7171 29.3086L16.3619 30.4257L15.6127 30.8297C15.3722 30.9502 15.1605 31.1151 14.9903 31.3144C14.8201 31.5137 14.695 31.7432 14.6226 31.989L9.14969 30.3929C8.64172 30.2448 8.09155 30.2911 7.62018 30.5219C7.1488 30.7526 6.79482 31.1489 6.63608 31.6234L6.23721 32.8164C6.07847 33.2911 6.12804 33.8052 6.37502 34.2458C6.62201 34.6863 7.04617 35.0172 7.55422 35.1656L21.64 39.275C22.1419 39.4224 22.6858 39.3789 23.1535 39.1539L28.9635 36.3609C29.1198 36.2865 29.3009 36.2719 29.4685 36.3203L30.2194 36.5398L30.0204 37.1336C29.9678 37.2918 29.9844 37.463 30.0667 37.6097C30.149 37.7565 30.2902 37.8668 30.4594 37.9164L33.014 38.6617C33.0787 38.6806 33.1461 38.69 33.2139 38.6898C33.3563 38.6897 33.495 38.6472 33.6097 38.5684C33.7245 38.4895 33.8093 38.3785 33.8519 38.2515L36.644 29.8992C36.6966 29.7409 36.68 29.5696 36.598 29.4226ZM15.6144 27.689L15.9254 28.5836L15.1101 28.0304C14.996 27.9528 14.8584 27.9109 14.7171 27.9109C14.5759 27.9109 14.4383 27.9528 14.3241 28.0304L13.5088 28.5836L13.8199 27.689C13.8637 27.5635 13.8638 27.4282 13.8203 27.3026C13.7767 27.177 13.6917 27.0675 13.5774 26.9898L12.7621 26.4367H13.7697C13.911 26.4367 14.0487 26.3949 14.163 26.3173C14.2773 26.2397 14.3624 26.1302 14.406 26.0047L14.7171 25.1101L15.0282 26.0047C15.0718 26.1302 15.1569 26.2397 15.2712 26.3173C15.3855 26.3949 15.5232 26.4367 15.6645 26.4367H16.6722L15.8569 26.9898C15.7426 27.0675 15.6575 27.177 15.614 27.3026C15.5704 27.4282 15.5705 27.5635 15.6144 27.689ZM29.8674 35.1273C29.3643 34.979 28.8189 35.0231 28.3505 35.25L22.544 38.0414C22.3878 38.1162 22.2063 38.1305 22.0389 38.0812L7.95309 33.9718C7.78378 33.9224 7.64242 33.8122 7.5601 33.6654C7.47777 33.5186 7.46122 33.3472 7.51409 33.189L7.91295 31.9961C7.93891 31.9176 7.98123 31.8447 8.03745 31.7816C8.09368 31.7184 8.16271 31.6663 8.24058 31.6282C8.31845 31.5901 8.40362 31.5667 8.49119 31.5594C8.57876 31.5522 8.66699 31.5612 8.75083 31.5859L14.774 33.3429C14.7763 33.3467 14.7782 33.3506 14.7798 33.3547L15.4011 34.4609C15.6483 34.9013 16.0725 35.232 16.5806 35.3803C17.0886 35.5286 17.6389 35.4822 18.1104 35.2515L23.4429 32.6406C23.5211 32.6027 23.5906 32.5508 23.6473 32.4877C23.704 32.4247 23.7468 32.3518 23.7732 32.2733C23.7997 32.1947 23.8093 32.1121 23.8014 32.0301C23.7936 31.9481 23.7685 31.8683 23.7276 31.7954C23.6867 31.7225 23.6307 31.6578 23.563 31.6052C23.4952 31.5525 23.417 31.5129 23.3328 31.4886C23.2486 31.4642 23.1601 31.4557 23.0724 31.4634C22.9847 31.4711 22.8994 31.495 22.8216 31.5336L17.4891 34.1445C17.332 34.2213 17.1486 34.2367 16.9793 34.1874C16.81 34.138 16.6685 34.0279 16.586 33.8812L15.9656 32.7742C15.9446 32.737 15.9275 32.698 15.9146 32.6578C15.8719 32.5193 15.8817 32.3713 15.9423 32.2387C16.0029 32.1062 16.1107 31.9973 16.2474 31.9304C16.2557 31.9265 16.2633 31.9218 16.2716 31.9179L23.2355 28.1593C23.3156 28.1161 23.4045 28.089 23.4965 28.0795C23.5885 28.0701 23.6816 28.0787 23.7698 28.1047L26.4691 28.8976L32.2129 30.5734L30.6183 35.3461L29.8674 35.1273ZM32.774 37.282L31.4971 36.9093L31.6778 36.3679C31.6857 36.3511 31.6927 36.3339 31.6987 36.3164L33.6922 30.3507C33.698 30.3328 33.703 30.3148 33.7072 30.2976L33.8904 29.7507L35.1672 30.1234L32.774 37.282Z" fill="#AA3399"/>
<path d="M33.4154 8.76249C33.3718 8.63687 33.2867 8.52739 33.1724 8.44976C33.0581 8.37214 32.9204 8.33037 32.779 8.33046H24.5776L22.043 1.04295C21.9994 0.917338 21.9144 0.80785 21.8001 0.730197C21.6857 0.652544 21.548 0.610718 21.4067 0.610718C21.2654 0.610718 21.1276 0.652544 21.0133 0.730197C20.899 0.80785 20.8139 0.917338 20.7703 1.04295L18.2358 8.33046H10.0344C9.89316 8.33054 9.7556 8.37237 9.6414 8.44996C9.52719 8.52754 9.44219 8.6369 9.39857 8.76238C9.35494 8.88785 9.35494 9.02301 9.39855 9.14849C9.44216 9.27396 9.52715 9.38333 9.64135 9.46092L16.2766 13.9656L13.7421 21.2531C13.6986 21.3786 13.6987 21.5138 13.7424 21.6392C13.7861 21.7646 13.8711 21.8739 13.9854 21.9515C14.0996 22.029 14.2372 22.0707 14.3784 22.0708C14.5196 22.0708 14.6572 22.029 14.7714 21.9516L21.4067 17.4476L28.0419 21.9516C28.1562 22.029 28.2938 22.0708 28.435 22.0708C28.5762 22.0707 28.7138 22.029 28.828 21.9515C28.9423 21.8739 29.0273 21.7646 29.071 21.6392C29.1147 21.5138 29.1148 21.3786 29.0713 21.2531L26.5368 13.9656L33.172 9.46092C33.2865 9.38354 33.3717 9.27423 33.4154 9.14872C33.4591 9.02322 33.4591 8.88798 33.4154 8.76249ZM25.3577 13.2211C25.2434 13.2985 25.1582 13.4079 25.1145 13.5333C25.0708 13.6588 25.0708 13.794 25.1144 13.9195L27.1631 19.8101L21.7997 16.1695C21.6855 16.0918 21.5479 16.05 21.4067 16.05C21.2655 16.05 21.1279 16.0918 21.0137 16.1695L15.6503 19.8101L17.699 13.9195C17.7426 13.794 17.7426 13.6588 17.6989 13.5333C17.6552 13.4079 17.57 13.2985 17.4556 13.2211L12.0931 9.58046H18.7217C18.8629 9.58052 19.0005 9.53884 19.1148 9.46138C19.2291 9.38391 19.3142 9.27464 19.358 9.14921L21.4067 3.25858L23.4554 9.14921C23.4992 9.27464 23.5843 9.38391 23.6986 9.46138C23.8129 9.53884 23.9505 9.58052 24.0917 9.58046H30.7203L25.3577 13.2211Z" fill="#AA3399"/>
<path d="M10.6867 23.0559C10.8009 23.1334 10.9386 23.1752 11.0798 23.1751C11.221 23.1751 11.3587 23.1334 11.4729 23.0558C11.5872 22.9782 11.6723 22.8689 11.7159 22.7434C11.7596 22.6179 11.7596 22.4827 11.716 22.3572L10.445 18.7022L13.7731 16.4433C13.8875 16.3657 13.9726 16.2562 14.0163 16.1306C14.06 16.005 14.06 15.8697 14.0162 15.7441C13.9725 15.6185 13.8873 15.5091 13.7728 15.4316C13.6584 15.354 13.5206 15.3123 13.3792 15.3125H9.26596L7.99493 11.6576C7.95126 11.5321 7.86619 11.4227 7.75191 11.3452C7.63763 11.2676 7.5 11.2258 7.35875 11.2258C7.2175 11.2258 7.07988 11.2676 6.9656 11.3452C6.85132 11.4227 6.76624 11.5321 6.72257 11.6576L5.45121 15.3125H1.33794C1.19669 15.3125 1.05908 15.3544 0.944823 15.432C0.830567 15.5095 0.745532 15.6189 0.701902 15.7445C0.658272 15.87 0.658286 16.0052 0.701942 16.1307C0.745599 16.2562 0.830657 16.3656 0.944929 16.4431L4.27301 18.702L3.00198 22.357C2.95855 22.4824 2.95866 22.6175 3.00231 22.7428C3.04596 22.8682 3.1309 22.9774 3.245 23.0549C3.3591 23.1324 3.49651 23.1743 3.63759 23.1745C3.77867 23.1746 3.9162 23.1331 4.03051 23.0559L7.35859 20.7969L10.6867 23.0559ZM4.91002 20.9141L5.69513 18.6563C5.7387 18.5308 5.73864 18.3956 5.69498 18.2702C5.65131 18.1447 5.56628 18.0354 5.45205 17.9578L3.39684 16.5625H5.93705C6.0783 16.5625 6.21593 16.5207 6.33021 16.4432C6.44449 16.3656 6.52956 16.2562 6.57323 16.1307L7.35859 13.8734L8.14369 16.1312C8.18746 16.2566 8.2726 16.3659 8.38693 16.4434C8.50125 16.5209 8.63889 16.5626 8.78013 16.5625H11.3207L9.26512 17.9578C9.15084 18.0354 9.06578 18.1448 9.02212 18.2703C8.97847 18.3958 8.97847 18.531 9.02212 18.6566L9.80706 20.9144L7.7516 19.5189C7.63738 19.4413 7.49979 19.3996 7.35859 19.3996C7.21738 19.3996 7.0798 19.4413 6.96557 19.5189L4.91002 20.9141Z" fill="#AA3399"/>
<path d="M42.1117 18.3847C42.068 18.2592 41.9829 18.1499 41.8686 18.0724C41.7543 17.9949 41.6167 17.9532 41.4755 17.9532H37.8732L36.76 14.7523C36.7163 14.6268 36.6313 14.5174 36.517 14.4399C36.4027 14.3623 36.2651 14.3206 36.1238 14.3206C35.9826 14.3206 35.845 14.3623 35.7307 14.4399C35.6164 14.5174 35.5313 14.6268 35.4876 14.7523L34.3744 17.9532H30.7721C30.6309 17.9532 30.4933 17.995 30.379 18.0726C30.2648 18.1502 30.1797 18.2596 30.1361 18.3851C30.0925 18.5106 30.0925 18.6458 30.1361 18.7713C30.1798 18.8968 30.2649 19.0062 30.3791 19.0838L33.2934 21.0621L32.1803 24.2629C32.1367 24.3885 32.1367 24.5236 32.1804 24.6491C32.2241 24.7746 32.3091 24.884 32.4234 24.9615C32.5377 25.0391 32.6753 25.0809 32.8165 25.0809C32.9578 25.0809 33.0954 25.0391 33.2097 24.9616L36.1238 22.9832L39.0382 24.9613C39.1524 25.0388 39.2901 25.0806 39.4313 25.0806C39.5725 25.0806 39.7102 25.0388 39.8244 24.9612C39.9387 24.8837 40.0237 24.7743 40.0674 24.6488C40.1111 24.5233 40.1111 24.3881 40.0675 24.2626L38.9545 21.0618L41.8685 19.0835C41.9829 19.0059 42.068 18.8965 42.1116 18.771C42.1553 18.6454 42.1553 18.5102 42.1117 18.3847ZM37.7748 20.3174C37.6605 20.395 37.5755 20.5044 37.5318 20.6299C37.4882 20.7554 37.4882 20.8906 37.5318 21.0161L38.159 22.8195L36.5168 21.705C36.4026 21.6275 36.265 21.5857 36.1238 21.5857C35.9826 21.5857 35.8451 21.6275 35.7308 21.705L34.0889 22.8195L34.7161 21.0161C34.7597 20.8906 34.7597 20.7554 34.7161 20.6299C34.6724 20.5044 34.5874 20.395 34.4731 20.3174L32.831 19.2032H34.8605C35.0018 19.2032 35.1394 19.1614 35.2537 19.0838C35.3679 19.0063 35.453 18.8969 35.4967 18.7714L36.1238 16.968L36.751 18.7714C36.7946 18.8969 36.8797 19.0063 36.994 19.0838C37.1083 19.1614 37.2459 19.2032 37.3872 19.2032H39.4167L37.7748 20.3174Z" fill="#AA3399"/>
</g>
<defs>
<clipPath id="clip0_202_71">
<rect width="42.8135" height="40" fill="white"/>
</clipPath>
</defs>
</svg>
