<svg width="43" height="40" viewBox="0 0 43 40" fill="none" xmlns="http://www.w3.org/2000/svg">
<g clip-path="url(#clip0_202_833)">
<path d="M42.5685 4.92544L37.5427 0.229817C37.2632 -0.0313546 36.8259 -0.0740108 36.4946 0.127864L29.6949 4.27107C29.6464 4.3006 29.6013 4.33474 29.5604 4.37302L0.244902 31.7619C-0.0816341 32.067 -0.0816341 32.5617 0.244902 32.8668L7.63591 39.7722C7.94731 40.0748 8.50715 40.0748 8.81855 39.7722L38.1339 12.3833C38.1748 12.345 38.2114 12.3029 38.243 12.2576L42.6776 5.90474C42.8936 5.59521 42.8481 5.18669 42.5685 4.92544ZM30.1516 6.03029L32.6646 8.3781L30.2994 10.5878L27.7865 8.23997L30.1516 6.03029ZM33.995 14.0404L31.482 11.6926L33.8472 9.48294L36.3601 11.8308L33.995 14.0404ZM8.22719 38.1149L2.01873 32.3144L26.6039 9.3449L32.8123 15.1454L8.22719 38.1149ZM37.4051 10.5975L31.4716 5.0538L36.8399 1.78294L40.9061 5.58208L37.4051 10.5975Z" fill="#AA3399"/>
<path d="M25.8941 15.8086C24.8346 14.8188 23.1105 14.8186 22.0508 15.8086C20.9912 16.7986 20.9912 18.4095 22.0508 19.3994C23.0624 20.3843 24.8826 20.3844 25.8941 19.3994C26.9537 18.4094 26.9537 16.7985 25.8941 15.8086ZM24.7115 18.2945C24.3224 18.6733 23.6223 18.6733 23.2333 18.2945C22.8258 17.9137 22.8258 17.2942 23.2333 16.9134C23.6409 16.5327 24.304 16.5327 24.7116 16.9134C25.119 17.2942 25.119 17.9137 24.7115 18.2945Z" fill="#AA3399"/>
</g>
<defs>
<clipPath id="clip0_202_833">
<rect width="42.8135" height="40" fill="white"/>
</clipPath>
</defs>
</svg>
