<svg width="43" height="41" viewBox="0 0 43 41" fill="none" xmlns="http://www.w3.org/2000/svg">
<g clip-path="url(#clip0_202_88)">
<path d="M40.6922 15.4151C39.6107 14.5525 38.2566 14.0843 36.885 14.0843H35.4957H30.4927H27.6439V7.84926C27.6439 5.22874 26.8262 3.33933 25.2084 2.23034C22.6497 0.472369 19.1239 1.47457 18.9744 1.52386C18.5348 1.6553 18.2359 2.03318 18.2359 2.46035V9.43472C18.2359 11.7102 17.0752 13.6407 14.7804 15.1769C13.0658 16.3269 11.3161 16.828 11.1314 16.8855L10.8764 16.943C10.4984 16.3434 9.80375 15.9408 9.00362 15.9408H2.17177C0.975979 15.9408 0 16.8527 0 17.9699V36.7325C0 37.8497 0.975979 38.7616 2.17177 38.7616H9.02121C9.68945 38.7616 10.2961 38.474 10.6918 38.0304C11.7909 39.123 13.3472 39.8048 15.0353 39.8048H20.8297H21.4276H33.3064C37.3422 39.8048 39.9184 37.8333 40.3756 34.3831L42.7408 20.6726C43.0662 18.701 42.2836 16.6802 40.6922 15.4151ZM9.07396 36.7325C9.07396 36.7654 9.04759 36.79 9.01242 36.79H2.17177C2.1366 36.79 2.11022 36.7654 2.11022 36.7325V17.9699C2.11022 17.937 2.1366 17.9124 2.17177 17.9124H9.02121C9.05638 17.9124 9.08276 17.937 9.08276 17.9699V36.7325H9.07396ZM40.6394 20.3604L38.283 34.0955C38.283 34.1038 38.283 34.1202 38.2742 34.1366C37.9489 36.5928 36.2783 37.8415 33.2976 37.8415H21.4188H20.8209H15.0266C13.1537 37.8415 11.5271 36.5353 11.2369 34.8102C11.2282 34.7527 11.2106 34.6952 11.193 34.6377V18.8982L11.6502 18.7996C11.6678 18.7996 11.6766 18.7914 11.6942 18.7914C11.7821 18.7667 13.8659 18.2163 15.9674 16.8198C18.8425 14.914 20.3549 12.3592 20.3549 9.43472V3.24897C21.2693 3.10932 22.8344 3.03539 23.9686 3.82401C25.0062 4.53869 25.5337 5.89414 25.5337 7.84926V15.0619C25.5337 15.604 26.0085 16.0476 26.5888 16.0476H30.4927H35.4957H36.885C37.7554 16.0476 38.6259 16.3516 39.3205 16.9102C40.358 17.7399 40.868 19.0625 40.6394 20.3604Z" fill="#AA3399"/>
</g>
<defs>
<clipPath id="clip0_202_88">
<rect width="42.8135" height="40" fill="white" transform="translate(0 0.5)"/>
</clipPath>
</defs>
</svg>
