<svg width="43" height="41" viewBox="0 0 43 41" fill="none" xmlns="http://www.w3.org/2000/svg">
<path d="M36.0928 29.5678C34.8804 28.2499 33.1999 27.3803 31.3611 27.1192L29.3469 26.8334L28.17 25.4175C28.0473 25.2699 27.8642 25.1768 27.6648 25.1609C27.4657 25.1449 27.2681 25.2077 27.1203 25.3338L21.5956 30.0494L16.0709 25.3338C15.9233 25.2077 15.726 25.1448 15.5265 25.1609C15.3271 25.1768 15.1439 25.2698 15.0212 25.4175L13.8999 26.7665L11.5803 27.1033C9.74724 27.3696 8.07311 28.2411 6.86632 29.5575C5.65953 30.8739 4.9949 32.5533 4.9949 34.2865V37.083C4.9949 37.4529 5.31579 37.7528 5.71181 37.7528H19.9646H23.2927H37.2561C37.6522 37.7528 37.973 37.4529 37.973 37.083V34.3063C37.973 32.5684 37.3054 30.8856 36.0928 29.5678ZM19.3305 36.413H6.42872V34.2865C6.42872 32.8727 6.97089 31.5028 7.95535 30.4289C8.93971 29.3552 10.3054 28.6442 11.8007 28.427L13.8723 28.1262L16.8205 33.9555C16.9131 34.1383 17.089 34.2723 17.2993 34.3201C17.3553 34.3329 17.4122 34.339 17.4687 34.339C17.6244 34.339 17.7776 34.2916 17.9038 34.2016L19.4323 33.1111C19.5137 33.2448 19.6084 33.3704 19.7152 33.4861L19.3305 36.413ZM17.7382 32.6344L15.1279 27.4733L15.6774 26.8123L20.3311 30.7844L17.7382 32.6344ZM20.775 36.4132L21.06 34.2447C21.243 34.284 21.4332 34.3054 21.6286 34.3054C21.8243 34.3054 22.0146 34.2846 22.1974 34.2459L22.4824 36.4132H20.775ZM21.6286 32.9659C21.1525 32.9659 20.7454 32.6809 20.597 32.2803L21.5957 31.5677L22.6455 32.3167C22.4848 32.6968 22.0842 32.9659 21.6286 32.9659ZM22.8603 30.7845L27.514 26.8123L28.0636 27.4733L25.4533 32.6344L22.8603 30.7845ZM36.5393 36.4133H23.927L23.5429 33.4918C23.6418 33.3847 23.7304 33.2691 23.8076 33.1459L25.2877 34.2019C25.4139 34.2919 25.5671 34.3393 25.7228 34.3393C25.7794 34.3393 25.8363 34.333 25.8922 34.3204C26.1025 34.2726 26.2785 34.1385 26.371 33.9557L29.2917 28.1806L31.1457 28.4437C32.6457 28.6567 34.0166 29.3659 35.0056 30.441C35.9947 31.5161 36.5393 32.8888 36.5393 34.3063V36.4133Z" fill="#AA3399"/>
<path d="M24.67 3.53214L19.0327 3.17179C18.3708 3.12946 17.7125 3.3488 17.2285 3.77363C16.9159 4.0478 16.6904 4.39484 16.5709 4.77323C13.4271 5.06419 10.9638 7.54914 10.9638 10.5615V12.2674C10.9638 12.6036 11.0303 12.9327 11.1616 13.2455C11.1822 13.2945 11.209 13.3411 11.2413 13.3842L13.4236 16.3052V21.188C13.4236 22.7093 14.3084 24.1124 15.7325 24.8497L18.7995 26.4378C19.5587 26.831 20.419 27.0388 21.2872 27.0388H21.8134C22.6908 27.0388 23.559 26.8268 24.3242 26.4258L27.328 24.8514C28.7398 24.1115 29.6168 22.7124 29.6168 21.2002V16.312L31.3538 13.9242C31.3935 13.8695 31.4243 13.8097 31.4454 13.7466C31.5762 13.3538 31.6426 12.946 31.6426 12.5346V10.5075C31.6426 6.84594 28.5798 3.78202 24.67 3.53214ZM26.6266 23.683L23.6226 25.2574C23.0712 25.5464 22.4456 25.6991 21.8134 25.6991H21.2872C20.6615 25.6991 20.0416 25.5493 19.4945 25.266L16.4275 23.6778C15.459 23.1764 14.8573 22.2223 14.8573 21.1878V16.0946V13.6811C16.2959 13.5913 17.5108 12.7256 18.0256 11.5292C18.688 11.9325 19.4778 12.1679 20.3257 12.1679H26.2293C27.3066 12.1679 28.1829 12.9866 28.1829 13.9931V16.1021C28.1829 16.103 28.1829 16.1039 28.1829 16.1049V16.1059V21.2001C28.1829 22.2285 27.5866 23.1799 26.6266 23.683ZM30.2087 12.5346C30.2087 12.7794 30.1738 13.0224 30.1046 13.2581L29.6151 13.931C29.5795 12.2146 28.0749 10.8283 26.2293 10.8283H20.3257C18.7865 10.8283 17.5344 9.65837 17.5344 8.22027V7.84796C17.5344 7.47805 17.2135 7.17816 16.8175 7.17816C16.4215 7.17816 16.1006 7.47805 16.1006 7.84796V8.22027C16.1006 9.04921 16.376 9.81885 16.8451 10.4546C16.735 11.5163 15.7747 12.3491 14.61 12.3491H14.1406C13.7446 12.3491 13.4237 12.649 13.4237 13.0189V13.9648L12.4705 12.6891C12.4221 12.5531 12.3976 12.4115 12.3976 12.2673V10.5615C12.3976 8.09274 14.5472 6.08434 17.1896 6.08434C17.3805 6.08434 17.5634 6.01325 17.6979 5.88679C17.8325 5.76033 17.9076 5.58904 17.9065 5.4107C17.9049 5.15778 18.0127 4.92318 18.2101 4.75001C18.4073 4.57694 18.6645 4.49129 18.9348 4.50826L24.5721 4.86861C27.7328 5.07062 30.2087 7.54753 30.2087 10.5075V12.5346Z" fill="#AA3399"/>
<path d="M18.6298 18.161C19.0305 18.161 19.3552 17.8576 19.3552 17.4833C19.3552 17.109 19.0305 16.8055 18.6298 16.8055C18.2292 16.8055 17.9044 17.109 17.9044 17.4833C17.9044 17.8576 18.2292 18.161 18.6298 18.161Z" fill="#AA3399"/>
<path d="M24.3402 18.1388C24.7409 18.1388 25.0656 17.8354 25.0656 17.4611C25.0656 17.0868 24.7409 16.7833 24.3402 16.7833C23.9396 16.7833 23.6148 17.0868 23.6148 17.4611C23.6148 17.8354 23.9396 18.1388 24.3402 18.1388Z" fill="#AA3399"/>
<path d="M23.7359 20.3829C23.5043 20.1906 23.1495 20.2103 22.9435 20.4267C22.6095 20.7779 22.1491 20.9811 21.6468 20.9988C21.1154 21.0177 20.6043 20.8201 20.2418 20.4572C20.0303 20.2455 19.675 20.2339 19.4483 20.4316C19.2216 20.6292 19.2094 20.9611 19.4209 21.1728C19.9806 21.7331 20.7611 22.049 21.5775 22.049C21.6145 22.049 21.6519 22.0484 21.6892 22.047C22.5002 22.0184 23.2436 21.6903 23.7828 21.1233C23.9887 20.9069 23.9677 20.5753 23.7359 20.3829Z" fill="#AA3399"/>
</svg>
