<svg width="43" height="40" viewBox="0 0 43 40" fill="none" xmlns="http://www.w3.org/2000/svg">
<g clip-path="url(#clip0_30_129)">
<path d="M36.5037 1.5817C31.0392 -1.38825 24.0422 -0.0698436 20.2271 4.64814C19.9682 4.96851 20.036 5.42391 20.3786 5.66575C20.7218 5.90728 21.2084 5.84355 21.4678 5.52435C24.8098 1.39177 30.938 0.236694 35.7219 2.83732C40.9832 5.69767 42.7918 12.0567 39.7529 17.012C38.8476 18.4889 37.5614 19.7418 36.0335 20.6353C35.6693 20.8481 35.5588 21.2964 35.7867 21.6362C35.9344 21.8564 36.1877 21.9774 36.4465 21.9774C36.5874 21.9774 36.7301 21.9416 36.858 21.8664C38.6028 20.8465 40.0702 19.4173 41.1021 17.7339C44.5641 12.0883 42.5011 4.84222 36.5037 1.5817Z" fill="#AA3399"/>
<path d="M20.9607 4.65386C17.7359 2.909 13.9785 2.44467 10.3805 3.34514C6.77573 4.24783 3.7635 6.41201 1.89797 9.43909C-1.94822 15.6808 0.343119 23.6909 7.0052 27.2951C9.14394 28.4524 11.5238 29.0497 13.9596 29.0497C14.4209 29.0497 14.8844 29.0281 15.3489 28.9852C15.776 28.9454 16.088 28.5897 16.0455 28.1904C16.0029 27.7914 15.6242 27.4953 15.1948 27.5395C12.6063 27.7796 10.0446 27.2607 7.78474 26.0381C1.86278 22.8343 -0.173571 15.7132 3.24602 10.164C4.90382 7.47356 7.58032 5.55017 10.7832 4.74866C13.9786 3.948 17.317 4.36094 20.1819 5.91087C24.3878 8.18634 26.7996 12.585 26.3251 17.1169C26.2833 17.5159 26.5958 17.8713 27.0232 17.9102C27.449 17.9513 27.831 17.6569 27.8724 17.258C28.4062 12.1614 25.6931 7.21384 20.9607 4.65386Z" fill="#AA3399"/>
<path d="M14.2864 16.4159L12.0907 14.113L12.7599 11.0926C12.8283 10.7859 12.6779 10.4731 12.3875 10.3163C12.0975 10.16 11.7318 10.1941 11.4818 10.4034L9.01686 12.4552L5.78404 11.83C5.4531 11.7657 5.12044 11.907 4.95315 12.1779C4.78585 12.4492 4.82309 12.7904 5.0463 13.0241L7.24198 15.327L6.5728 18.3471C6.50515 18.6538 6.65525 18.9666 6.94554 19.1234C7.0666 19.1886 7.20053 19.2205 7.33423 19.2205C7.52065 19.2205 7.70549 19.1581 7.85126 19.0363L10.3158 16.9849L13.5486 17.6101C13.8789 17.6741 14.2122 17.5328 14.3795 17.2622C14.5468 16.9908 14.5096 16.6496 14.2864 16.4159ZM10.2484 15.4885C10.0075 15.4417 9.7571 15.5049 9.57375 15.6574L8.57203 16.4909L8.84376 15.2637C8.89386 15.0387 8.82667 14.805 8.66302 14.6334L7.77052 13.6975L9.08485 13.9514C9.32697 13.9999 9.5766 13.9354 9.7595 13.7825L10.7612 12.9487L10.4895 14.1762C10.4394 14.4012 10.5066 14.6349 10.6702 14.8065L11.5627 15.7424L10.2484 15.4885Z" fill="#AA3399"/>
<path d="M36.2419 12.4245L34.7583 9.66909L36.2419 6.91365C36.3926 6.63382 36.3343 6.29515 36.0969 6.07384C35.86 5.85285 35.4982 5.79731 35.198 5.93839L32.2488 7.32446L29.2995 5.93839C29 5.79731 28.6375 5.85285 28.4007 6.07384C28.1633 6.29515 28.1055 6.63382 28.2557 6.91365L29.7389 9.66909L28.2557 12.4245C28.1052 12.7044 28.1633 13.043 28.4007 13.2643C28.55 13.4038 28.7488 13.4771 28.9507 13.4771C29.069 13.4771 29.1886 13.4519 29.2995 13.3998L32.2488 12.0137L35.198 13.3998C35.4983 13.5406 35.86 13.4857 36.0969 13.2643C36.3341 13.043 36.3924 12.7044 36.2419 12.4245ZM33.1935 9.99542L33.7964 11.1151L32.598 10.5518C32.3785 10.449 32.1188 10.449 31.8994 10.5518L30.7005 11.1154L31.3034 9.99532C31.4138 9.78996 31.4138 9.54812 31.3034 9.34266L30.7005 8.22259L31.8994 8.78619C32.1188 8.88897 32.3785 8.88897 32.598 8.78619L33.7964 8.22291L33.1935 9.34255C33.0831 9.54822 33.0831 9.79007 33.1935 9.99542Z" fill="#AA3399"/>
<path d="M27.3164 16.7565C20.5007 16.7565 14.9561 21.9701 14.9561 28.3782C14.9561 34.7864 20.5009 40 27.3164 40C34.1319 40 39.6766 34.7864 39.6766 28.3782C39.6766 21.9701 34.1321 16.7565 27.3164 16.7565ZM27.3164 38.5472C21.3582 38.5472 16.5111 33.9855 16.5111 28.3782C16.5111 22.7709 21.3584 18.2093 27.3164 18.2093C33.2743 18.2093 38.1217 22.7709 38.1217 28.3782C38.1218 33.9855 33.2745 38.5472 27.3164 38.5472Z" fill="#AA3399"/>
<path d="M29.2449 27.6781L27.7613 24.9226L29.2449 22.1672C29.3956 21.8873 29.3372 21.5487 29.0999 21.3274C28.8634 21.1064 28.5009 21.0511 28.201 21.1919L25.2518 22.578L22.3025 21.1919C22.0027 21.0511 21.6402 21.1064 21.4036 21.3274C21.1663 21.5487 21.1085 21.8873 21.2587 22.1672L22.7419 24.9226L21.2587 27.6781C21.1082 27.9579 21.1663 28.2966 21.4036 28.5179C21.5529 28.6574 21.7518 28.7307 21.9537 28.7307C22.072 28.7307 22.1916 28.7055 22.3025 28.6533L25.2518 27.2672L28.201 28.6533C28.5009 28.7944 28.8634 28.7389 29.0999 28.5179C29.3371 28.2966 29.3954 27.9579 29.2449 27.6781ZM26.1964 25.2489L26.7993 26.3686L25.6009 25.8053C25.3815 25.7025 25.1218 25.7025 24.9024 25.8053L23.7035 26.3689L24.3064 25.2488C24.4168 25.0435 24.4168 24.8016 24.3064 24.5962L23.7035 23.4761L24.9024 24.0398C25.1218 24.1426 25.3815 24.1426 25.6009 24.0398L26.7993 23.4765L26.1964 24.5962C26.0861 24.8017 26.0861 25.0436 26.1964 25.2489Z" fill="#AA3399"/>
</g>
<defs>
<clipPath id="clip0_30_129">
<rect width="42.8135" height="40" fill="white"/>
</clipPath>
</defs>
</svg>
